<svg width="561" height="513" viewBox="0 0 561 513" fill="none" xmlns="http://www.w3.org/2000/svg">
<path opacity="0.67" d="M281.833 489.721C426.475 489.721 543.731 472.856 543.731 452.052C543.731 431.248 426.475 414.383 281.833 414.383C137.191 414.383 19.9348 431.248 19.9348 452.052C19.9348 472.856 137.191 489.721 281.833 489.721Z" fill="#8BCDE5"/>
<g opacity="0.35">
<path d="M542.208 277.124C533.146 248.073 513.783 221.769 487.166 209.548C459.504 196.851 424.548 198.808 403.636 175.875C392.419 163.559 387.733 146.403 380.169 131.314C354.559 80.1729 296.69 55.554 241.92 51.6933C183.729 47.5879 119.962 65.7632 85.7289 115.49C66.7665 143.032 58.6859 177.778 59.0344 211.791C59.2539 233.922 62.3002 258.228 50.0889 276.254C44.9127 283.893 37.4903 289.467 31.3718 296.291C13.5453 316.152 7.99472 346.181 13.9197 372.785C19.2508 396.738 33.0111 417.89 50.4245 434.407C94.4292 422.499 181.535 414.383 281.82 414.383C386.7 414.383 477.175 423.246 518.985 436.065C533.985 417.075 541.64 392.347 545.77 367.85C550.856 337.74 551.269 306.174 542.208 277.124Z" fill="#8BCDE5"/>
</g>
<g opacity="0.48">
<path d="M188.299 257.548C174.629 247.978 159.681 236.341 157.473 219.213C156.066 208.242 160.133 195.967 154.517 186.614C150.658 180.198 143.365 177.275 137.685 172.612C129.901 166.223 125.022 156.068 124.764 145.683C124.57 137.784 126.894 129.859 125.745 122.042C124.041 110.365 115.108 101.543 106.718 93.7124C116.012 95.4117 125.448 97.1517 133.993 101.366C142.539 105.58 150.258 112.622 153.394 122.002C156.686 131.871 154.621 143.181 158.545 152.792C162.417 162.267 171.26 168.181 178.295 175.358C198.316 195.804 203.66 230.455 190.816 256.529L188.299 257.548Z" fill="#4D82A3"/>
</g>
<path opacity="0.48" d="M105.84 94.3107C111.894 94.1067 118.103 95.7244 123.266 99.2181C125.822 100.972 128.171 103.16 129.953 105.798C130.96 107.035 131.618 108.503 132.418 109.889C133.102 111.33 133.67 112.839 134.251 114.335C136.304 120.384 137.491 126.692 138.485 132.972C139.505 139.239 140.176 145.615 142.009 151.569C142.926 154.532 144.229 157.387 146.269 159.562C147.276 160.65 148.463 161.547 149.767 162.24C151.148 162.974 152.465 163.831 153.73 164.742C156.273 166.563 158.622 168.629 160.842 170.832C163.076 173.034 165.154 175.386 167.064 177.901C170.872 182.903 174.177 188.395 176.281 194.417C177.313 197.435 178.062 200.562 178.307 203.756C178.553 206.951 178.295 210.186 177.455 213.232C178.165 210.132 178.295 206.924 177.972 203.784C177.623 200.643 176.797 197.571 175.687 194.635C173.493 188.749 170.136 183.393 166.29 178.539C162.391 173.727 158.028 169.282 153.059 165.747C151.819 164.877 150.542 164.048 149.212 163.355C147.805 162.621 146.488 161.642 145.378 160.446C143.132 158.067 141.738 155.022 140.77 151.963C138.911 145.778 138.304 139.402 137.31 133.135C136.381 126.868 135.181 120.642 133.309 114.634C132.78 113.166 132.237 111.697 131.605 110.284C130.856 108.938 130.237 107.483 129.281 106.273C127.603 103.677 125.357 101.515 122.905 99.7347C117.987 96.1594 111.894 94.4058 105.84 94.3107Z" fill="white"/>
<g opacity="0.48">
<path d="M407.405 297.052C408.941 290.976 405.017 284.437 406.631 278.388C408.696 270.653 418.364 267.431 424.496 261.885C431.04 255.944 433.467 247.244 435.649 238.965C437.908 230.36 440.167 221.769 442.439 213.164C440.993 226.363 453.191 239.672 448.673 252.206C446.905 257.113 442.697 261.151 441.845 266.276C440.812 272.42 444.801 278.333 446.35 284.451C449.099 295.244 443.29 307.221 432.822 312.346C428.162 314.63 422.482 315.608 417.435 313.896C411.071 311.734 407.005 305.821 404.94 299.88L407.405 297.052Z" fill="#4D82A3"/>
</g>
<path opacity="0.48" d="M412.375 310.606C415.757 308.2 418.739 305.168 421.062 301.675C423.425 298.222 425.193 294.293 426.006 290.147C426.458 288.067 426.587 285.987 426.755 283.839C426.884 281.678 427.078 279.503 427.452 277.355C428.136 273.059 429.388 268.804 431.441 264.971C432.46 263.054 433.661 261.273 434.797 259.506C435.378 258.622 435.881 257.725 436.346 256.814C436.798 255.863 437.224 254.897 437.637 253.919C439.289 250.017 440.619 245.966 441.69 241.833C442.748 237.714 443.471 233.473 443.613 229.205C443.794 224.936 443.316 220.613 441.884 216.562C443.587 220.504 444.207 224.895 444.246 229.218C444.233 233.568 443.613 237.878 442.658 242.092C441.716 246.319 440.335 250.425 438.721 254.408C438.308 255.4 437.882 256.393 437.43 257.371C436.94 258.364 436.41 259.315 435.829 260.213C434.681 262.021 433.532 263.761 432.564 265.623C430.563 269.293 429.311 273.372 428.601 277.559C428.226 279.652 428.02 281.773 427.865 283.907C427.697 286.041 427.491 288.271 426.961 290.378C425.012 298.942 419.397 306.242 412.375 310.606Z" fill="white"/>
<g opacity="0.48">
<path d="M405.457 361.556C403.882 349.063 408.774 335.932 418.146 327.49C427.956 318.653 442.22 314.684 449.435 303.632C457.516 291.248 453.876 274.364 460.072 260.933C466.565 246.863 482.662 239.087 489.206 225.045C488.341 243.777 487.463 262.51 486.599 281.243C486.263 288.475 485.889 295.883 483.139 302.585C477.718 315.785 463.841 324.404 459.556 338.011C457.877 343.34 457.826 349.023 456.819 354.501C454.934 364.792 449.151 374.797 439.87 379.677C430.589 384.557 417.732 382.994 411.369 374.675C409.303 371.969 406.502 368.204 403.443 369.726L405.457 361.556Z" fill="#4D82A3"/>
</g>
<path opacity="0.48" d="M417.552 358.688C420.611 357.94 423.554 356.771 426.355 355.317C429.143 353.849 431.751 351.986 433.919 349.648C436.101 347.337 437.753 344.523 438.644 341.41C439.56 338.256 440.438 335.089 441.445 331.935C443.407 325.682 445.95 319.36 450.274 314.344C450.816 313.719 451.359 313.094 451.952 312.55L452.83 311.693L453.772 310.905L454.715 310.13L455.709 309.423L456.703 308.73L457.593 308.05C459.865 305.984 461.698 303.279 463.389 300.56C466.771 295.068 469.624 289.182 472.283 283.227C474.929 277.26 477.291 271.156 479.512 264.998C481.719 258.84 483.707 252.573 485.346 246.211C486.185 243.043 486.921 239.835 487.489 236.586C488.044 233.351 488.47 230.061 488.431 226.758C488.612 230.061 488.302 233.378 487.825 236.641C487.36 239.917 486.715 243.152 485.966 246.374C484.443 252.79 482.558 259.112 480.454 265.351C478.376 271.591 475.962 277.708 473.354 283.744C470.721 289.753 467.894 295.693 464.473 301.294C462.718 304.067 460.859 306.799 458.368 309.056L457.348 309.817L456.38 310.483L455.412 311.15L454.508 311.897L453.605 312.645L452.753 313.461C452.172 313.991 451.655 314.575 451.126 315.173C446.931 319.959 444.453 326.117 442.361 332.275C441.316 335.374 440.374 338.514 439.405 341.668C438.424 344.876 436.63 347.799 434.345 350.11C432.048 352.435 429.35 354.243 426.484 355.629C423.644 357.03 420.637 358.09 417.552 358.688Z" fill="white"/>
<path opacity="0.67" d="M150.18 423.396C150.18 423.396 136.665 422.77 140.912 430.587C145.146 438.404 222.493 472.987 234.149 474.102C245.805 475.216 431.221 443.977 433.338 438.39C435.455 432.803 431.221 424.252 431.221 424.252L150.18 423.396Z" fill="#8BCDE5"/>
<path d="M389.269 24.1245H148.128V63.1938H389.269V24.1245Z" fill="#5CA28B"/>
<path d="M338.965 24.1245H326.999V63.1938H338.965V24.1245Z" fill="#ECB751"/>
<path d="M351.048 24.1245H345.781V63.1938H351.048V24.1245Z" fill="#ECB751"/>
<path d="M359.477 24.1245H357.876V63.1938H359.477V24.1245Z" fill="#ECB751"/>
<path d="M389.269 24.1245L412.969 44.0262L407.47 44.3796L389.269 29.5485V24.1245Z" fill="#5CA28B"/>
<path d="M193.888 31.0982H178.811C171.789 31.0982 166.045 37.1476 166.045 44.5428C166.045 51.9379 171.789 57.9873 178.811 57.9873H193.888V31.0982Z" fill="#ECB751"/>
<path d="M332.601 35.1629L200.742 34.7687C199.852 34.7687 199.116 33.9938 199.116 33.0422V32.8519C199.116 31.9139 199.852 31.139 200.755 31.139L332.614 31.5333C333.505 31.5333 334.241 32.3081 334.241 33.2597V33.45C334.241 34.388 333.505 35.1629 332.601 35.1629Z" fill="#ECB751"/>
<path d="M332.472 42.6532L200.613 42.2726C199.722 42.2726 198.987 41.4977 198.987 40.5461V40.3558C198.987 39.4178 199.722 38.643 200.626 38.643L332.485 39.01C333.376 39.01 334.111 39.7849 334.111 40.7365V40.9268C334.111 41.8784 333.376 42.6532 332.472 42.6532Z" fill="#ECB751"/>
<path d="M332.356 50.1572L200.497 49.7901C199.607 49.7901 198.871 49.0153 198.871 48.0637V47.8734C198.871 46.9354 199.607 46.1605 200.51 46.1605L332.369 46.5276C333.26 46.5276 333.996 47.3024 333.996 48.254V48.4443C333.983 49.3823 333.247 50.1572 332.356 50.1572Z" fill="#ECB751"/>
<path d="M332.227 57.6474L200.368 57.2803C199.477 57.2803 198.742 56.5055 198.742 55.5539V55.3636C198.742 54.4256 199.477 53.6507 200.381 53.6507L332.24 54.0178C333.131 54.0178 333.867 54.7926 333.867 55.7442V55.9345C333.854 56.8861 333.118 57.661 332.227 57.6474Z" fill="#ECB751"/>
<mask id="mask0_2086_2506" style="mask-type:luminance" maskUnits="userSpaceOnUse" x="389" y="29" width="19" height="38">
<path d="M389.269 29.5485L407.47 44.3796L407.134 66.8098L389.269 63.1938V29.5485Z" fill="white"/>
</mask>
<g mask="url(#mask0_2086_2506)">
<path d="M389.269 29.5485L407.47 44.3796L407.134 66.8098L389.269 63.1938V29.5485Z" fill="white"/>
</g>
<mask id="mask1_2086_2506" style="mask-type:luminance" maskUnits="userSpaceOnUse" x="389" y="29" width="19" height="38">
<path d="M389.269 29.5485L407.47 44.3796L407.134 66.8098L389.269 63.1938V29.5485Z" fill="white"/>
</mask>
<g mask="url(#mask1_2086_2506)">
<path opacity="0.15" d="M406.605 66.4699C400.396 62.0519 395.271 56.2472 391.735 49.2598C390.818 47.4382 390.005 45.5623 389.269 43.6591V63.1802L407.134 66.7962V66.769C406.954 66.701 406.773 66.6059 406.605 66.4699Z" fill="#74471B"/>
</g>
<mask id="mask2_2086_2506" style="mask-type:luminance" maskUnits="userSpaceOnUse" x="389" y="29" width="19" height="38">
<path d="M389.269 29.5485L407.47 44.3796L407.134 66.8098L389.269 63.1938V29.5485Z" fill="white"/>
</mask>
<g mask="url(#mask2_2086_2506)">
<g opacity="0.37">
<path d="M369.506 24.5594L424.005 56.2336" stroke="#74471B" stroke-miterlimit="10"/>
<path d="M369.133 32.8926L425.013 58.1096" stroke="#74471B" stroke-miterlimit="10"/>
<path d="M368.655 43.7136L426.045 60.04" stroke="#74471B" stroke-miterlimit="10"/>
<path d="M367.996 58.3136L427.13 62.0656" stroke="#74471B" stroke-miterlimit="10"/>
</g>
</g>
<path opacity="0.2" d="M389.269 24.1245H148.128V37.8137H389.269V24.1245Z" fill="white"/>
<path opacity="0.15" d="M389.269 55.5403H148.128V63.1938H389.269V55.5403Z" fill="#74471B"/>
<path d="M156.634 416.64L144.655 421.955C144.655 421.955 128.804 424.905 236.473 465.225L246.115 463.743L156.634 416.64Z" fill="#ECB751"/>
<path d="M236.472 465.225C236.472 465.225 248.852 454.295 236.369 427.474L427.245 397.825C427.245 397.825 439.702 415.933 426.651 432.68L236.472 465.225Z" fill="#ECB751"/>
<path d="M152.865 397.975C152.865 397.975 163.257 413.921 150.18 423.396L238.538 462.316C238.538 462.316 248.839 447.036 236.37 427.474L152.865 397.975Z" fill="white"/>
<path d="M236.356 427.474L146.992 396.548C146.992 396.548 144.565 392.197 148.36 392.918L322.042 375.667L427.245 397.839L236.356 427.474Z" fill="#ECB751"/>
<path d="M268.486 433.7C266.537 430.043 262.974 429.024 262.974 429.024C262.974 429.024 262.548 433.904 264.484 437.575C266.433 441.259 270.035 442.319 270.035 442.319C270.035 442.319 270.448 437.384 268.486 433.7Z" fill="#DC903C"/>
<path d="M270.099 433.428C271.3 429.214 274.579 426.985 274.579 426.985C274.579 426.985 275.908 431.58 274.708 435.807C273.507 440.049 270.216 442.305 270.216 442.305C270.216 442.305 268.886 437.656 270.099 433.428Z" fill="#DC903C"/>
<path d="M271.7 450.299C273.688 454.05 277.328 455.138 277.328 455.138C277.328 455.138 277.728 450.122 275.727 446.383C273.739 442.659 270.138 441.598 270.138 441.598C270.138 441.598 269.725 446.574 271.7 450.299Z" fill="#DC903C"/>
<path d="M270.022 450.081C268.796 454.377 265.491 456.633 265.491 456.633C265.491 456.633 264.174 451.93 265.401 447.648C266.627 443.379 269.906 441.136 269.906 441.136C269.906 441.136 271.248 445.812 270.022 450.081Z" fill="#DC903C"/>
<path d="M277.818 455.152L265.594 457.218L263.012 429.01L275.043 426.89L277.818 455.152Z" stroke="#DC903C" stroke-miterlimit="10"/>
<path d="M350.699 419.372C348.75 415.715 345.187 414.696 345.187 414.696C345.187 414.696 344.761 419.576 346.698 423.246C348.647 426.93 352.248 427.991 352.248 427.991C352.248 427.991 352.661 423.043 350.699 419.372Z" fill="#DC903C"/>
<path d="M352.313 419.087C353.513 414.872 356.792 412.643 356.792 412.643C356.792 412.643 358.122 417.238 356.921 421.466C355.721 425.707 352.429 427.963 352.429 427.963C352.429 427.963 351.1 423.314 352.313 419.087Z" fill="#DC903C"/>
<path d="M353.926 435.97C355.914 439.722 359.554 440.81 359.554 440.81C359.554 440.81 359.954 435.794 357.953 432.055C355.965 428.331 352.364 427.27 352.364 427.27C352.364 427.27 351.938 432.232 353.926 435.97Z" fill="#DC903C"/>
<path d="M352.248 435.753C351.022 440.049 347.717 442.305 347.717 442.305C347.717 442.305 346.4 437.602 347.627 433.319C348.853 429.051 352.132 426.808 352.132 426.808C352.132 426.808 353.461 431.471 352.248 435.753Z" fill="#DC903C"/>
<path d="M360.032 440.81L347.808 442.876L345.239 414.682L357.256 412.561L360.032 440.81Z" stroke="#DC903C" stroke-miterlimit="10"/>
<path d="M415.254 409.475C413.304 405.995 409.742 405.03 409.742 405.03C409.742 405.03 409.316 409.679 411.252 413.159C413.201 416.667 416.79 417.673 416.79 417.673C416.79 417.673 417.216 412.969 415.254 409.475Z" fill="#DC903C"/>
<path d="M416.867 409.204C418.08 405.193 421.346 403.073 421.346 403.073C421.346 403.073 422.676 407.436 421.475 411.46C420.275 415.498 416.983 417.632 416.983 417.632C416.983 417.632 415.654 413.227 416.867 409.204Z" fill="#DC903C"/>
<path d="M418.468 425.258C420.456 428.833 424.096 429.867 424.096 429.867C424.096 429.867 424.496 425.095 422.495 421.533C420.507 417.999 416.906 416.993 416.906 416.993C416.906 416.993 416.493 421.71 418.468 425.258Z" fill="#DC903C"/>
<path d="M416.803 425.054C415.576 429.132 412.272 431.294 412.272 431.294C412.272 431.294 410.955 426.821 412.194 422.757C413.421 418.706 416.699 416.571 416.699 416.571C416.699 416.571 418.016 420.99 416.803 425.054Z" fill="#DC903C"/>
<path d="M424.586 429.867L412.362 431.838L409.793 405.017L421.824 403.005L424.586 429.867Z" stroke="#DC903C" stroke-miterlimit="10"/>
<path d="M341.766 417.605L280.013 426.699L280.348 429.377L342.025 420.174L341.766 417.605Z" fill="#DC903C"/>
<path d="M342.412 425.041L280.877 434.448L281.213 437.099L342.67 427.596L342.412 425.041Z" fill="#DC903C"/>
<path d="M343.018 433.401L281.729 443.134L282.065 445.772L343.277 435.929L343.018 433.401Z" fill="#DC903C"/>
<path d="M343.38 440.416L282.285 450.448L282.607 453.072L343.625 442.944L343.38 440.416Z" fill="#DC903C"/>
<path d="M406.786 407.328L360.148 414.043L360.509 416.708L407.07 409.883L406.786 407.328Z" fill="#DC903C"/>
<path d="M407.521 414.736L361.077 421.765L361.426 424.429L407.805 417.292L407.521 414.736Z" fill="#DC903C"/>
<path d="M408.27 423.07L362.02 430.451L362.368 433.088L408.554 425.598L408.27 423.07Z" fill="#DC903C"/>
<path d="M408.786 430.071L362.691 437.751L363.026 440.361L409.058 432.586L408.786 430.071Z" fill="#DC903C"/>
<path d="M246.541 461.174C246.541 461.174 256.39 447.811 245.948 430.043" stroke="#DC903C" stroke-miterlimit="10"/>
<mask id="mask3_2086_2506" style="mask-type:luminance" maskUnits="userSpaceOnUse" x="150" y="397" width="93" height="66">
<path d="M152.865 397.975C152.865 397.975 163.257 413.921 150.18 423.396L238.538 462.316C238.538 462.316 248.839 447.036 236.37 427.474L152.865 397.975Z" fill="white"/>
</mask>
<g mask="url(#mask3_2086_2506)">
<path opacity="0.15" d="M227.773 437.262C212.502 438.689 197.361 435.019 182.58 431.443C172.267 428.942 162.392 425.571 153.02 420.84C152.22 421.724 151.291 422.58 150.18 423.396L238.538 462.316C238.538 462.316 246.296 450.801 240.178 434.951C236.124 436.093 231.994 436.868 227.773 437.262Z" fill="#74471B"/>
</g>
<mask id="mask4_2086_2506" style="mask-type:luminance" maskUnits="userSpaceOnUse" x="150" y="397" width="93" height="66">
<path d="M152.865 397.975C152.865 397.975 163.257 413.921 150.18 423.396L238.538 462.316C238.538 462.316 248.839 447.036 236.37 427.474L152.865 397.975Z" fill="white"/>
</mask>
<g mask="url(#mask4_2086_2506)">
<g opacity="0.38">
<g opacity="0.4">
<path d="M239.313 460.304C237.777 458.836 181.135 434.421 151.407 421.71L151.665 421.044C151.884 421.139 173.996 430.601 195.799 440.049C240.191 459.298 240.061 459.706 239.907 460.209L239.261 459.978L239.584 460.086L239.313 460.304Z" fill="#74471B"/>
</g>
<g opacity="0.4">
<path d="M241.159 455.75C239.61 454.295 182.929 430.003 153.162 417.374L153.421 416.708C153.64 416.803 175.778 426.21 197.593 435.603C242.024 454.744 241.894 455.152 241.74 455.655L241.094 455.437L241.417 455.546L241.159 455.75Z" fill="#74471B"/>
</g>
<g opacity="0.4">
<path d="M243.392 450.598C241.843 449.157 184.955 425.354 155.111 412.983L155.357 412.317C155.576 412.412 177.791 421.615 199.684 430.832C244.257 449.592 244.14 449.986 243.985 450.503L243.663 450.394L243.392 450.598Z" fill="#74471B"/>
</g>
<g opacity="0.4">
<path d="M243.301 443.502C241.701 442.102 184.181 420.12 153.988 408.687L154.221 408.008C154.44 408.089 176.914 416.599 199.051 425.109C244.14 442.441 244.037 442.849 243.895 443.366L243.572 443.271L243.301 443.502Z" fill="#74471B"/>
</g>
<g opacity="0.4">
<path d="M243.663 435.74C242.036 434.38 184.039 413.826 153.601 403.127L153.82 402.448C154.053 402.529 176.694 410.482 199.012 418.448C244.476 434.679 244.373 435.087 244.243 435.604L243.908 435.508L243.663 435.74Z" fill="#74471B"/>
</g>
</g>
</g>
<path opacity="0.2" d="M285.512 434.149C317.331 429.622 349.176 425.19 380.995 420.677C398.163 418.243 415.344 415.769 432.499 413.254C431.75 404.378 427.245 397.825 427.245 397.825L236.356 427.474C238.68 432.463 240.139 436.895 240.978 440.81C255.59 437.275 270.68 436.256 285.512 434.149Z" fill="white"/>
<path opacity="0.15" d="M403.752 428.48C396.769 429.432 389.747 430.084 382.75 431.036C375.857 431.974 368.977 433.034 362.11 434.176C348.233 436.46 334.396 439.029 320.532 441.435C306.397 443.896 292.276 446.519 278.063 448.49C271.661 449.374 265.258 450.095 258.856 451.033C253.202 451.862 247.483 452.691 241.765 452.405C240.887 461.31 236.46 465.238 236.46 465.238L426.639 432.681C428.82 429.88 430.266 427.053 431.208 424.266C422.043 425.476 412.917 427.216 403.752 428.48Z" fill="#74471B"/>
<path d="M152.633 385.631C152.633 385.631 146.089 385.292 147.47 388.187C148.851 391.083 148.515 392.537 155.421 395.419C162.327 398.301 255.823 428.126 255.823 427.039C255.823 425.951 433.945 398.152 433.945 398.152C433.945 398.152 445.266 381.417 434.178 359.667L327.619 344.401L151.174 358.403C151.174 358.403 145.327 360.958 155.318 362.739L152.633 385.631Z" fill="#4D82A3"/>
<path opacity="0.21" d="M416.932 390.906C405.534 392.727 394.046 394.06 382.712 396.248C372.592 398.206 362.549 400.503 352.39 402.23C341.947 404.011 331.44 405.479 320.907 406.525C310.425 407.572 299.956 408.728 289.475 409.883C279.652 410.957 269.583 412.045 259.734 410.848C240.63 408.537 222.816 400.367 204.499 394.712C194.443 391.613 184.272 388.921 174.151 386.039C169.504 384.721 164.961 383.198 160.417 381.54C158.093 380.697 155.77 379.867 153.408 379.174L152.646 385.645C152.646 385.645 146.102 385.305 147.483 388.201C148.864 391.096 148.528 392.551 155.434 395.433C162.34 398.315 255.836 428.14 255.836 427.052C255.836 425.965 433.958 398.165 433.958 398.165C433.958 398.165 436.824 393.937 438.257 386.964C431.106 388.065 424.045 389.764 416.932 390.906Z" fill="#2B3448"/>
<path opacity="0.4" d="M433.029 362.426C434.436 364.846 435.52 367.483 436.333 370.202C437.147 372.921 437.676 375.762 437.869 378.631C437.999 381.512 437.779 384.422 437.043 387.222C436.282 390.009 434.875 392.564 433.106 394.685C434.668 393.842 435.869 392.7 436.011 386.95C436.501 384.245 436.656 381.485 436.501 378.726C436.346 375.966 435.882 373.22 435.301 370.501C434.681 367.782 433.958 365.077 433.029 362.426Z" fill="#2B3448"/>
<path d="M427.491 363.65L276.231 385.727L279.2 415.47L430.034 393.299L427.491 363.65ZM424.858 392.279L422.612 366.151L426.136 364.941L428.498 392.456C427.724 392.401 426.484 392.347 424.858 392.279ZM283.305 385.604L350.364 375.817L351.59 388.962C323.321 387.684 295.374 386.42 283.331 385.876L283.305 385.604ZM421.076 365.499L421.089 365.689L353.384 389.044C353.281 389.044 353.178 389.03 353.074 389.03L351.835 375.599L421.076 365.499ZM348.557 389.778L329.155 392.619L329.246 393.53L348.66 390.688L285.951 412.33L283.421 386.841L348.557 389.778ZM374.67 385.944L358.238 388.35L421.179 366.627L423.386 392.197C411.885 391.681 385.539 390.485 358.289 389.261L374.761 386.855L374.67 385.944ZM281.924 386.76L284.505 412.806L280.555 414.165L277.806 386.569L281.924 386.76ZM285.047 413.608L286.067 413.459L286.041 413.268L351.732 390.607L352.945 403.644L354.404 403.426L353.165 390.118L353.475 390.009L422.599 393.135C422.909 393.149 423.18 393.163 423.464 393.176L423.477 393.285L424.045 393.203C424.174 393.203 424.29 393.217 424.406 393.217L284.686 413.758L285.047 413.608Z" fill="#ECB751"/>
<path opacity="0.12" d="M434.177 359.694L432.99 359.531C431.505 359.803 430.021 360.129 428.549 360.482C423.231 361.787 418.016 363.5 412.724 364.9C407.238 366.355 401.7 367.592 396.162 368.843C384.932 371.385 373.637 373.655 362.252 375.327C338.823 378.766 315.124 379.487 291.746 383.456C282.594 385.02 273.533 387.086 264.432 388.935C265.981 392.333 267.298 395.881 268.085 399.525C268.86 403.113 269.208 407.083 268.279 410.685C268.808 410.644 269.338 410.631 269.867 410.59C279.716 409.774 289.462 407.966 299.169 406.05C309.186 404.065 319.215 402.23 329.271 400.49C349.95 396.914 370.862 395.038 391.631 392.129C401.519 390.743 411.407 389.288 421.243 387.562C426.949 386.556 432.874 384.041 438.773 383.429C439.521 376.958 438.799 368.761 434.177 359.694Z" fill="white"/>
<path d="M152.001 388.051L260.005 421.955C260.005 421.955 275.727 415.729 264.807 389.628L155.228 362.753L152.001 388.051Z" fill="white"/>
<path opacity="0.15" d="M265.556 391.45C260.586 393.231 255.513 394.508 250.337 395.446C231.568 398.831 211.96 399.212 193.088 396.711C184.465 395.569 175.868 393.924 167.336 392.211C166.755 392.089 166.187 391.966 165.606 391.844L260.134 421.955C260.134 421.955 274.888 416.014 265.556 391.45Z" fill="#74471B"/>
<path opacity="0.4" d="M269.067 387.535C270.448 390.321 271.493 393.271 272.358 396.289C273.223 399.307 273.817 402.42 274.049 405.587C274.269 408.741 274.127 412.017 273.107 415.076C272.578 416.585 271.829 418.04 270.809 419.25C269.764 420.432 268.512 421.384 267.13 421.955C269.673 420.283 271.364 417.645 272.113 414.736C272.836 411.814 272.939 408.728 272.707 405.683C272.513 402.624 271.971 399.579 271.364 396.547C271.055 395.025 270.693 393.53 270.306 392.021C269.919 390.525 269.493 389.03 269.067 387.535Z" fill="#2B3448"/>
<mask id="mask5_2086_2506" style="mask-type:luminance" maskUnits="userSpaceOnUse" x="152" y="362" width="117" height="60">
<path d="M152.001 388.051L260.005 421.955C260.005 421.955 275.727 415.729 264.807 389.628L155.228 362.753L152.001 388.051Z" fill="white"/>
</mask>
<g mask="url(#mask5_2086_2506)">
<g opacity="0.29">
<path d="M268.951 395.909L153.485 363.772L153.666 363.079L269.131 395.215L268.951 395.909Z" fill="#74471B"/>
</g>
</g>
<mask id="mask6_2086_2506" style="mask-type:luminance" maskUnits="userSpaceOnUse" x="152" y="362" width="117" height="60">
<path d="M152.001 388.051L260.005 421.955C260.005 421.955 275.727 415.729 264.807 389.628L155.228 362.753L152.001 388.051Z" fill="white"/>
</mask>
<g mask="url(#mask6_2086_2506)">
<g opacity="0.29">
<path d="M271.313 400.585L151.833 366.953L152.014 366.26L271.494 399.892L271.313 400.585Z" fill="#74471B"/>
</g>
</g>
<mask id="mask7_2086_2506" style="mask-type:luminance" maskUnits="userSpaceOnUse" x="152" y="362" width="117" height="60">
<path d="M152.001 388.051L260.005 421.955C260.005 421.955 275.727 415.729 264.807 389.628L155.228 362.753L152.001 388.051Z" fill="white"/>
</mask>
<g mask="url(#mask7_2086_2506)">
<g opacity="0.29">
<path d="M269.661 403.997L150.181 370.379L150.361 369.686L269.841 403.304L269.661 403.997Z" fill="#74471B"/>
</g>
</g>
<mask id="mask8_2086_2506" style="mask-type:luminance" maskUnits="userSpaceOnUse" x="152" y="362" width="117" height="60">
<path d="M152.001 388.051L260.005 421.955C260.005 421.955 275.727 415.729 264.807 389.628L155.228 362.753L152.001 388.051Z" fill="white"/>
</mask>
<g mask="url(#mask8_2086_2506)">
<g opacity="0.29">
<path d="M269.57 407.926L150.09 374.294L150.271 373.601L269.751 407.232L269.57 407.926Z" fill="#74471B"/>
</g>
</g>
<mask id="mask9_2086_2506" style="mask-type:luminance" maskUnits="userSpaceOnUse" x="152" y="362" width="117" height="60">
<path d="M152.001 388.051L260.005 421.955C260.005 421.955 275.727 415.729 264.807 389.628L155.228 362.753L152.001 388.051Z" fill="white"/>
</mask>
<g mask="url(#mask9_2086_2506)">
<g opacity="0.29">
<path d="M268.796 412.276L149.316 378.658L149.496 377.964L268.976 411.583L268.796 412.276Z" fill="#74471B"/>
</g>
</g>
<mask id="mask10_2086_2506" style="mask-type:luminance" maskUnits="userSpaceOnUse" x="152" y="362" width="117" height="60">
<path d="M152.001 388.051L260.005 421.955C260.005 421.955 275.727 415.729 264.807 389.628L155.228 362.753L152.001 388.051Z" fill="white"/>
</mask>
<g mask="url(#mask10_2086_2506)">
<g opacity="0.29">
<path d="M268.705 416.204L149.226 382.573L149.406 381.879L268.886 415.511L268.705 416.204Z" fill="#74471B"/>
</g>
</g>
<mask id="mask11_2086_2506" style="mask-type:luminance" maskUnits="userSpaceOnUse" x="152" y="362" width="117" height="60">
<path d="M152.001 388.051L260.005 421.955C260.005 421.955 275.727 415.729 264.807 389.628L155.228 362.753L152.001 388.051Z" fill="white"/>
</mask>
<g mask="url(#mask11_2086_2506)">
<g opacity="0.29">
<path d="M268.615 420.119L149.135 386.488L149.316 385.794L268.796 419.426L268.615 420.119Z" fill="#74471B"/>
</g>
</g>
<path d="M143.081 352.639L255.539 383.13L431.957 358.239C431.957 358.239 443.988 345.135 432.203 324.485L312.903 312.523L142.306 320.693C142.306 320.693 139.905 324.689 151.975 325.016C151.975 325.016 162.895 341.097 148.941 350.436C148.928 350.436 141.338 346.467 143.081 352.639Z" fill="#5CA28B"/>
<path opacity="0.2" d="M433.416 326.783C416.842 329.135 400.164 330.766 383.59 332.995C362.536 335.823 341.367 337.481 320.249 339.724C299.492 341.927 278.877 345.298 258.172 347.935C258.121 347.949 258.069 347.949 258.004 347.949C261.141 353.604 263.723 359.626 262.935 365.431C264.033 365.458 265.143 365.472 266.253 365.444C271.106 365.349 275.934 364.656 280.749 364.085C285.706 363.5 290.65 362.889 295.606 362.277C305.507 361.04 315.408 359.776 325.309 358.498C345.213 355.942 365.118 353.414 385.061 351.32C402.462 349.499 419.798 347.052 437.198 345.23C437.741 340.255 437.043 334.029 433.416 326.783Z" fill="white"/>
<path opacity="0.15" d="M410.568 355.616C399.416 357.016 388.237 358.104 377.058 359.341C357.231 361.529 337.43 364.099 317.641 366.627C307.74 367.891 297.84 369.156 287.939 370.365C278.128 371.562 268.331 373.111 258.43 372.405C249.072 371.725 239.881 369.699 230.755 367.551C221.487 365.376 212.18 363.46 202.886 361.461C193.514 359.449 184.156 357.315 174.887 354.827C170.266 353.59 165.645 352.476 161.062 351.007C157.551 349.893 154.027 348.792 150.439 348.017C149.923 348.819 149.342 349.634 148.67 350.423C148.67 350.423 141.08 346.453 142.823 352.625L255.281 383.117L431.699 358.226C431.699 358.226 433.507 356.241 435.043 352.612C426.859 353.536 418.714 354.596 410.568 355.616Z" fill="#74471B"/>
<path opacity="0.34" d="M277.299 350.034L268.189 364.388L281.819 373.982L290.929 359.628L277.299 350.034Z" fill="#2B3448"/>
<g opacity="0.5">
<path d="M286.803 360.51C284.738 363.759 282.685 367.008 280.62 370.257C280.917 370.175 281.227 370.094 281.524 369.998C278.826 368.095 276.115 366.192 273.417 364.289C273.172 364.126 272.423 363.772 272.294 363.5C272.307 363.541 272.32 363.555 272.384 363.419C272.501 363.201 272.655 362.997 272.785 362.78C273.83 361.135 274.876 359.477 275.934 357.832C276.786 356.499 277.625 355.167 278.477 353.821C278.18 353.903 277.87 353.985 277.574 354.08C280.659 356.255 283.744 358.416 286.829 360.591C287.048 360.741 287.823 360.347 287.707 360.265C284.622 358.09 281.536 355.929 278.451 353.753C278.245 353.618 277.677 353.808 277.548 354.012C275.482 357.261 273.43 360.51 271.365 363.759C271.352 363.786 271.352 363.813 271.39 363.84C274.476 366.015 277.561 368.177 280.646 370.352C280.852 370.488 281.42 370.297 281.549 370.094C283.615 366.845 285.667 363.596 287.732 360.347C287.784 360.251 286.958 360.279 286.803 360.51Z" fill="white"/>
</g>
<path opacity="0.61" d="M260.289 345.665L281.407 343.273L302.538 340.989L344.8 336.448L387.075 332.125L408.219 329.978L429.376 327.938L408.258 330.331L387.127 332.601L344.865 337.155L302.577 341.465L281.433 343.612L260.289 345.665Z" fill="#2B3448"/>
<path opacity="0.34" d="M297.233 342.035C297.233 342.035 314.878 360.85 302.938 376.306L318.312 374.457C318.312 374.457 324.237 357.369 312.206 340.581L297.233 342.035Z" fill="#2B3448"/>
<path opacity="0.34" d="M401.416 331.065C401.416 331.065 418.249 347.704 406.309 361.815L422.47 360.088C422.47 360.088 428.421 345.04 416.39 329.733L401.416 331.065Z" fill="#2B3448"/>
<path opacity="0.58" d="M263.206 378.236C263.955 375.953 264.329 373.587 264.561 371.235C264.768 368.884 264.794 366.518 264.587 364.18C264.445 363.011 264.381 361.828 264.136 360.673C264.032 360.088 263.955 359.504 263.839 358.933L263.438 357.206C263.219 356.037 262.806 354.922 262.509 353.767C262.186 352.612 261.747 351.51 261.412 350.341C262.019 351.361 262.587 352.421 263.129 353.509C263.58 354.623 264.136 355.711 264.458 356.894C265.271 359.191 265.685 361.624 265.943 364.071C266.123 366.518 266.033 369.006 265.607 371.412C265.181 373.805 264.432 376.184 263.206 378.236Z" fill="#2B3448"/>
<mask id="mask12_2086_2506" style="mask-type:luminance" maskUnits="userSpaceOnUse" x="148" y="325" width="114" height="54">
<path d="M148.928 350.437C148.038 351.347 255.177 378.78 255.177 378.78C255.177 378.78 268.808 375.055 257.01 347.867L151.962 325.016C151.962 325.016 157.874 341.329 148.928 350.437Z" fill="white"/>
</mask>
<g mask="url(#mask12_2086_2506)">
<path d="M148.928 350.437C148.038 351.347 255.177 378.78 255.177 378.78C255.177 378.78 268.808 375.055 257.01 347.867L151.962 325.016C151.962 325.016 157.874 341.329 148.928 350.437Z" fill="white"/>
</g>
<mask id="mask13_2086_2506" style="mask-type:luminance" maskUnits="userSpaceOnUse" x="148" y="325" width="114" height="54">
<path d="M148.928 350.437C148.038 351.347 255.177 378.78 255.177 378.78C255.177 378.78 268.808 375.055 257.01 347.867L151.962 325.016C151.962 325.016 157.874 341.329 148.928 350.437Z" fill="white"/>
</mask>
<g mask="url(#mask13_2086_2506)">
<g opacity="0.29">
<path d="M151.034 327.505L150.889 328.209L259.028 352.901L259.173 352.197L151.034 327.505Z" fill="#74471B"/>
</g>
<g opacity="0.29">
<path d="M150.074 332.592L149.935 333.298L260.7 357.507L260.839 356.801L150.074 332.592Z" fill="#74471B"/>
</g>
<g opacity="0.29">
<path d="M150.352 337.994L150.208 338.699L264.487 364.638L264.631 363.933L150.352 337.994Z" fill="#74471B"/>
</g>
<g opacity="0.29">
<path d="M149.751 343.388L149.605 344.091L264.421 370.594L264.568 369.891L149.751 343.388Z" fill="#74471B"/>
</g>
<g opacity="0.29">
<path d="M148.415 347.379L148.26 348.081L261.994 376.011L262.149 375.309L148.415 347.379Z" fill="#74471B"/>
</g>
</g>
<path opacity="0.15" d="M254.403 354.814C246.684 357.247 238.5 357.859 230.471 357.709C220.66 357.533 210.824 356.472 201.065 355.426C190.248 354.27 179.431 352.829 168.575 352.082C163.321 351.714 158.068 351.511 152.814 351.347C152.298 351.334 151.794 351.32 151.278 351.32C166.923 356.173 255.177 378.767 255.177 378.767C255.177 378.767 267.014 375.531 259.05 353.06C257.54 353.713 255.991 354.311 254.403 354.814Z" fill="#74471B"/>
<path d="M247.355 360.496L246.413 392.442L249.511 388.799L251.24 393.516L252.531 361.57L247.355 360.496Z" fill="#DE6C6B"/>
<path d="M138.485 315.989L225.075 342.212L428.395 325.954C428.395 325.954 442.491 312.482 429.685 293.273L283.847 277.042L137.517 280.101C135.387 280.142 134.406 282.915 135.994 284.41L145.301 286.558C145.301 286.558 158.158 306.704 144.346 312.332L139.183 312.713L138.485 315.989Z" fill="#DE6C6B"/>
<path opacity="0.15" d="M383.293 321.128C362.497 323.072 341.805 326.089 321.01 328.033C300.098 329.991 279.122 331.323 258.133 331.867C247.91 332.125 237.622 332.383 227.398 332.03C217.149 331.677 206.977 329.814 197.038 327.191C187.447 324.662 178.05 321.563 168.859 317.756C161.333 314.643 153.808 311.285 145.985 309.056C145.572 310.239 145.043 311.353 144.359 312.332L139.195 312.713L138.511 315.975L225.101 342.198L428.42 325.94C428.42 325.94 431.493 323.004 433.467 317.906C416.712 318.558 399.983 319.578 383.293 321.128Z" fill="#74471B"/>
<path opacity="0.4" d="M231.542 337.359C233.129 335.034 234.175 332.397 234.937 329.719C235.672 327.027 236.047 324.254 236.098 321.468C236.085 320.067 236.098 318.667 235.918 317.281C235.866 315.88 235.556 314.507 235.363 313.107C235.13 311.721 234.743 310.361 234.472 308.961C234.11 307.588 233.672 306.242 233.323 304.842C233.956 306.106 234.524 307.425 235.104 308.73C235.543 310.089 236.073 311.435 236.408 312.849C237.118 315.649 237.493 318.558 237.467 321.495C237.376 324.417 236.925 327.34 235.943 330.086C234.975 332.805 233.543 335.388 231.542 337.359Z" fill="#2B3448"/>
<path opacity="0.4" d="M426.562 323.099C428.059 321.209 429.104 319.021 429.84 316.778C430.563 314.521 430.912 312.169 430.912 309.804C430.873 308.621 430.847 307.438 430.641 306.256C430.55 305.059 430.202 303.918 429.982 302.735C429.711 301.566 429.298 300.437 428.975 299.268C428.575 298.126 428.111 297.012 427.723 295.843C428.382 296.862 428.975 297.923 429.582 298.983C430.06 300.111 430.615 301.226 430.989 302.409C431.776 304.76 432.241 307.262 432.267 309.804C432.228 312.332 431.789 314.874 430.821 317.185C429.879 319.496 428.433 321.603 426.562 323.099Z" fill="#2B3448"/>
<path opacity="0.27" d="M266.627 321.1C266.653 327.843 261.902 333.322 256.029 333.349C250.156 333.362 245.38 327.911 245.367 321.168C245.354 314.426 250.091 308.947 255.965 308.92C261.838 308.907 266.614 314.358 266.627 321.1Z" stroke="#2B3448" stroke-miterlimit="10"/>
<path opacity="0.27" d="M423.889 310.008C423.915 316.75 419.165 322.229 413.291 322.256C407.418 322.269 402.642 316.818 402.629 310.076C402.603 303.333 407.354 297.855 413.227 297.827C419.1 297.814 423.876 303.265 423.889 310.008Z" stroke="#2B3448" stroke-miterlimit="10"/>
<path opacity="0.34" d="M331.879 299.703C331.879 299.703 341.766 317.756 333.699 333.498L358.25 331.446C358.25 331.446 365.066 316.302 355.359 298.249L331.879 299.703Z" fill="#2B3448"/>
<path opacity="0.34" d="M260.599 326.239L256.933 324.948L253.835 327.394L253.874 323.316L250.711 320.964L254.403 319.741L255.539 315.853L257.785 319.17L261.657 319.102L259.347 322.378L260.599 326.239Z" fill="#2B3448"/>
<path opacity="0.2" d="M228.767 305.535L429.686 293.273C429.686 293.273 434.681 301.267 434.694 306.147L231.194 318.191C231.207 318.191 232.046 308.05 228.767 305.535Z" fill="white"/>
<mask id="mask14_2086_2506" style="mask-type:luminance" maskUnits="userSpaceOnUse" x="144" y="286" width="87" height="51">
<path d="M144.346 312.332C144.346 312.332 149.496 303.605 145.301 286.558L228.767 305.535C228.767 305.535 235.376 326.565 225.411 336.761L144.346 312.332Z" fill="white"/>
</mask>
<g mask="url(#mask14_2086_2506)">
<path d="M144.346 312.332C144.346 312.332 149.496 303.605 145.301 286.558L228.767 305.535C228.767 305.535 235.376 326.565 225.411 336.761L144.346 312.332Z" fill="white"/>
</g>
<mask id="mask15_2086_2506" style="mask-type:luminance" maskUnits="userSpaceOnUse" x="144" y="286" width="87" height="51">
<path d="M144.346 312.332C144.346 312.332 149.496 303.605 145.301 286.558L228.767 305.535C228.767 305.535 235.376 326.565 225.411 336.761L144.346 312.332Z" fill="white"/>
</mask>
<g mask="url(#mask15_2086_2506)">
<g opacity="0.36">
<path d="M231.413 308.784L136.059 287.972L136.201 287.265L231.555 308.077L231.413 308.784Z" fill="#74471B"/>
</g>
</g>
<mask id="mask16_2086_2506" style="mask-type:luminance" maskUnits="userSpaceOnUse" x="144" y="286" width="87" height="51">
<path d="M144.346 312.332C144.346 312.332 149.496 303.605 145.301 286.558L228.767 305.535C228.767 305.535 235.376 326.565 225.411 336.761L144.346 312.332Z" fill="white"/>
</mask>
<g mask="url(#mask16_2086_2506)">
<g opacity="0.36">
<path d="M235.647 314.616L135.284 292.689L135.426 291.982L235.789 313.909L235.647 314.616Z" fill="#74471B"/>
</g>
</g>
<mask id="mask17_2086_2506" style="mask-type:luminance" maskUnits="userSpaceOnUse" x="144" y="286" width="87" height="51">
<path d="M144.346 312.332C144.346 312.332 149.496 303.605 145.301 286.558L228.767 305.535C228.767 305.535 235.376 326.565 225.411 336.761L144.346 312.332Z" fill="white"/>
</mask>
<g mask="url(#mask17_2086_2506)">
<g opacity="0.36">
<path d="M234.343 318.789L133.98 296.862L134.11 296.169L234.485 318.083L234.343 318.789Z" fill="#74471B"/>
</g>
</g>
<mask id="mask18_2086_2506" style="mask-type:luminance" maskUnits="userSpaceOnUse" x="144" y="286" width="87" height="51">
<path d="M144.346 312.332C144.346 312.332 149.496 303.605 145.301 286.558L228.767 305.535C228.767 305.535 235.376 326.565 225.411 336.761L144.346 312.332Z" fill="white"/>
</mask>
<g mask="url(#mask18_2086_2506)">
<g opacity="0.36">
<path d="M234.356 323.507L133.993 301.593L134.122 300.886L234.498 322.8L234.356 323.507Z" fill="#74471B"/>
</g>
</g>
<mask id="mask19_2086_2506" style="mask-type:luminance" maskUnits="userSpaceOnUse" x="144" y="286" width="87" height="51">
<path d="M144.346 312.332C144.346 312.332 149.496 303.605 145.301 286.558L228.767 305.535C228.767 305.535 235.376 326.565 225.411 336.761L144.346 312.332Z" fill="white"/>
</mask>
<g mask="url(#mask19_2086_2506)">
<g opacity="0.36">
<path d="M134.356 304.33L134.204 305.033L234.146 329.008L234.298 328.306L134.356 304.33Z" fill="#74471B"/>
</g>
</g>
<mask id="mask20_2086_2506" style="mask-type:luminance" maskUnits="userSpaceOnUse" x="144" y="286" width="87" height="51">
<path d="M144.346 312.332C144.346 312.332 149.496 303.605 145.301 286.558L228.767 305.535C228.767 305.535 235.376 326.565 225.411 336.761L144.346 312.332Z" fill="white"/>
</mask>
<g mask="url(#mask20_2086_2506)">
<g opacity="0.36">
<path d="M133.019 307.855L132.859 308.556L232.525 333.784L232.685 333.083L133.019 307.855Z" fill="#74471B"/>
</g>
</g>
<path opacity="0.15" d="M219.873 314.874C207.481 318.803 194.095 318.871 181.29 317.716C168.949 316.601 156.893 313.909 144.798 311.394C144.527 312.02 144.346 312.332 144.346 312.332L225.423 336.761C232.355 329.665 231.271 317.349 229.967 310.484C226.766 312.319 223.384 313.773 219.873 314.874Z" fill="#74471B"/>
<path d="M124.622 282.086L221.125 303.034L416.88 291.887C416.88 291.887 425.129 283.146 419.191 256.311L301.26 239.985L127.32 250.371L133.774 251.404C133.774 251.404 146.747 270.422 131.786 279.367L124.622 282.086Z" fill="#DC903C"/>
<path d="M252.754 261.739L245.187 262.143L247.102 301.949L254.669 301.545L252.754 261.739Z" fill="white"/>
<path d="M266.527 261.005L258.96 261.409L260.875 301.215L268.442 300.811L266.527 261.005Z" fill="white"/>
<path d="M389.551 258.186L381.979 258.463L383.137 293.596L390.709 293.319L389.551 258.186Z" fill="white"/>
<path d="M403.337 257.683L395.765 257.96L396.923 293.093L404.496 292.816L403.337 257.683Z" fill="white"/>
<path opacity="0.2" d="M226.521 263.081L419.191 256.298C419.191 256.298 420.869 265.215 420.882 267.961L228.289 274.527C228.276 274.527 228.276 265.365 226.521 263.081Z" fill="white"/>
<path opacity="0.15" d="M220.428 300.859C220.428 300.859 225.307 297.895 227.024 291.928L420.043 281.243C420.043 281.243 420.185 287.387 416.88 291.887L221.125 303.034L124.622 282.085L129.166 280.345L220.428 300.859Z" fill="#74471B"/>
<mask id="mask21_2086_2506" style="mask-type:luminance" maskUnits="userSpaceOnUse" x="131" y="251" width="98" height="50">
<path d="M131.438 280.808L220.428 300.845C220.428 300.845 234.537 294.266 226.521 263.067L133.761 251.39C133.761 251.39 140.357 269.878 131.773 279.353L131.438 280.808Z" fill="white"/>
</mask>
<g mask="url(#mask21_2086_2506)">
<path d="M131.438 280.808L220.428 300.845C220.428 300.845 234.537 294.266 226.521 263.067L133.761 251.39C133.761 251.39 140.357 269.878 131.773 279.353L131.438 280.808Z" fill="white"/>
</g>
<mask id="mask22_2086_2506" style="mask-type:luminance" maskUnits="userSpaceOnUse" x="131" y="251" width="98" height="50">
<path d="M131.438 280.808L220.428 300.845C220.428 300.845 234.537 294.266 226.521 263.067L133.761 251.39C133.761 251.39 140.357 269.878 131.773 279.353L131.438 280.808Z" fill="white"/>
</mask>
<g mask="url(#mask22_2086_2506)">
<path opacity="0.15" d="M211.198 285.266C201.31 289.494 190.054 289.589 179.56 288.937C168.717 288.271 157.899 286.748 147.289 284.328C142.5 283.241 137.775 281.949 133.025 280.712C132.535 280.59 132.044 280.454 131.553 280.332L131.45 280.794L220.441 300.832C220.441 300.832 232.303 295.285 228.082 270.299C223.952 277.028 218.298 282.235 211.198 285.266Z" fill="#74471B"/>
</g>
<mask id="mask23_2086_2506" style="mask-type:luminance" maskUnits="userSpaceOnUse" x="131" y="251" width="98" height="50">
<path d="M131.438 280.808L220.428 300.845C220.428 300.845 234.537 294.266 226.521 263.067L133.761 251.39C133.761 251.39 140.357 269.878 131.773 279.353L131.438 280.808Z" fill="white"/>
</mask>
<g mask="url(#mask23_2086_2506)">
<g opacity="0.5">
<path d="M128.769 253.151L128.676 253.865L230.719 268.761L230.812 268.048L128.769 253.151Z" fill="#74471B"/>
</g>
</g>
<mask id="mask24_2086_2506" style="mask-type:luminance" maskUnits="userSpaceOnUse" x="131" y="251" width="98" height="50">
<path d="M131.438 280.808L220.428 300.845C220.428 300.845 234.537 294.266 226.521 263.067L133.761 251.39C133.761 251.39 140.357 269.878 131.773 279.353L131.438 280.808Z" fill="white"/>
</mask>
<g mask="url(#mask24_2086_2506)">
<g opacity="0.5">
<path d="M128.679 258.179L128.585 258.892L230.628 273.788L230.722 273.075L128.679 258.179Z" fill="#74471B"/>
</g>
</g>
<mask id="mask25_2086_2506" style="mask-type:luminance" maskUnits="userSpaceOnUse" x="131" y="251" width="98" height="50">
<path d="M131.438 280.808L220.428 300.845C220.428 300.845 234.537 294.266 226.521 263.067L133.761 251.39C133.761 251.39 140.357 269.878 131.773 279.353L131.438 280.808Z" fill="white"/>
</mask>
<g mask="url(#mask25_2086_2506)">
<g opacity="0.5">
<path d="M129.005 263.68L128.911 264.394L230.954 279.29L231.048 278.576L129.005 263.68Z" fill="#74471B"/>
</g>
</g>
<mask id="mask26_2086_2506" style="mask-type:luminance" maskUnits="userSpaceOnUse" x="131" y="251" width="98" height="50">
<path d="M131.438 280.808L220.428 300.845C220.428 300.845 234.537 294.266 226.521 263.067L133.761 251.39C133.761 251.39 140.357 269.878 131.773 279.353L131.438 280.808Z" fill="white"/>
</mask>
<g mask="url(#mask26_2086_2506)">
<g opacity="0.5">
<path d="M129.786 269.194L129.692 269.907L231.735 284.804L231.829 284.09L129.786 269.194Z" fill="#74471B"/>
</g>
</g>
<mask id="mask27_2086_2506" style="mask-type:luminance" maskUnits="userSpaceOnUse" x="131" y="251" width="98" height="50">
<path d="M131.438 280.808L220.428 300.845C220.428 300.845 234.537 294.266 226.521 263.067L133.761 251.39C133.761 251.39 140.357 269.878 131.773 279.353L131.438 280.808Z" fill="white"/>
</mask>
<g mask="url(#mask27_2086_2506)">
<g opacity="0.5">
<path d="M129.826 273.836L129.721 274.548L231.527 291.169L231.632 290.457L129.826 273.836Z" fill="#74471B"/>
</g>
</g>
<mask id="mask28_2086_2506" style="mask-type:luminance" maskUnits="userSpaceOnUse" x="131" y="251" width="98" height="50">
<path d="M131.438 280.808L220.428 300.845C220.428 300.845 234.537 294.266 226.521 263.067L133.761 251.39C133.761 251.39 140.357 269.878 131.773 279.353L131.438 280.808Z" fill="white"/>
</mask>
<g mask="url(#mask28_2086_2506)">
<g opacity="0.5">
<path d="M128.608 277.988L128.492 278.699L230.03 297.077L230.146 296.367L128.608 277.988Z" fill="#74471B"/>
</g>
</g>
<mask id="mask29_2086_2506" style="mask-type:luminance" maskUnits="userSpaceOnUse" x="131" y="251" width="98" height="50">
<path d="M131.438 280.808L220.428 300.845C220.428 300.845 234.537 294.266 226.521 263.067L133.761 251.39C133.761 251.39 140.357 269.878 131.773 279.353L131.438 280.808Z" fill="white"/>
</mask>
<g mask="url(#mask29_2086_2506)">
<path d="M138.305 259.247L136.536 262.292L164.663 267.159L165.373 263.869L138.305 259.247Z" fill="#DE6C6B"/>
<path d="M162.895 273.888L161.088 276.906L189.125 282.276L189.899 279L162.895 273.888Z" fill="#ECB751"/>
<path d="M176.333 286.34L174.525 289.345L202.562 294.728L203.337 291.438L176.333 286.34Z" fill="#DC903C"/>
</g>
<path d="M426.562 140.068H174.371V179.532H426.562V140.068Z" fill="#ECB751"/>
<path opacity="0.15" d="M426.562 166.876H174.371V179.532H426.562V166.876Z" fill="#74471B"/>
<path opacity="0.2" d="M426.562 140.068H174.371V154.668H426.562V140.068Z" fill="white"/>
<g opacity="0.3">
<path d="M185.059 142.23V177.248H234.33V142.23H185.059ZM232.975 169.377L232.846 169.309L228.509 172.531L223.939 169.268L229.012 165.448L232.717 168.262L232.962 168.14V169.377H232.975ZM223.036 168.616L217.227 164.47L222.48 160.486L228.134 164.769L223.036 168.616ZM186.427 168.181L186.569 168.249L190.274 165.435L195.347 169.255L190.778 172.517L186.44 169.295L186.427 169.309V168.181ZM191.152 164.782L196.806 160.5L202.059 164.483L196.251 168.629L191.152 164.782ZM186.427 150.196L186.556 150.264L190.932 147.015L195.502 150.277L190.261 154.22L186.44 151.324L186.414 151.338V150.196H186.427ZM196.418 150.916L202.227 155.062L196.806 159.168L191.152 154.886L196.418 150.916ZM232.975 151.378L232.846 151.31L229.025 154.206L223.784 150.264L228.354 147.001L232.73 150.25L232.975 150.128V151.378ZM228.147 154.872L222.493 159.154L217.072 155.049L222.881 150.903L228.147 154.872ZM221.616 159.834L216.336 163.844L210.553 159.725L216.168 155.715L221.616 159.834ZM216.194 154.396L210.514 150.087L216.13 145.832L221.99 150.25L216.194 154.396ZM215.29 155.035L209.637 159.059L203.983 155.035L209.637 150.753L215.29 155.035ZM208.746 159.712L202.963 163.831L197.683 159.82L203.131 155.688L208.746 159.712ZM203.092 154.396L197.283 150.25L203.144 145.832L208.759 150.087L203.092 154.396ZM195.928 159.834L190.274 164.116L186.427 161.221V158.434L190.274 155.538L195.928 159.834ZM202.937 165.149L208.772 169.581L203.157 173.836L197.128 169.295L202.937 165.149ZM203.841 164.497L209.65 160.351L215.458 164.497L209.65 168.901L203.841 164.497ZM216.362 165.136L222.171 169.282L216.142 173.822L210.527 169.567L216.362 165.136ZM223.371 159.834L229.025 155.552L232.975 158.529V161.139L229.025 164.116L223.371 159.834ZM229.903 154.872L232.975 152.534V157.183L229.903 154.872ZM232.975 149.122L229.244 146.362L232.975 143.711V149.122ZM228.367 145.71L224.817 143.073H232.058L228.367 145.71ZM227.463 146.349L222.906 149.598L217.02 145.152L219.783 143.059H223.061L227.463 146.349ZM216.13 144.5L214.232 143.073H218.001L216.13 144.5ZM215.252 145.166L209.637 149.421L204.021 145.166L206.629 143.195L206.384 143.073H212.877L212.631 143.195L215.252 145.166ZM203.157 144.5L201.272 143.073H205.041L203.157 144.5ZM202.279 145.166L196.393 149.611L191.836 146.362L196.251 143.086H199.529L202.279 145.166ZM190.932 145.71L187.241 143.073H194.482L190.932 145.71ZM190.042 146.362L186.427 149.04V143.779L190.042 146.362ZM186.427 152.629L189.396 154.872L186.427 157.102V152.629ZM189.396 164.782L186.427 167.025V162.539L189.396 164.782ZM186.427 170.614L189.874 173.17L186.427 175.63V170.614ZM190.765 173.822L194.263 176.419H187.124L190.765 173.822ZM191.668 173.183L196.225 169.934L202.279 174.502L199.736 176.432H196.044L191.668 173.183ZM203.157 175.154L204.835 176.419H201.479L203.157 175.154ZM204.034 174.488L209.65 170.233L215.265 174.488L212.773 176.364L212.877 176.419H206.435L206.539 176.364L204.034 174.488ZM216.13 175.154L217.795 176.419H214.439L216.13 175.154ZM217.02 174.488L223.074 169.921L227.631 173.17L223.268 176.405H219.576L217.02 174.488ZM228.534 173.822L232.175 176.419H225.036L228.534 173.822ZM229.412 173.17L232.975 170.533V175.712L229.412 173.17ZM232.975 167.107L229.903 164.769L232.975 162.458V167.107Z" fill="#2B3448"/>
<path d="M241.301 140.027H237.454V179.178H241.301V140.027Z" fill="#2B3448"/>
<path d="M244.58 142.23V177.248H293.851V142.23H244.58ZM292.483 169.377L292.353 169.309L288.016 172.531L283.447 169.268L288.52 165.448L292.224 168.262L292.47 168.14V169.377H292.483ZM282.556 168.616L276.747 164.47L282.001 160.486L287.655 164.769L282.556 168.616ZM245.948 168.181L246.09 168.249L249.795 165.435L254.868 169.255L250.298 172.517L245.961 169.295L245.948 169.309V168.181ZM250.659 164.782L256.313 160.5L261.567 164.483L255.758 168.629L250.659 164.782ZM245.948 150.196L246.077 150.264L250.453 147.015L255.022 150.277L249.782 154.22L245.961 151.324L245.935 151.338V150.196H245.948ZM255.926 150.916L261.735 155.062L256.313 159.168L250.659 154.886L255.926 150.916ZM292.483 151.378L292.353 151.31L288.533 154.206L283.292 150.264L287.861 147.001L292.237 150.25L292.483 150.128V151.378ZM287.655 154.872L282.001 159.154L276.579 155.049L282.388 150.903L287.655 154.872ZM281.123 159.834L275.844 163.844L270.061 159.725L275.676 155.715L281.123 159.834ZM275.715 154.396L270.035 150.087L275.65 145.832L281.51 150.25L275.715 154.396ZM274.811 155.035L269.157 159.059L263.503 155.035L269.157 150.753L274.811 155.035ZM268.254 159.712L262.471 163.831L257.191 159.82L262.638 155.688L268.254 159.712ZM262.613 154.396L256.804 150.25L262.664 145.832L268.279 150.087L262.613 154.396ZM255.436 159.834L249.782 164.116L245.935 161.221V158.434L249.782 155.538L255.436 159.834ZM262.445 165.149L268.279 169.581L262.664 173.836L256.636 169.295L262.445 165.149ZM263.348 164.497L269.157 160.351L274.966 164.497L269.157 168.901L263.348 164.497ZM275.869 165.136L281.678 169.282L275.65 173.822L270.035 169.567L275.869 165.136ZM282.879 159.834L288.533 155.552L292.483 158.529V161.139L288.533 164.116L282.879 159.834ZM289.41 154.872L292.483 152.534V157.183L289.41 154.872ZM292.483 149.122L288.752 146.362L292.483 143.711V149.122ZM287.874 145.71L284.324 143.073H291.566L287.874 145.71ZM286.971 146.349L282.414 149.598L276.528 145.152L279.29 143.059H282.569L286.971 146.349ZM275.65 144.5L273.753 143.073H277.522L275.65 144.5ZM274.772 145.166L269.157 149.421L263.542 145.166L266.149 143.195L265.904 143.073H272.397L272.152 143.195L274.772 145.166ZM262.664 144.5L260.78 143.073H264.549L262.664 144.5ZM261.786 145.166L255.9 149.611L251.344 146.362L255.758 143.086H259.037L261.786 145.166ZM250.44 145.71L246.748 143.073H253.99L250.44 145.71ZM249.549 146.362L245.935 149.04V143.779L249.549 146.362ZM245.948 152.629L248.917 154.872L245.948 157.102V152.629ZM248.904 164.782L245.935 167.025V162.539L248.904 164.782ZM245.948 170.614L249.394 173.17L245.948 175.63V170.614ZM250.272 173.822L253.77 176.419H246.632L250.272 173.822ZM251.176 173.183L255.732 169.934L261.786 174.502L259.244 176.432H255.552L251.176 173.183ZM262.677 175.154L264.355 176.419H260.999L262.677 175.154ZM263.555 174.488L269.17 170.233L274.785 174.488L272.294 176.364L272.397 176.419H265.956L266.059 176.364L263.555 174.488ZM275.65 175.154L277.315 176.419H273.959L275.65 175.154ZM276.528 174.488L282.582 169.921L287.138 173.17L282.775 176.405H279.084L276.528 174.488ZM288.042 173.822L291.682 176.419H284.544L288.042 173.822ZM288.92 173.17L292.483 170.533V175.712L288.92 173.17ZM292.483 167.107L289.41 164.769L292.483 162.458V167.107Z" fill="#2B3448"/>
<path d="M300.808 140.027H296.962V179.178H300.808V140.027Z" fill="#2B3448"/>
<path d="M304.087 142.23V177.248H353.358V142.23H304.087ZM352.003 169.377L351.874 169.309L347.536 172.531L342.967 169.268L348.04 165.448L351.745 168.262L351.99 168.14V169.377H352.003ZM342.063 168.616L336.255 164.47L341.508 160.486L347.162 164.769L342.063 168.616ZM305.455 168.181L305.597 168.249L309.302 165.435L314.375 169.255L309.805 172.517L305.468 169.295L305.455 169.309V168.181ZM310.18 164.782L315.834 160.5L321.087 164.483L315.278 168.629L310.18 164.782ZM305.455 150.196L305.584 150.264L309.96 147.015L314.53 150.277L309.289 154.22L305.468 151.324L305.442 151.338V150.196H305.455ZM315.433 150.916L321.242 155.062L315.821 159.168L310.167 154.886L315.433 150.916ZM352.003 151.378L351.874 151.31L348.053 154.206L342.812 150.264L347.382 147.001L351.758 150.25L352.003 150.128V151.378ZM347.162 154.872L341.508 159.154L336.087 155.049L341.896 150.903L347.162 154.872ZM340.643 159.834L335.364 163.844L329.581 159.725L335.196 155.715L340.643 159.834ZM335.222 154.396L329.542 150.087L335.157 145.832L341.018 150.25L335.222 154.396ZM334.318 155.035L328.664 159.059L323.011 155.035L328.664 150.753L334.318 155.035ZM327.774 159.712L321.991 163.831L316.711 159.82L322.159 155.688L327.774 159.712ZM322.12 154.396L316.311 150.25L322.172 145.832L327.787 150.087L322.12 154.396ZM314.943 159.834L309.289 164.116L305.442 161.221V158.434L309.289 155.538L314.943 159.834ZM321.952 165.149L327.787 169.581L322.172 173.836L316.143 169.295L321.952 165.149ZM322.856 164.497L328.664 160.351L334.473 164.497L328.664 168.901L322.856 164.497ZM335.39 165.136L341.198 169.282L335.17 173.822L329.555 169.567L335.39 165.136ZM342.399 159.834L348.053 155.552L352.003 158.529V161.139L348.053 164.116L342.399 159.834ZM348.931 154.872L352.003 152.534V157.183L348.931 154.872ZM352.003 149.122L348.272 146.362L352.003 143.711V149.122ZM347.395 145.71L343.845 143.073H351.086L347.395 145.71ZM346.491 146.349L341.934 149.598L336.048 145.152L338.81 143.059H342.089L346.491 146.349ZM335.157 144.5L333.26 143.073H337.029L335.157 144.5ZM334.28 145.166L328.664 149.421L323.049 145.166L325.657 143.195L325.412 143.073H331.904L331.659 143.195L334.28 145.166ZM322.184 144.5L320.3 143.073H324.069L322.184 144.5ZM321.307 145.166L315.42 149.611L310.864 146.362L315.278 143.086H318.557L321.307 145.166ZM309.947 145.71L306.256 143.073H313.497L309.947 145.71ZM309.07 146.362L305.455 149.04V143.779L309.07 146.362ZM305.455 152.629L308.424 154.872L305.455 157.102V152.629ZM308.424 164.782L305.455 167.025V162.539L308.424 164.782ZM305.455 170.614L308.902 173.17L305.455 175.63V170.614ZM309.792 173.822L313.291 176.419H306.152L309.792 173.822ZM310.696 173.183L315.253 169.934L321.307 174.502L318.764 176.432H315.072L310.696 173.183ZM322.184 175.154L323.863 176.419H320.506L322.184 175.154ZM323.062 174.488L328.677 170.233L334.293 174.488L331.801 176.364L331.904 176.419H325.463L325.566 176.364L323.062 174.488ZM335.157 175.154L336.823 176.419H333.466L335.157 175.154ZM336.035 174.488L342.089 169.921L346.646 173.17L342.283 176.405H338.591L336.035 174.488ZM347.549 173.822L351.19 176.419H344.051L347.549 173.822ZM348.44 173.17L352.003 170.533V175.712L348.44 173.17ZM352.003 167.107L348.931 164.769L352.003 162.458V167.107Z" fill="#2B3448"/>
<path d="M360.329 140.027H356.482V179.178H360.329V140.027Z" fill="#2B3448"/>
<path d="M363.608 142.23V177.248H412.879V142.23H363.608ZM411.511 169.377L411.382 169.309L407.045 172.531L402.475 169.268L407.548 165.448L411.253 168.262L411.498 168.14V169.377H411.511ZM401.571 168.616L395.763 164.47L401.016 160.486L406.67 164.769L401.571 168.616ZM364.963 168.181L365.105 168.249L368.81 165.435L373.883 169.255L369.313 172.517L364.976 169.295L364.963 169.309V168.181ZM369.688 164.782L375.342 160.5L380.595 164.483L374.787 168.629L369.688 164.782ZM364.963 150.196L365.092 150.264L369.468 147.015L374.038 150.277L368.797 154.22L364.976 151.324L364.95 151.338V150.196H364.963ZM374.954 150.916L380.763 155.062L375.342 159.168L369.688 154.886L374.954 150.916ZM411.511 151.378L411.382 151.31L407.561 154.206L402.32 150.264L406.89 147.001L411.266 150.25L411.511 150.128V151.378ZM406.683 154.872L401.029 159.154L395.608 155.049L401.417 150.903L406.683 154.872ZM400.152 159.834L394.872 163.844L389.089 159.725L394.704 155.715L400.152 159.834ZM394.743 154.396L389.063 150.087L394.678 145.832L400.539 150.25L394.743 154.396ZM393.826 155.035L388.173 159.059L382.519 155.035L388.173 150.753L393.826 155.035ZM387.282 159.712L381.499 163.831L376.219 159.82L381.667 155.688L387.282 159.712ZM381.628 154.396L375.819 150.25L381.68 145.832L387.295 150.087L381.628 154.396ZM374.464 159.834L368.81 164.116L364.963 161.221V158.434L368.81 155.538L374.464 159.834ZM381.473 165.149L387.308 169.581L381.693 173.836L375.664 169.295L381.473 165.149ZM382.377 164.497L388.185 160.351L393.994 164.497L388.185 168.901L382.377 164.497ZM394.898 165.136L400.707 169.282L394.678 173.822L389.063 169.567L394.898 165.136ZM401.907 159.834L407.561 155.552L411.511 158.529V161.139L407.561 164.116L401.907 159.834ZM408.439 154.872L411.511 152.534V157.183L408.439 154.872ZM411.511 149.122L407.78 146.362L411.511 143.711V149.122ZM406.903 145.71L403.353 143.073H410.594L406.903 145.71ZM405.999 146.349L401.442 149.598L395.556 145.152L398.319 143.059H401.597L405.999 146.349ZM394.678 144.5L392.781 143.073H396.55L394.678 144.5ZM393.801 145.166L388.185 149.421L382.57 145.166L385.178 143.195L384.933 143.073H391.425L391.18 143.195L393.801 145.166ZM381.693 144.5L379.808 143.073H383.577L381.693 144.5ZM380.815 145.166L374.929 149.611L370.372 146.362L374.787 143.086H378.065L380.815 145.166ZM369.468 145.71L365.777 143.073H373.018L369.468 145.71ZM368.578 146.362L364.963 149.04V143.779L368.578 146.362ZM364.963 152.629L367.932 154.872L364.963 157.102V152.629ZM367.932 164.782L364.963 167.025V162.539L367.932 164.782ZM364.963 170.614L368.41 173.17L364.963 175.63V170.614ZM369.301 173.822L372.799 176.419H365.66L369.301 173.822ZM370.204 173.183L374.761 169.934L380.815 174.502L378.272 176.432H374.58L370.204 173.183ZM381.693 175.154L383.371 176.419H380.014L381.693 175.154ZM382.57 174.488L388.185 170.233L393.801 174.488L391.309 176.364L391.413 176.419H384.971L385.075 176.364L382.57 174.488ZM394.678 175.154L396.344 176.419H392.987L394.678 175.154ZM395.556 174.488L401.61 169.921L406.167 173.17L401.804 176.405H398.112L395.556 174.488ZM407.07 173.822L410.711 176.419H403.572L407.07 173.822ZM407.948 173.17L411.511 170.533V175.712L407.948 173.17ZM411.511 167.107L408.439 164.769L411.511 162.458V167.107Z" fill="#2B3448"/>
</g>
<path d="M428.24 215.148L173.351 208.392L172.68 178.526H428.24V215.148Z" fill="#4D82A3"/>
<path d="M406.27 205.034H237.015C231.994 205.034 227.889 200.711 227.889 195.423V194.322C227.889 189.034 231.994 184.711 237.015 184.711H406.27C411.291 184.711 415.396 189.034 415.396 194.322V195.423C415.396 200.711 411.291 205.034 406.27 205.034Z" fill="#ECB751"/>
<path d="M213.826 197.645C215.098 191.99 211.776 186.32 206.406 184.981C201.037 183.641 195.653 187.14 194.381 192.794C193.109 198.449 196.431 204.119 201.8 205.458C207.17 206.798 212.554 203.3 213.826 197.645Z" fill="#ECB751"/>
<path opacity="0.2" d="M428.24 187.62V178.526H172.68L172.886 187.62H428.24Z" fill="white"/>
<path opacity="0.15" d="M173.26 204.015L173.351 208.392L428.24 215.148V204.015H173.26Z" fill="#74471B"/>
<path d="M213.741 254.897L214.09 209.208L428.485 213.3C428.485 213.3 436.759 234.099 426.42 254.911H213.741V254.897Z" fill="#2B3448"/>
<path d="M214.322 254.992C214.322 254.992 165.632 247.964 145.869 242.105C145.869 242.105 143.765 238.598 150.684 240.148C150.684 240.148 170.55 227.138 151.058 209.561C151.058 209.561 143.894 209.955 144.255 207.998C144.63 206.04 214.322 209.561 214.322 209.561V254.992Z" fill="#2B3448"/>
<path d="M335.919 234.751C335.996 227.967 331.891 222.407 331.891 222.407C331.891 222.407 327.657 227.859 327.58 234.642C327.502 241.426 331.607 246.986 331.607 246.986C331.607 246.986 335.841 241.534 335.919 234.751Z" fill="#DC903C"/>
<path d="M330.743 246.795C346.155 246.741 358.612 234.819 358.612 234.819C358.612 234.819 346.078 222.978 330.665 223.033C315.252 223.087 302.796 235.009 302.796 235.009C302.796 235.009 315.33 246.85 330.743 246.795Z" stroke="#DC903C" stroke-miterlimit="10"/>
<path d="M248.026 242.404L243.017 238.625L239.493 243.057L235.969 238.625L230.961 242.404L234.549 237.144L230.354 233.432L234.549 229.721L230.961 224.447L235.969 228.226L239.493 223.794L243.004 228.226L248.013 224.447L244.424 229.721L248.633 233.419L244.463 237.511L248.026 242.404Z" fill="#DC903C"/>
<path d="M420.482 243.777L415.473 239.998L411.949 244.43L408.438 239.998L403.43 243.777L407.018 238.517L402.81 234.805L407.018 231.094L403.417 225.82L408.425 229.599L411.949 225.167L415.473 229.599L420.482 225.82L416.893 231.094L421.101 234.792L416.919 238.884L420.482 243.777Z" fill="#DC903C"/>
<path opacity="0.61" d="M337.984 234.846C340.928 234.846 343.315 233.586 343.315 232.032C343.315 230.478 340.928 229.218 337.984 229.218C335.04 229.218 332.653 230.478 332.653 232.032C332.653 233.586 335.04 234.846 337.984 234.846Z" fill="white"/>
<mask id="mask30_2086_2506" style="mask-type:luminance" maskUnits="userSpaceOnUse" x="151" y="209" width="63" height="43">
<path d="M151.058 239.903L213.741 251.648L213.947 214.142L151.548 209.724C151.548 209.711 162.766 227.193 151.058 239.903Z" fill="white"/>
</mask>
<g mask="url(#mask30_2086_2506)">
<path d="M151.058 239.903L213.741 251.648L213.947 214.142L151.548 209.724C151.548 209.711 162.766 227.193 151.058 239.903Z" fill="white"/>
</g>
<mask id="mask31_2086_2506" style="mask-type:luminance" maskUnits="userSpaceOnUse" x="151" y="209" width="63" height="43">
<path d="M151.058 239.903L213.741 251.648L213.947 214.142L151.548 209.724C151.548 209.711 162.766 227.193 151.058 239.903Z" fill="white"/>
</mask>
<g mask="url(#mask31_2086_2506)">
<path opacity="0.15" d="M180.102 240.759C170.511 241.439 160.894 240.705 151.342 239.563C151.239 239.672 151.148 239.794 151.045 239.903L213.728 251.648L213.857 228.538C204.356 236.695 192.184 239.903 180.102 240.759Z" fill="#74471B"/>
</g>
<mask id="mask32_2086_2506" style="mask-type:luminance" maskUnits="userSpaceOnUse" x="151" y="209" width="63" height="43">
<path d="M151.058 239.903L213.741 251.648L213.947 214.142L151.548 209.724C151.548 209.711 162.766 227.193 151.058 239.903Z" fill="white"/>
</mask>
<g mask="url(#mask32_2086_2506)">
<g opacity="0.4">
<path d="M141.165 211.656L141.098 212.373L216.597 220.171L216.664 219.454L141.165 211.656Z" fill="#74471B"/>
</g>
</g>
<mask id="mask33_2086_2506" style="mask-type:luminance" maskUnits="userSpaceOnUse" x="151" y="209" width="63" height="43">
<path d="M151.058 239.903L213.741 251.648L213.947 214.142L151.548 209.724C151.548 209.711 162.766 227.193 151.058 239.903Z" fill="white"/>
</mask>
<g mask="url(#mask33_2086_2506)">
<g opacity="0.4">
<path d="M141.462 218.173L141.395 218.89L216.893 226.695L216.96 225.978L141.462 218.173Z" fill="#74471B"/>
</g>
</g>
<mask id="mask34_2086_2506" style="mask-type:luminance" maskUnits="userSpaceOnUse" x="151" y="209" width="63" height="43">
<path d="M151.058 239.903L213.741 251.648L213.947 214.142L151.548 209.724C151.548 209.711 162.766 227.193 151.058 239.903Z" fill="white"/>
</mask>
<g mask="url(#mask34_2086_2506)">
<g opacity="0.4">
<path d="M141.737 224.247L141.67 224.964L217.168 232.762L217.235 232.045L141.737 224.247Z" fill="#74471B"/>
</g>
</g>
<mask id="mask35_2086_2506" style="mask-type:luminance" maskUnits="userSpaceOnUse" x="151" y="209" width="63" height="43">
<path d="M151.058 239.903L213.741 251.648L213.947 214.142L151.548 209.724C151.548 209.711 162.766 227.193 151.058 239.903Z" fill="white"/>
</mask>
<g mask="url(#mask35_2086_2506)">
<g opacity="0.4">
<path d="M141.621 229.923L141.555 230.64L217.053 238.438L217.12 237.721L141.621 229.923Z" fill="#74471B"/>
</g>
</g>
<mask id="mask36_2086_2506" style="mask-type:luminance" maskUnits="userSpaceOnUse" x="151" y="209" width="63" height="43">
<path d="M151.058 239.903L213.741 251.648L213.947 214.142L151.548 209.724C151.548 209.711 162.766 227.193 151.058 239.903Z" fill="white"/>
</mask>
<g mask="url(#mask36_2086_2506)">
<g opacity="0.4">
<path d="M141.715 234.857L141.621 235.57L216.763 246.547L216.857 245.834L141.715 234.857Z" fill="#74471B"/>
</g>
</g>
<path d="M200.174 242.663C200.174 242.663 194.172 262.333 200.148 276.865L203.853 275.52C203.853 275.52 201.775 250.561 206.022 244.131L200.174 242.663Z" fill="#2B3448"/>
<path opacity="0.2" d="M217.02 209.629L428.485 213.3C428.485 213.3 431.183 221.755 431.183 228.036L217.42 222.598C217.42 222.598 219.008 215.896 217.02 209.629Z" fill="white"/>
<path d="M418.636 63.493H163.412V140.898H418.636V63.493Z" fill="#DE6C6B"/>
<path opacity="0.34" d="M183.358 63.879L183.631 140.808L207.46 140.714L207.187 63.7852L183.358 63.879Z" fill="#2B3448"/>
<path d="M193.54 135.052C188.738 132.429 186.737 126.719 186.737 126.719C186.737 126.719 192.507 125.265 197.309 127.875C202.111 130.498 204.125 136.208 204.125 136.208C204.125 136.208 198.342 137.676 193.54 135.052Z" fill="#DC903C"/>
<path d="M193.475 115.966C188.699 118.617 186.724 124.34 186.724 124.34C186.724 124.34 192.507 125.754 197.283 123.103C202.06 120.452 204.034 114.729 204.034 114.729C204.034 114.729 198.252 113.302 193.475 115.966Z" fill="#DC903C"/>
<path d="M193.372 88.1935C188.57 85.5699 186.569 79.8604 186.569 79.8604C186.569 79.8604 192.339 78.4058 197.141 81.0159C201.943 83.6395 203.957 89.349 203.957 89.349C203.957 89.349 198.174 90.8172 193.372 88.1935Z" fill="#DC903C"/>
<path d="M193.307 69.1075C188.531 71.7583 186.556 77.4814 186.556 77.4814C186.556 77.4814 192.339 78.8952 197.115 76.2443C201.892 73.5935 203.867 67.8704 203.867 67.8704C203.867 67.8704 198.084 66.443 193.307 69.1075Z" fill="#DC903C"/>
<path d="M197.18 93.4001C201.982 96.0237 203.996 101.733 203.996 101.733C203.996 101.733 198.226 103.188 193.424 100.578C188.622 97.9541 186.621 92.2446 186.621 92.2446C186.621 92.2446 192.378 90.7764 197.18 93.4001Z" fill="#DC903C"/>
<path d="M197.245 112.5C202.021 109.849 203.996 104.126 203.996 104.126C203.996 104.126 198.213 102.712 193.437 105.363C188.661 108.014 186.686 113.737 186.686 113.737C186.686 113.737 192.468 115.151 197.245 112.5Z" fill="#DC903C"/>
<path d="M210.122 140.704V63.8706H206.817V140.704H210.122Z" fill="#DC903C"/>
<path d="M184.331 140.704V63.87H181.027V140.704H184.331Z" fill="#DC903C"/>
<path opacity="0.34" d="M274.387 63.8774L274.66 140.806L298.489 140.712L298.216 63.7836L274.387 63.8774Z" fill="#2B3448"/>
<path d="M284.57 135.052C279.768 132.429 277.767 126.719 277.767 126.719C277.767 126.719 283.537 125.264 288.339 127.874C293.141 130.485 295.141 136.208 295.141 136.208C295.141 136.208 289.371 137.676 284.57 135.052Z" fill="#DC903C"/>
<path d="M284.505 115.966C279.729 118.617 277.754 124.34 277.754 124.34C277.754 124.34 283.537 125.754 288.313 123.103C293.089 120.452 295.064 114.729 295.064 114.729C295.064 114.729 289.281 113.302 284.505 115.966Z" fill="#DC903C"/>
<path d="M284.402 88.1934C279.6 85.5698 277.599 79.8603 277.599 79.8603C277.599 79.8603 283.369 78.4057 288.171 81.0158C292.973 83.6394 294.974 89.3489 294.974 89.3489C294.974 89.3489 289.204 90.8171 284.402 88.1934Z" fill="#DC903C"/>
<path d="M284.337 69.1074C279.561 71.7582 277.586 77.4813 277.586 77.4813C277.586 77.4813 283.369 78.8951 288.145 76.2443C292.921 73.5934 294.896 67.8703 294.896 67.8703C294.896 67.8703 289.113 66.4429 284.337 69.1074Z" fill="#DC903C"/>
<path d="M288.21 93.3999C293.012 96.0236 295.026 101.733 295.026 101.733C295.026 101.733 289.255 103.188 284.454 100.578C279.652 97.954 277.638 92.2444 277.638 92.2444C277.638 92.2444 283.408 90.7763 288.21 93.3999Z" fill="#DC903C"/>
<path d="M288.274 112.5C293.05 109.849 295.025 104.126 295.025 104.126C295.025 104.126 289.242 102.712 284.466 105.363C279.69 108.014 277.715 113.737 277.715 113.737C277.715 113.737 283.498 115.15 288.274 112.5Z" fill="#DC903C"/>
<path d="M301.15 140.705V63.8713H297.846V140.705H301.15Z" fill="#DC903C"/>
<path d="M275.36 140.704V63.8708H272.056V140.704H275.36Z" fill="#DC903C"/>
<path opacity="0.34" d="M372.135 63.8685L372.408 140.797L396.237 140.704L395.964 63.7747L372.135 63.8685Z" fill="#2B3448"/>
<path d="M382.312 135.052C377.51 132.429 375.51 126.719 375.51 126.719C375.51 126.719 381.28 125.264 386.081 127.874C390.883 130.485 392.884 136.208 392.884 136.208C392.884 136.208 387.114 137.676 382.312 135.052Z" fill="#DC903C"/>
<path d="M382.248 115.966C377.472 118.617 375.497 124.34 375.497 124.34C375.497 124.34 381.28 125.754 386.056 123.103C390.832 120.452 392.807 114.729 392.807 114.729C392.807 114.729 387.024 113.302 382.248 115.966Z" fill="#DC903C"/>
<path d="M382.144 88.1935C377.343 85.5698 375.342 79.8603 375.342 79.8603C375.342 79.8603 381.112 78.4057 385.914 81.0158C390.716 83.6394 392.716 89.349 392.716 89.349C392.716 89.349 386.946 90.8171 382.144 88.1935Z" fill="#DC903C"/>
<path d="M382.08 69.1074C377.304 71.7582 375.329 77.4813 375.329 77.4813C375.329 77.4813 381.112 78.8951 385.888 76.2443C390.664 73.5934 392.639 67.8703 392.639 67.8703C392.639 67.8703 386.856 66.4429 382.08 69.1074Z" fill="#DC903C"/>
<path d="M385.952 93.3999C390.754 96.0236 392.755 101.733 392.755 101.733C392.755 101.733 386.985 103.188 382.183 100.578C377.381 97.9539 375.38 92.2444 375.38 92.2444C375.38 92.2444 381.15 90.7763 385.952 93.3999Z" fill="#DC903C"/>
<path d="M386.017 112.5C390.793 109.849 392.768 104.126 392.768 104.126C392.768 104.126 386.985 102.712 382.209 105.363C377.433 108.014 375.458 113.737 375.458 113.737C375.458 113.737 381.241 115.15 386.017 112.5Z" fill="#DC903C"/>
<path d="M398.898 140.713V63.8795H395.593V140.713H398.898Z" fill="#DC903C"/>
<path d="M373.108 140.713V63.8791H369.803V140.713H373.108Z" fill="#DC903C"/>
<path opacity="0.2" d="M418.636 63.493H163.412V87.0243H418.636V63.493Z" fill="white"/>
<path opacity="0.15" d="M418.636 120.561H163.412V140.911H418.636V120.561Z" fill="#74471B"/>
<path opacity="0.67" d="M90.7887 455.587C119.925 455.587 143.545 452.19 143.545 448.001C143.545 443.812 119.925 440.416 90.7887 440.416C61.6521 440.416 38.0322 443.812 38.0322 448.001C38.0322 452.19 61.6521 455.587 90.7887 455.587Z" fill="#8BCDE5"/>
<mask id="mask37_2086_2506" style="mask-type:luminance" maskUnits="userSpaceOnUse" x="27" y="250" width="74" height="117">
<path d="M67.5152 364.275C58.4794 362.019 48.114 356.744 47.3266 346.997C46.8748 341.519 49.7662 336.013 48.527 330.684C47.2104 324.975 41.8147 321.631 37.1806 318.368C32.5465 315.106 27.7704 310.103 28.7772 304.325C29.6937 299.078 35.0765 295.788 36.4061 290.636C38.7425 281.637 27.9382 274.432 27.2024 265.134C26.557 256.896 35.0378 250.044 42.8215 251.05C50.6053 252.056 56.8142 259.044 59.3184 266.874C60.5189 270.599 61.074 274.65 63.1264 277.939C68.1865 286.069 80.5527 286.966 84.4768 295.761C87.4329 302.381 84.1541 310.687 87.0972 317.308C88.9948 321.576 93.0738 324.214 95.8879 327.884C101.8 335.592 101.142 347.568 95.4102 355.426C89.6789 363.269 79.804 367.048 70.4196 366.41L67.5152 364.275Z" fill="white"/>
</mask>
<g mask="url(#mask37_2086_2506)">
<path d="M67.5152 364.275C58.4794 362.019 48.114 356.744 47.3266 346.997C46.8748 341.519 49.7662 336.013 48.527 330.684C47.2104 324.975 41.8147 321.631 37.1806 318.368C32.5465 315.106 27.7704 310.103 28.7772 304.325C29.6937 299.078 35.0765 295.788 36.4061 290.636C38.7425 281.637 27.9382 274.432 27.2024 265.134C26.557 256.896 35.0378 250.044 42.8215 251.05C50.6053 252.056 56.8142 259.044 59.3184 266.874C60.5189 270.599 61.074 274.65 63.1264 277.939C68.1865 286.069 80.5527 286.966 84.4768 295.761C87.4329 302.381 84.1541 310.687 87.0972 317.308C88.9948 321.576 93.0738 324.214 95.8879 327.884C101.8 335.592 101.142 347.568 95.4102 355.426C89.6789 363.269 79.804 367.048 70.4196 366.41L67.5152 364.275Z" fill="#5CA28B"/>
</g>
<mask id="mask38_2086_2506" style="mask-type:luminance" maskUnits="userSpaceOnUse" x="27" y="250" width="74" height="117">
<path d="M67.5152 364.275C58.4794 362.019 48.114 356.744 47.3266 346.997C46.8748 341.519 49.7662 336.013 48.527 330.684C47.2104 324.975 41.8147 321.631 37.1806 318.368C32.5465 315.106 27.7704 310.103 28.7772 304.325C29.6937 299.078 35.0765 295.788 36.4061 290.636C38.7425 281.637 27.9382 274.432 27.2024 265.134C26.557 256.896 35.0378 250.044 42.8215 251.05C50.6053 252.056 56.8142 259.044 59.3184 266.874C60.5189 270.599 61.074 274.65 63.1264 277.939C68.1865 286.069 80.5527 286.966 84.4768 295.761C87.4329 302.381 84.1541 310.687 87.0972 317.308C88.9948 321.576 93.0738 324.214 95.8879 327.884C101.8 335.592 101.142 347.568 95.4102 355.426C89.6789 363.269 79.804 367.048 70.4196 366.41L67.5152 364.275Z" fill="white"/>
</mask>
<g mask="url(#mask38_2086_2506)">
<g opacity="0.25">
<path d="M76.4091 366.206C75.3119 365.961 74.2276 365.703 73.1433 365.444C68.5738 364.33 63.9138 362.726 60.5577 359.082C56.1817 354.338 55.291 347.65 54.8909 341.342C54.6973 338.161 54.0906 334.763 52.9159 331.908C51.9349 329.515 50.786 327.762 49.379 325.926C45.8421 321.318 41.9954 316.846 39.8655 311.258C37.5937 305.304 39.2459 299.581 40.9757 293.763C41.776 291.071 42.4601 288.516 42.3956 285.729C42.3698 284.424 42.0729 283.132 41.7243 281.855C41.3887 280.617 41.2338 280.237 40.6788 279.041C38.7425 274.854 36.1737 271.958 33.3597 268.22C31.3847 265.582 29.3452 262.714 28.2093 259.519C27.4348 261.26 27.0604 263.163 27.2153 265.147C27.9382 274.446 38.7425 281.651 36.419 290.65C35.0894 295.802 29.7066 299.078 28.7901 304.339C27.7833 310.117 32.5594 315.119 37.1935 318.382C41.8276 321.644 47.2233 325.002 48.54 330.698C49.7663 336.04 46.8877 341.546 47.3395 347.011C48.114 356.744 58.4794 362.005 67.5153 364.275L70.4326 366.396C72.4205 366.532 74.4212 366.45 76.4091 366.206Z" fill="white"/>
</g>
</g>
<mask id="mask39_2086_2506" style="mask-type:luminance" maskUnits="userSpaceOnUse" x="27" y="250" width="74" height="117">
<path d="M67.5152 364.275C58.4794 362.019 48.114 356.744 47.3266 346.997C46.8748 341.519 49.7662 336.013 48.527 330.684C47.2104 324.975 41.8147 321.631 37.1806 318.368C32.5465 315.106 27.7704 310.103 28.7772 304.325C29.6937 299.078 35.0765 295.788 36.4061 290.636C38.7425 281.637 27.9382 274.432 27.2024 265.134C26.557 256.896 35.0378 250.044 42.8215 251.05C50.6053 252.056 56.8142 259.044 59.3184 266.874C60.5189 270.599 61.074 274.65 63.1264 277.939C68.1865 286.069 80.5527 286.966 84.4768 295.761C87.4329 302.381 84.1541 310.687 87.0972 317.308C88.9948 321.576 93.0738 324.214 95.8879 327.884C101.8 335.592 101.142 347.568 95.4102 355.426C89.6789 363.269 79.804 367.048 70.4196 366.41L67.5152 364.275Z" fill="white"/>
</mask>
<g mask="url(#mask39_2086_2506)">
<g opacity="0.52">
<path d="M80.1139 368.843L79.1845 369.088C78.9522 368.136 56.0527 273.331 33.0371 250.71L33.6954 249.976C56.9176 272.787 79.8816 367.891 80.1139 368.843Z" fill="#2B3448"/>
</g>
</g>
<mask id="mask40_2086_2506" style="mask-type:luminance" maskUnits="userSpaceOnUse" x="27" y="250" width="74" height="117">
<path d="M67.5152 364.275C58.4794 362.019 48.114 356.744 47.3266 346.997C46.8748 341.519 49.7662 336.013 48.527 330.684C47.2104 324.975 41.8147 321.631 37.1806 318.368C32.5465 315.106 27.7704 310.103 28.7772 304.325C29.6937 299.078 35.0765 295.788 36.4061 290.636C38.7425 281.637 27.9382 274.432 27.2024 265.134C26.557 256.896 35.0378 250.044 42.8215 251.05C50.6053 252.056 56.8142 259.044 59.3184 266.874C60.5189 270.599 61.074 274.65 63.1264 277.939C68.1865 286.069 80.5527 286.966 84.4768 295.761C87.4329 302.381 84.1541 310.687 87.0972 317.308C88.9948 321.576 93.0738 324.214 95.8879 327.884C101.8 335.592 101.142 347.568 95.4102 355.426C89.6789 363.269 79.804 367.048 70.4196 366.41L67.5152 364.275Z" fill="white"/>
</mask>
<g mask="url(#mask40_2086_2506)">
<g opacity="0.52">
<path d="M70.5618 277.831L58.0923 299.296L57.7309 299.16C56.8531 298.833 36.0965 291.03 33.7859 288.121L34.5217 287.469C36.2643 289.671 51.4833 295.734 57.6793 298.072L69.7486 277.3L70.5618 277.831Z" fill="#2B3448"/>
</g>
</g>
<mask id="mask41_2086_2506" style="mask-type:luminance" maskUnits="userSpaceOnUse" x="27" y="250" width="74" height="117">
<path d="M67.5152 364.275C58.4794 362.019 48.114 356.744 47.3266 346.997C46.8748 341.519 49.7662 336.013 48.527 330.684C47.2104 324.975 41.8147 321.631 37.1806 318.368C32.5465 315.106 27.7704 310.103 28.7772 304.325C29.6937 299.078 35.0765 295.788 36.4061 290.636C38.7425 281.637 27.9382 274.432 27.2024 265.134C26.557 256.896 35.0378 250.044 42.8215 251.05C50.6053 252.056 56.8142 259.044 59.3184 266.874C60.5189 270.599 61.074 274.65 63.1264 277.939C68.1865 286.069 80.5527 286.966 84.4768 295.761C87.4329 302.381 84.1541 310.687 87.0972 317.308C88.9948 321.576 93.0738 324.214 95.8879 327.884C101.8 335.592 101.142 347.568 95.4102 355.426C89.6789 363.269 79.804 367.048 70.4196 366.41L67.5152 364.275Z" fill="white"/>
</mask>
<g mask="url(#mask41_2086_2506)">
<g opacity="0.52">
<path d="M91.0471 308.703L69.8516 335.007L38.1228 324.322L38.4068 323.371L69.5418 333.838L90.3114 308.037L91.0471 308.703Z" fill="#2B3448"/>
</g>
</g>
<mask id="mask42_2086_2506" style="mask-type:luminance" maskUnits="userSpaceOnUse" x="59" y="219" width="70" height="149">
<path d="M80.501 360.238C71.2457 353.645 61.7451 343.069 64.7915 331.758C66.5083 325.41 71.9685 320.502 72.743 313.95C73.5692 306.949 68.8576 300.75 64.9593 295.014C61.0739 289.263 57.7177 281.501 61.19 275.465C64.3397 269.973 71.7233 268.695 75.2989 263.502C81.5594 254.422 72.33 241.48 75.2731 230.7C77.8806 221.157 90.1822 217.242 98.534 221.864C106.886 226.486 111.029 237.13 110.681 247.054C110.513 251.784 109.506 256.57 110.487 261.191C112.901 272.597 126.429 279.149 127.294 290.799C127.939 299.568 120.891 307.438 121.524 316.207C121.937 321.848 125.448 326.661 127.126 332.044C130.65 343.354 125.061 356.527 115.457 362.794C105.84 369.047 93.2028 368.87 82.9148 363.935L80.501 360.238Z" fill="white"/>
</mask>
<g mask="url(#mask42_2086_2506)">
<path d="M80.501 360.238C71.2457 353.645 61.7451 343.069 64.7915 331.758C66.5083 325.41 71.9685 320.502 72.743 313.95C73.5692 306.949 68.8576 300.75 64.9593 295.014C61.0739 289.263 57.7177 281.501 61.19 275.465C64.3397 269.973 71.7233 268.695 75.2989 263.502C81.5594 254.422 72.33 241.48 75.2731 230.7C77.8806 221.157 90.1822 217.242 98.534 221.864C106.886 226.486 111.029 237.13 110.681 247.054C110.513 251.784 109.506 256.57 110.487 261.191C112.901 272.597 126.429 279.149 127.294 290.799C127.939 299.568 120.891 307.438 121.524 316.207C121.937 321.848 125.448 326.661 127.126 332.044C130.65 343.354 125.061 356.527 115.457 362.794C105.84 369.047 93.2028 368.87 82.9148 363.935L80.501 360.238Z" fill="#5CA28B"/>
</g>
<mask id="mask43_2086_2506" style="mask-type:luminance" maskUnits="userSpaceOnUse" x="59" y="219" width="70" height="149">
<path d="M80.501 360.238C71.2457 353.645 61.7451 343.069 64.7915 331.758C66.5083 325.41 71.9685 320.502 72.743 313.95C73.5692 306.949 68.8576 300.75 64.9593 295.014C61.0739 289.263 57.7177 281.501 61.19 275.465C64.3397 269.973 71.7233 268.695 75.2989 263.502C81.5594 254.422 72.33 241.48 75.2731 230.7C77.8806 221.157 90.1822 217.242 98.534 221.864C106.886 226.486 111.029 237.13 110.681 247.054C110.513 251.784 109.506 256.57 110.487 261.191C112.901 272.597 126.429 279.149 127.294 290.799C127.939 299.568 120.891 307.438 121.524 316.207C121.937 321.848 125.448 326.661 127.126 332.044C130.65 343.354 125.061 356.527 115.457 362.794C105.84 369.047 93.2028 368.87 82.9148 363.935L80.501 360.238Z" fill="white"/>
</mask>
<g mask="url(#mask43_2086_2506)">
<g opacity="0.25">
<path d="M89.7178 366.396C88.5948 365.621 87.4589 364.86 86.3488 364.071C81.663 360.768 77.0805 356.867 74.7829 351.279C71.7881 343.993 73.4791 336.054 75.5961 328.795C76.6546 325.138 77.3645 321.033 77.1838 317.294C77.0418 314.168 76.4609 311.68 75.6219 308.975C73.5049 302.205 70.9878 295.449 70.8587 288.216C70.7167 280.495 74.8732 274.813 79.1846 269.035C81.1725 266.357 82.9797 263.788 84.0253 260.648C84.5158 259.166 84.7094 257.589 84.8385 255.985C84.9676 254.449 84.9417 253.946 84.8127 252.342C84.3221 246.768 82.6053 242.364 80.966 236.899C79.8042 233.038 78.6812 228.919 78.6941 224.8C77.1322 226.404 75.9317 228.375 75.2992 230.673C72.3561 241.453 81.5856 254.394 75.325 263.475C71.7365 268.668 64.3658 269.946 61.2162 275.438C57.7438 281.474 61.1 289.25 64.9854 294.986C68.8708 300.737 73.5953 306.922 72.7692 313.923C71.9946 320.475 66.5344 325.383 64.8176 331.731C61.7712 343.055 71.2718 353.618 80.5271 360.211L82.9409 363.908C85.0966 364.982 87.3814 365.798 89.7178 366.396Z" fill="white"/>
</g>
</g>
<mask id="mask44_2086_2506" style="mask-type:luminance" maskUnits="userSpaceOnUse" x="59" y="219" width="70" height="149">
<path d="M80.501 360.238C71.2457 353.645 61.7451 343.069 64.7915 331.758C66.5083 325.41 71.9685 320.502 72.743 313.95C73.5692 306.949 68.8576 300.75 64.9593 295.014C61.0739 289.263 57.7177 281.501 61.19 275.465C64.3397 269.973 71.7233 268.695 75.2989 263.502C81.5594 254.422 72.33 241.48 75.2731 230.7C77.8806 221.157 90.1822 217.242 98.534 221.864C106.886 226.486 111.029 237.13 110.681 247.054C110.513 251.784 109.506 256.57 110.487 261.191C112.901 272.597 126.429 279.149 127.294 290.799C127.939 299.568 120.891 307.438 121.524 316.207C121.937 321.848 125.448 326.661 127.126 332.044C130.65 343.354 125.061 356.527 115.457 362.794C105.84 369.047 93.2028 368.87 82.9148 363.935L80.501 360.238Z" fill="white"/>
</mask>
<g mask="url(#mask44_2086_2506)">
<g opacity="0.52">
<path d="M92.8155 371.032L91.6666 370.896C91.7957 369.713 104.394 252.858 87.665 217.106L88.6977 216.562C105.582 252.641 92.9446 369.862 92.8155 371.032Z" fill="#2B3448"/>
</g>
</g>
<mask id="mask45_2086_2506" style="mask-type:luminance" maskUnits="userSpaceOnUse" x="59" y="219" width="70" height="149">
<path d="M80.501 360.238C71.2457 353.645 61.7451 343.069 64.7915 331.758C66.5083 325.41 71.9685 320.502 72.743 313.95C73.5692 306.949 68.8576 300.75 64.9593 295.014C61.0739 289.263 57.7177 281.501 61.19 275.465C64.3397 269.973 71.7233 268.695 75.2989 263.502C81.5594 254.422 72.33 241.48 75.2731 230.7C77.8806 221.157 90.1822 217.242 98.534 221.864C106.886 226.486 111.029 237.13 110.681 247.054C110.513 251.784 109.506 256.57 110.487 261.191C112.901 272.597 126.429 279.149 127.294 290.799C127.939 299.568 120.891 307.438 121.524 316.207C121.937 321.848 125.448 326.661 127.126 332.044C130.65 343.354 125.061 356.527 115.457 362.794C105.84 369.047 93.2028 368.87 82.9148 363.935L80.501 360.238Z" fill="white"/>
</mask>
<g mask="url(#mask45_2086_2506)">
<g opacity="0.52">
<path d="M118.891 264.427L96.1848 282.969L95.8234 282.643C94.9585 281.882 74.7827 263.802 73.3757 259.479L74.4729 259.085C75.5314 262.334 90.1953 275.982 96.2235 281.392L118.181 263.462L118.891 264.427Z" fill="#2B3448"/>
</g>
</g>
<mask id="mask46_2086_2506" style="mask-type:luminance" maskUnits="userSpaceOnUse" x="59" y="219" width="70" height="149">
<path d="M80.501 360.238C71.2457 353.645 61.7451 343.069 64.7915 331.758C66.5083 325.41 71.9685 320.502 72.743 313.95C73.5692 306.949 68.8576 300.75 64.9593 295.014C61.0739 289.263 57.7177 281.501 61.19 275.465C64.3397 269.973 71.7233 268.695 75.2989 263.502C81.5594 254.422 72.33 241.48 75.2731 230.7C77.8806 221.157 90.1822 217.242 98.534 221.864C106.886 226.486 111.029 237.13 110.681 247.054C110.513 251.784 109.506 256.57 110.487 261.191C112.901 272.597 126.429 279.149 127.294 290.799C127.939 299.568 120.891 307.438 121.524 316.207C121.937 321.848 125.448 326.661 127.126 332.044C130.65 343.354 125.061 356.527 115.457 362.794C105.84 369.047 93.2028 368.87 82.9148 363.935L80.501 360.238Z" fill="white"/>
</mask>
<g mask="url(#mask46_2086_2506)">
<g opacity="0.52">
<path d="M129.424 308.309L94.9584 328.387L63.5911 302.15L64.3139 301.199L95.0746 326.932L128.869 307.248L129.424 308.309Z" fill="#2B3448"/>
</g>
</g>
<path d="M112.307 449.007H62.6354C54.4644 449.007 47.7778 441.965 47.7778 433.36V382.233C47.7778 373.628 54.4644 366.586 62.6354 366.586H112.307C120.478 366.586 127.164 373.628 127.164 382.233V433.36C127.164 441.965 120.478 449.007 112.307 449.007Z" fill="#DC903C"/>
<path opacity="0.16" d="M127.165 413.255V384.843C127.165 374.811 119.368 366.6 109.842 366.6H65.114C55.5877 366.6 47.791 374.811 47.791 384.843V413.255H127.165Z" fill="#2B3448"/>
<path d="M132.199 355.996H42.7568V403.086H132.199V355.996Z" fill="#DC903C"/>
<path opacity="0.2" d="M132.199 355.996H42.7568V374.403H132.199V355.996Z" fill="white"/>
<path opacity="0.67" d="M534.85 455.355C534.85 460.249 508.272 464.219 475.472 464.219C442.671 464.219 416.093 460.249 416.093 455.355C416.093 450.462 442.671 446.492 475.472 446.492C508.272 446.492 534.85 450.462 534.85 455.355Z" fill="#8BCDE5"/>
<path d="M532.372 451.005C532.372 455.573 510.169 459.271 482.778 459.271C455.386 459.271 433.184 455.573 433.184 451.005C433.184 446.438 455.386 442.74 482.778 442.74C510.169 442.74 532.372 446.438 532.372 451.005Z" fill="white"/>
<path opacity="0.11" d="M500.63 451.005C500.63 452.65 492.64 453.982 482.778 453.982C472.916 453.982 464.925 452.65 464.925 451.005C464.925 449.36 472.916 448.028 482.778 448.028C492.64 448.028 500.63 449.36 500.63 451.005Z" fill="#2B3448"/>
<path d="M523.025 404.799C522.393 404.799 521.773 404.881 521.179 405.003C521.218 404.038 521.257 403.059 521.257 402.08C521.257 399.865 521.128 397.676 520.908 395.542H444.62C444.4 397.689 444.271 399.865 444.271 402.08C444.271 429.472 461.504 451.685 482.764 451.685C497.944 451.685 511.072 440.348 517.333 423.899C518.946 425.095 520.908 425.816 523.025 425.816C528.537 425.816 532.99 421.112 532.99 415.321C533.003 409.503 528.537 404.799 523.025 404.799ZM520.482 423.11C519.54 423.11 518.649 422.906 517.81 422.58C519.514 417.754 520.637 412.521 521.063 407.029C525.013 407.341 528.137 410.808 528.137 415.063C528.124 419.508 524.703 423.11 520.482 423.11Z" fill="white"/>
<path opacity="0.11" d="M514.958 425.897C510.285 433.931 502.863 439.926 494.021 441.802C485.269 443.665 476.323 441.911 468.268 438.091C459.375 433.877 451.513 426.74 446.311 417.999C451.462 437.574 465.829 451.672 482.765 451.672C502.024 451.672 517.991 433.428 520.805 409.625C519.657 415.335 517.849 420.908 514.958 425.897Z" fill="#2B3448"/>
<path d="M482.764 406.879C504.166 406.879 521.515 401.973 521.515 395.922C521.515 389.871 504.166 384.965 482.764 384.965C461.363 384.965 444.013 389.871 444.013 395.922C444.013 401.973 461.363 406.879 482.764 406.879Z" fill="white"/>
<path d="M482.764 405.302C501.086 405.302 515.939 401.103 515.939 395.922C515.939 390.742 501.086 386.542 482.764 386.542C464.443 386.542 449.59 390.742 449.59 395.922C449.59 401.103 464.443 405.302 482.764 405.302Z" fill="#74471B"/>
<path opacity="0.52" d="M471.47 389.846C468.462 390.145 465.454 390.512 462.511 391.205C461.053 391.545 459.581 391.925 458.226 392.524C457.554 392.823 456.896 393.162 456.367 393.625C455.825 394.073 455.489 394.644 455.515 395.215C455.528 395.786 455.915 396.439 456.367 396.914L456.715 397.254L457.141 397.54C457.412 397.757 457.761 397.88 458.071 398.043C459.387 398.641 460.846 398.994 462.292 399.307C465.222 399.864 468.217 400.15 471.224 400.313C477.227 400.734 483.268 400.653 489.296 400.462C492.317 400.367 495.324 400.204 498.332 399.946C499.842 399.824 501.34 399.701 502.837 399.497C503.586 399.389 504.334 399.28 505.07 399.13C505.806 398.967 506.568 398.845 507.226 398.437C506.606 398.913 505.845 399.103 505.122 399.334C504.386 399.538 503.65 399.701 502.902 399.864C501.417 400.177 499.907 400.408 498.409 400.639C495.402 401.033 492.381 401.333 489.348 401.55C483.294 401.971 477.214 402.026 471.134 401.727C468.101 401.509 465.054 401.183 462.047 400.571C460.536 400.231 459.039 399.837 457.58 399.157C456.16 398.505 454.56 397.254 454.456 395.215C454.444 394.155 455.115 393.312 455.76 392.823C456.431 392.306 457.154 391.966 457.89 391.681C459.362 391.11 460.859 390.784 462.356 390.512C465.416 390.049 468.436 389.818 471.47 389.846Z" fill="white"/>
<path opacity="0.52" d="M469.585 396.452C471.069 396.344 472.554 396.316 474.038 396.235L478.479 396.099L487.36 395.868C490.316 395.8 493.272 395.705 496.215 395.555C497.686 395.474 499.158 395.365 500.617 395.161C501.34 395.066 502.075 394.957 502.785 394.767C503.482 394.576 504.218 394.372 504.747 393.802C504.334 394.481 503.586 394.835 502.901 395.12C502.204 395.419 501.469 395.637 500.746 395.841C499.287 396.194 497.803 396.439 496.318 396.643C493.349 397.064 490.38 397.2 487.398 397.295C484.43 397.35 481.448 397.35 478.479 397.186C475.51 397.064 472.541 396.86 469.585 396.452Z" fill="white"/>
<path opacity="0.52" d="M476.491 390.512C480.028 389.832 483.59 389.601 487.14 389.465C490.703 389.37 494.266 389.397 497.828 389.845C494.291 390.525 490.729 390.77 487.179 390.892C483.629 390.987 480.066 390.96 476.491 390.512Z" fill="white"/>
<path d="M480.66 377.951C480.505 375.517 479.447 373.601 478.104 371.983C476.775 370.338 475.174 369.047 473.419 367.524C471.702 366.029 469.856 364.302 468.423 361.896C467.016 359.449 466.255 356.771 466.28 353.74C466.474 350.681 467.468 347.663 470.23 345.488C470.915 344.958 471.779 344.591 472.657 344.36C473.561 344.17 474.464 344.17 475.329 344.373C477.072 344.781 478.376 345.855 479.279 346.956C480.196 348.057 480.828 349.281 481.306 350.45C481.783 351.633 482.158 352.856 482.39 354.093C482.842 356.581 482.868 359.109 482.261 361.448C481.654 359.109 480.918 356.962 479.86 355.045C478.84 353.169 477.588 351.252 476.259 350.178C475.6 349.634 474.955 349.376 474.49 349.376C474 349.403 473.677 349.512 473.29 349.879C472.476 350.586 471.754 352.38 471.728 353.944C471.715 354.297 471.728 354.759 471.779 355.222C471.831 355.684 471.908 356.132 472.012 356.581C472.205 357.492 472.515 358.362 472.902 359.205C473.69 360.89 474.994 362.535 476.426 364.33C477.833 366.097 479.421 368.122 480.376 370.528C481.332 372.867 481.732 375.735 480.66 377.951Z" fill="white"/>
<path d="M486.96 363.528C486.611 361.828 486.753 359.98 487.657 358.185C488.134 357.301 488.896 356.445 489.916 355.901C490.91 355.358 492.188 355.167 493.349 355.398C495.712 355.874 497.415 357.546 498.461 359.463C498.99 360.428 499.339 361.584 499.481 362.725C499.61 363.813 499.558 364.914 499.365 365.975C498.964 368.095 497.971 370.066 496.46 371.575C494.95 373.043 493.349 373.791 492.033 374.43C491.361 374.756 490.755 375.055 490.174 375.382C489.67 375.667 489.154 376.048 488.715 376.524C487.825 377.461 487.05 378.699 487.424 380.425C486.727 379.949 486.224 379.038 486.095 378.06C485.927 377.067 486.108 376.075 486.392 375.123C486.702 374.185 487.192 373.302 487.837 372.513C488.431 371.793 489.09 371.154 489.722 370.61C490.987 369.509 492.097 368.639 492.743 367.769C493.375 366.94 493.827 365.907 494.008 364.846C494.124 364.316 494.15 363.786 494.124 363.256C494.111 362.793 494.021 362.372 493.853 361.883C493.517 360.945 492.859 360.088 492.226 359.708C491.633 359.3 490.729 359.218 489.696 359.939C488.651 360.686 487.773 362.032 486.96 363.528Z" fill="white"/>
<path d="M464.047 190.271L458.419 172.816L441.703 167.352L458.845 161.125L464.305 142.896L469.933 160.351L486.65 165.815L469.133 172.477L464.047 190.271Z" fill="#8BCDE5"/>
<path d="M112.023 209.697L106.382 192.242L89.6658 186.791L106.821 180.551L112.268 162.322L117.909 179.776L134.626 185.241L117.109 191.916L112.023 209.697Z" fill="#8BCDE5"/>
<path d="M85.974 167.188L83.0955 158.298L74.5759 155.511L83.3149 152.344L86.0902 143.045L88.9688 151.936L97.4883 154.723L88.5557 158.121L85.974 167.188Z" fill="white"/>
<path opacity="0.35" d="M34.0438 233.84L31.1653 224.936L22.6458 222.149L31.3976 218.982L34.1729 209.683L37.0386 218.588L45.571 221.361L36.6384 224.773L34.0438 233.84Z" fill="#8BCDE5"/>
<path opacity="0.35" d="M480.673 125.944L477.808 117.04L469.288 114.267L478.027 111.086L480.802 101.787L483.681 110.691L492.2 113.478L483.268 116.877L480.673 125.944Z" fill="#8BCDE5"/>
<path opacity="0.35" d="M437.727 77.6171L434.849 68.7265L426.329 65.9398L435.068 62.7723L437.843 53.474L440.722 62.3645L449.241 65.1513L440.309 68.5498L437.727 77.6171Z" fill="#8BCDE5"/>
<path d="M526.834 328.414L523.968 319.51L515.436 316.737L524.188 313.556L526.963 304.257L529.842 313.161L538.361 315.948L529.428 319.347L526.834 328.414Z" fill="white"/>
<path d="M442.336 128.88L439.457 119.99L430.938 117.203L439.689 114.036L442.465 104.737L445.33 113.641L453.863 116.415L444.93 119.827L442.336 128.88Z" fill="#8BCDE5"/>
<path d="M508.788 297.773L505.922 288.883L497.403 286.096L506.142 282.928L508.917 273.63L511.795 282.52L520.315 285.307L511.382 288.706L508.788 297.773Z" fill="#8BCDE5"/>
<path d="M78.6036 215.746C78.6036 217.201 77.4806 218.397 76.0865 218.397C74.7053 218.397 73.5693 217.214 73.5693 215.746C73.5693 214.278 74.6924 213.095 76.0865 213.095C77.4806 213.109 78.6036 214.292 78.6036 215.746Z" fill="#8BCDE5"/>
<path d="M126.558 233.759C126.558 235.213 125.435 236.409 124.041 236.409C122.66 236.409 121.524 235.227 121.524 233.759C121.524 232.304 122.647 231.108 124.041 231.108C125.435 231.108 126.558 232.29 126.558 233.759Z" fill="#8BCDE5"/>
<path d="M515.448 255.917C515.448 257.371 514.325 258.568 512.931 258.568C511.55 258.568 510.414 257.385 510.414 255.917C510.414 254.462 511.537 253.266 512.931 253.266C514.325 253.28 515.448 254.462 515.448 255.917Z" fill="#8BCDE5"/>
<path d="M102.51 121.336C102.51 122.79 101.387 123.986 99.9925 123.986C98.6113 123.986 97.4753 122.804 97.4753 121.336C97.4753 119.881 98.5984 118.685 99.9925 118.685C101.387 118.685 102.51 119.867 102.51 121.336Z" fill="#8BCDE5"/>
<path d="M520.586 342.688C520.586 344.142 519.463 345.339 518.069 345.339C516.688 345.339 515.552 344.156 515.552 342.688C515.552 341.233 516.675 340.037 518.069 340.037C519.463 340.05 520.586 341.233 520.586 342.688Z" fill="#8BCDE5"/>
</svg>
