<svg width="407" height="407" viewBox="0 0 407 407" fill="none" xmlns="http://www.w3.org/2000/svg">
<path d="M86.4293 331.405C154.463 366.946 264.767 366.947 332.8 331.406C400.834 295.864 400.834 238.24 332.8 202.699C264.766 167.157 154.462 167.157 86.4285 202.698C18.3951 238.239 18.3951 295.864 86.4293 331.405Z" fill="#FAFAFA"/>
<path d="M284.157 334.455C274.431 339.091 258.663 339.091 248.936 334.455C239.21 329.82 239.21 322.303 248.936 317.668C258.663 313.033 274.431 313.033 284.157 317.668C293.883 322.303 293.883 329.82 284.157 334.455Z" fill="#F0F0F0"/>
<path d="M71.7971 120.74V161.612C71.7971 162.959 72.7423 163.505 73.9091 162.831L168.734 108.084C169.901 107.411 170.847 105.773 170.847 104.427V63.5547C170.847 62.2084 169.901 61.6619 168.734 62.335L73.9091 117.083C72.7423 117.756 71.7971 119.393 71.7971 120.74Z" fill="#F0F0F0"/>
<path d="M78.4035 120.13L106.817 103.725C108.117 102.975 109.171 103.583 109.171 105.084V133.644C109.171 135.145 108.117 136.97 106.817 137.721L78.4035 154.125C77.1035 154.875 76.0504 154.267 76.0496 152.766V124.207C76.0496 122.706 77.1035 120.88 78.4035 120.13Z" fill="#FAFAFA"/>
<path d="M101.413 117.982L92.9651 135.504L88.6599 133.019C87.7935 132.518 86.6843 132.815 86.1841 133.682L76.0496 151.234V152.767C76.0496 154.268 77.1035 154.877 78.4035 154.127L106.817 137.723C108.116 136.972 109.169 135.149 109.17 133.648V123.615L103.454 117.659C102.761 116.936 101.848 117.081 101.413 117.982Z" fill="#BEEEF5"/>
<path d="M80.315 130.58C83.6474 128.657 86.3489 123.978 86.3489 120.13C86.3489 118.37 85.7797 117.097 84.8483 116.409L78.4027 120.13C77.1027 120.88 76.0487 122.706 76.0487 124.207V131.003C77.1417 131.634 78.6495 131.543 80.315 130.58Z" fill="#BEEEF5"/>
<path d="M119.78 98.91L162.483 74.2544C163.455 73.6933 164.243 74.092 164.243 75.1452C164.243 76.1975 163.455 77.5065 162.483 78.0676L119.779 102.722C118.807 103.283 118.019 102.885 118.019 101.832C118.02 100.779 118.808 99.4711 119.78 98.91Z" fill="#FAFAFA"/>
<path d="M119.78 107.348L162.483 82.6935C163.455 82.1324 164.243 82.5311 164.243 83.5835C164.243 84.6366 163.455 85.944 162.483 86.5059L119.779 111.161C118.807 111.723 118.019 111.324 118.019 110.271C118.02 109.217 118.808 107.909 119.78 107.348Z" fill="#FAFAFA"/>
<path d="M119.78 115.787L162.483 91.131C163.455 90.5699 164.243 90.9686 164.243 92.021C164.243 93.0741 163.455 94.3823 162.483 94.9434L119.779 119.598C118.807 120.159 118.019 119.761 118.019 118.708C118.02 117.656 118.808 116.347 119.78 115.787Z" fill="#FAFAFA"/>
<path d="M119.78 124.225L162.483 99.5701C163.455 99.009 164.242 99.4077 164.242 100.46C164.242 101.513 163.455 102.821 162.483 103.382L119.779 128.038C118.807 128.599 118.019 128.2 118.019 127.148C118.02 126.094 118.808 124.786 119.78 124.225Z" fill="#FAFAFA"/>
<path d="M51.9875 249.28V189.346C51.9875 188 52.9335 186.362 54.0996 185.689L125.813 144.285C126.979 143.612 127.925 144.158 127.925 145.504V205.439C127.925 206.785 126.98 208.422 125.813 209.096L54.0996 250.5C52.9335 251.174 51.9875 250.627 51.9875 249.28Z" fill="#F0F0F0"/>
<path d="M51.9875 246.28V249.28C51.9875 250.627 52.9327 251.173 54.0987 250.499L125.812 209.095C126.978 208.421 127.924 206.783 127.924 205.438V202.437L51.9875 246.28Z" fill="#BEEEF5"/>
<path d="M86.6835 191.928L93.9802 191.544C94.8766 191.497 95.1235 192.005 94.5299 192.679L86.1322 202.23C85.5394 202.904 85.0587 202.723 85.0587 201.825L85.0595 193.64C85.0595 192.741 85.7871 191.975 86.6835 191.928Z" fill="#BEEEF5"/>
<path d="M84.8046 207.47C83.8927 207.47 83.0482 207.255 82.302 206.825C80.4985 205.783 79.5046 203.612 79.5046 200.709C79.5046 194.842 83.6377 187.684 88.7184 184.751C91.2324 183.299 93.6099 183.075 95.4133 184.115C97.2168 185.157 98.2107 187.329 98.2107 190.232C98.2107 196.097 94.0768 203.256 88.9969 206.189C87.524 207.04 86.0965 207.47 84.8046 207.47ZM92.9091 184.03C91.7155 184.03 90.3838 184.435 88.9977 185.235C84.0713 188.08 80.0633 195.021 80.0633 200.71C80.0633 203.405 80.9573 205.404 82.5805 206.342C84.2045 207.28 86.3839 207.055 88.7176 205.706C93.6432 202.862 97.6512 195.92 97.6512 190.232C97.6512 187.537 96.7572 185.537 95.1332 184.6C94.4755 184.218 93.7244 184.03 92.9091 184.03Z" fill="#BEEEF5"/>
<path d="M55.9428 133.651L51.4963 131.098L51.4955 131.098C49.3729 129.678 46.4262 129.739 43.1676 131.621C36.7033 135.353 31.4626 144.829 31.4626 152.786V154.597C31.4626 162.554 42.1607 171.201 42.1607 171.201L46.535 173.675C46.535 173.675 43.9074 170.679 44.207 170.064C47.0725 164.183 54.8726 147.577 54.8726 141.081V139.27C54.8726 137.819 54.6964 136.519 54.3716 135.385L54.8734 135.674L55.9428 133.651ZM43.1676 151.894C39.9359 153.76 37.3155 152.247 37.3147 148.515C39.0548 148.241 43.4291 140.773 43.1676 138.379C46.3994 136.513 49.0197 138.026 49.0205 141.758C49.0197 145.49 46.3994 150.028 43.1676 151.894Z" fill="#BEEEF5"/>
<g opacity="0.2">
<path d="M55.9428 133.651L51.4963 131.098L51.4955 131.098C49.3729 129.678 46.4262 129.739 43.1676 131.621C36.7033 135.353 31.4626 144.829 31.4626 152.786V154.597C31.4626 162.554 42.1607 171.201 42.1607 171.201L46.535 173.675C46.535 173.675 43.9074 170.679 44.207 170.064C47.0725 164.183 54.8726 147.577 54.8726 141.081V139.27C54.8726 137.819 54.6964 136.519 54.3716 135.385L54.8734 135.674L55.9428 133.651ZM43.1676 151.894C39.9359 153.76 37.3155 152.247 37.3147 148.515C39.0548 148.241 43.4291 140.773 43.1676 138.379C46.3994 136.513 49.0197 138.026 49.0205 141.758C49.0197 145.49 46.3994 150.028 43.1676 151.894Z" fill="black"/>
</g>
<path d="M55.9445 133.654C55.8925 133.621 55.8406 133.589 55.7894 133.563C53.7001 132.395 50.9109 132.551 47.8489 134.322C43.2164 137.001 39.2141 142.619 37.3197 148.516C37.3197 148.522 37.3132 148.529 37.3132 148.535C36.5669 150.871 36.1455 153.238 36.1455 155.489V157.299C36.1455 163.43 43.0865 170.54 46.2785 173.485C46.3499 173.55 46.4214 173.607 46.4985 173.654C46.505 173.66 46.518 173.667 46.5245 173.673C47.2967 174.147 48.3474 173.875 48.7624 173.018C51.5191 167.374 59.5506 150.378 59.5506 143.787V141.97C59.5514 137.884 58.1702 134.99 55.9445 133.654ZM42.1015 152.395C42.0301 152.032 41.9976 151.642 41.9976 151.221C41.9976 147.484 44.6179 142.95 47.8489 141.081C48.2118 140.868 48.5691 140.705 48.9126 140.575C51.6368 139.583 53.7001 141.153 53.7001 144.462C53.7001 148.192 51.079 152.733 47.8489 154.595C44.9817 156.255 42.5944 155.25 42.1015 152.395Z" fill="#BEEEF5"/>
<path d="M53.7001 144.462C53.7001 148.192 51.079 152.733 47.8489 154.595C44.9817 156.255 42.5936 155.25 42.1007 152.396C42.4442 152.272 42.8015 152.104 43.1652 151.896C46.4019 150.028 49.0165 145.486 49.0165 141.757C49.0165 141.335 48.984 140.94 48.9126 140.576C51.6376 139.583 53.7001 141.153 53.7001 144.462Z" fill="#BEEEF5"/>
<g opacity="0.2">
<path d="M53.7001 144.462C53.7001 148.192 51.079 152.733 47.8489 154.595C44.9817 156.255 42.5936 155.25 42.1007 152.396C42.4442 152.272 42.8015 152.104 43.1652 151.896C46.4019 150.028 49.0165 145.486 49.0165 141.757C49.0165 141.335 48.984 140.94 48.9126 140.576C51.6376 139.583 53.7001 141.153 53.7001 144.462Z" fill="black"/>
</g>
<path d="M139.019 245.277C139.019 245.277 141.946 226.635 135.441 210.541C128.936 194.447 120.146 193.47 115.6 195.765C111.055 198.061 114.005 206.961 118.073 212.946C123.406 220.792 132.405 237.705 132.08 252.884L139.019 245.277Z" fill="#BEEEF5"/>
<path opacity="0.2" d="M139.019 245.277C139.019 245.277 141.946 226.635 135.441 210.541C128.936 194.447 120.146 193.47 115.6 195.765C111.055 198.061 114.005 206.961 118.073 212.946C123.406 220.792 132.405 237.705 132.08 252.884L139.019 245.277Z" fill="black"/>
<path d="M136.091 246.464C136.083 246.464 136.075 246.464 136.068 246.464C135.763 246.451 135.526 246.194 135.54 245.889C136.617 220.319 123.84 201.181 118.33 197.508C118.076 197.339 118.008 196.996 118.177 196.743C118.347 196.488 118.689 196.419 118.943 196.59C125.442 200.922 137.717 220.443 136.643 245.936C136.63 246.233 136.385 246.464 136.091 246.464Z" fill="white"/>
<path d="M137.862 267.453C136.752 264.657 133.882 261.541 126.462 258.208C119.042 254.875 113.529 250.441 112.503 247.224C111.476 244.008 113.816 242.104 113.816 242.104C113.816 242.104 106.857 241.289 105.982 237.026C104.878 231.655 110.962 231.302 110.962 231.302C110.962 231.302 102.983 220.06 100.859 215.026C98.736 209.992 101.189 209.73 106.333 211.633C111.476 213.538 121.293 223.152 122.813 226.083C122.813 226.083 125.465 222.806 128.321 224.964C131.179 227.123 131.32 233.496 129.63 235.798C129.63 235.798 133.072 234.896 135.666 238.295C138.572 242.104 139.528 251.624 139.528 251.624L137.862 267.453Z" fill="#BEEEF5"/>
<path d="M138.388 264.853C138.138 264.853 137.912 264.683 137.851 264.43C133.9 247.99 115.167 221.743 103.53 213.395C103.282 213.217 103.226 212.872 103.403 212.624C103.582 212.376 103.927 212.32 104.174 212.497C115.957 220.95 134.925 247.526 138.924 264.172C138.996 264.468 138.813 264.766 138.517 264.837C138.474 264.848 138.431 264.853 138.388 264.853Z" fill="white"/>
<path d="M285.367 99.2762C285.274 99.2762 285.179 99.2527 285.092 99.2023L282.809 97.8836C282.545 97.731 282.455 97.394 282.607 97.1293C282.76 96.8654 283.099 96.7753 283.361 96.9271L285.644 98.245C285.908 98.3977 285.999 98.7354 285.846 98.9993C285.744 99.1772 285.558 99.2762 285.367 99.2762Z" fill="white"/>
<path d="M137.862 147.419V268.232C137.862 269.577 138.807 270.123 139.972 269.45L280.882 188.096C282.047 187.423 282.992 185.787 282.992 184.442V63.6294C282.992 62.2839 282.047 61.7383 280.882 62.4114L139.972 143.765C138.807 144.438 137.862 146.074 137.862 147.419Z" fill="#455A64"/>
<path d="M154.354 169.739C154.354 173.946 157.502 175.539 161.386 173.296L273.095 108.801V93.5662L161.386 158.062C157.503 160.305 154.354 165.533 154.354 169.739Z" fill="#F5F5F5"/>
<path d="M282.555 88.1055C286.439 85.8636 289.587 87.4559 289.587 91.6629C289.587 95.8699 286.439 101.098 282.555 103.34L273.096 108.802V93.567L282.555 88.1055Z" fill="#BEEEF5"/>
<path d="M279.184 100.946C278.767 100.946 278.377 100.847 278.029 100.645C277.212 100.173 276.762 99.2267 276.762 97.9786C276.762 95.6116 278.368 92.8297 280.419 91.6466C281.5 91.023 282.544 90.9386 283.361 91.4095C284.177 91.8813 284.626 92.8281 284.626 94.0761C284.626 96.4439 283.02 99.225 280.971 100.408C280.351 100.765 279.744 100.946 279.184 100.946ZM282.202 92.2134C281.838 92.2134 281.418 92.3441 280.971 92.6024C279.288 93.5735 277.867 96.0363 277.867 97.9786C277.867 98.8158 278.121 99.4232 278.581 99.6887C279.041 99.955 279.695 99.8698 280.419 99.4524C282.101 98.4812 283.523 96.0193 283.523 94.0761C283.523 93.239 283.269 92.6316 282.809 92.3661C282.632 92.2638 282.428 92.2134 282.202 92.2134Z" fill="white"/>
<path d="M284.18 121.445L176.254 183.757C175.089 184.429 174.145 186.065 174.145 187.41V220.625C174.145 221.97 175.089 222.515 176.254 221.843L284.18 159.532C285.344 158.859 286.289 157.224 286.289 155.878V122.663C286.289 121.318 285.345 120.773 284.18 121.445Z" fill="#BEEEF5"/>
<path opacity="0.2" d="M284.18 121.445L176.254 183.757C175.089 184.429 174.145 186.065 174.145 187.41V220.625C174.145 221.97 175.089 222.515 176.254 221.843L284.18 159.532C285.344 158.859 286.289 157.224 286.289 155.878V122.663C286.289 121.318 285.345 120.773 284.18 121.445Z" fill="white"/>
<path d="M215.484 166.632L235.056 155.332C236.027 154.771 236.814 155.169 236.814 156.221C236.814 157.272 236.027 158.58 235.056 159.14L215.484 170.441C214.513 171.001 213.726 170.603 213.726 169.552C213.726 168.499 214.512 167.192 215.484 166.632Z" fill="white"/>
<path d="M213.726 177.168C213.726 178.22 214.513 178.618 215.484 178.057L274.637 143.905C275.607 143.344 276.395 142.038 276.395 140.986C276.395 139.935 275.607 139.536 274.637 140.097L215.484 174.249C214.512 174.809 213.726 176.117 213.726 177.168Z" fill="white"/>
<path d="M213.726 184.785C213.726 185.836 214.513 186.235 215.484 185.674L274.637 151.522C275.607 150.962 276.395 149.654 276.395 148.603C276.395 147.551 275.607 147.153 274.637 147.714L215.484 181.866C214.512 182.426 213.726 183.733 213.726 184.785Z" fill="white"/>
<path d="M213.726 192.4C213.726 193.452 214.513 193.85 215.484 193.29L274.637 159.138C275.607 158.577 276.395 157.27 276.395 156.218C276.395 155.166 275.607 154.768 274.637 155.329L215.484 189.48C214.512 190.042 213.726 191.349 213.726 192.4Z" fill="white"/>
<path d="M179.553 185.661L205.019 170.958C206.185 170.285 207.129 170.83 207.129 172.176V197.773C207.129 199.118 206.185 200.753 205.019 201.427L179.553 216.129C178.387 216.803 177.443 216.257 177.443 214.912V189.315C177.443 187.969 178.387 186.333 179.553 185.661Z" fill="white"/>
<path d="M200.175 183.736L192.604 199.44L188.745 197.212C187.969 196.763 186.975 197.029 186.527 197.806L177.444 213.538V214.911C177.444 216.256 178.388 216.802 179.554 216.129L205.019 201.426C206.184 200.753 207.127 199.119 207.128 197.774V188.781L202.005 183.443C201.384 182.798 200.565 182.928 200.175 183.736Z" fill="#BEEEF5"/>
<path d="M181.266 195.026C184.253 193.303 186.674 189.109 186.674 185.66C186.674 184.083 186.164 182.941 185.329 182.325L179.553 185.66C178.387 186.333 177.443 187.969 177.443 189.314V195.406C178.422 195.97 179.774 195.889 181.266 195.026Z" fill="#BEEEF5"/>
<path d="M284.18 170.958L176.254 233.268C175.089 233.941 174.145 235.577 174.145 236.922V270.136C174.145 271.482 175.089 272.027 176.254 271.354L284.18 209.044C285.344 208.372 286.289 206.735 286.289 205.39V172.176C286.289 170.83 285.345 170.285 284.18 170.958Z" fill="#BEEEF5"/>
<path opacity="0.2" d="M284.18 170.958L176.254 233.268C175.089 233.941 174.145 235.577 174.145 236.922V270.136C174.145 271.482 175.089 272.027 176.254 271.354L284.18 209.044C285.344 208.372 286.289 206.735 286.289 205.39V172.176C286.289 170.83 285.345 170.285 284.18 170.958Z" fill="white"/>
<path d="M215.484 216.143L235.056 204.844C236.027 204.283 236.814 204.681 236.814 205.733C236.814 206.785 236.027 208.092 235.056 208.653L215.484 219.952C214.513 220.513 213.726 220.115 213.726 219.063C213.726 218.011 214.512 216.704 215.484 216.143Z" fill="white"/>
<path d="M213.726 226.681C213.726 227.732 214.513 228.13 215.484 227.57L274.637 193.418C275.607 192.858 276.395 191.55 276.395 190.499C276.395 189.447 275.607 189.049 274.637 189.61L215.484 223.761C214.512 224.321 213.726 225.628 213.726 226.681Z" fill="white"/>
<path d="M213.726 234.297C213.726 235.349 214.513 235.747 215.484 235.186L274.637 201.034C275.607 200.474 276.395 199.167 276.395 198.115C276.395 197.064 275.607 196.665 274.637 197.226L215.484 231.378C214.512 231.938 213.726 233.246 213.726 234.297Z" fill="white"/>
<path d="M213.726 241.913C213.726 242.964 214.513 243.362 215.484 242.802L274.637 208.65C275.607 208.09 276.395 206.783 276.395 205.73C276.395 204.679 275.607 204.281 274.637 204.841L215.484 238.993C214.512 239.553 213.726 240.861 213.726 241.913Z" fill="white"/>
<path d="M179.553 235.173L205.019 220.47C206.185 219.798 207.129 220.343 207.129 221.688V247.285C207.129 248.631 206.185 250.267 205.019 250.939L179.553 265.642C178.387 266.314 177.443 265.769 177.443 264.424V238.827C177.443 237.481 178.387 235.846 179.553 235.173Z" fill="white"/>
<path d="M200.175 233.248L192.604 248.953L188.745 246.725C187.969 246.277 186.975 246.542 186.527 247.319L177.444 263.05V264.424C177.444 265.769 178.388 266.314 179.554 265.642L205.019 250.939C206.184 250.267 207.127 248.632 207.128 247.288V238.295L202.005 232.957C201.384 232.309 200.565 232.44 200.175 233.248Z" fill="#BEEEF5"/>
<path d="M181.266 244.539C184.253 242.815 186.674 238.622 186.674 235.173C186.674 233.596 186.164 232.455 185.329 231.838L179.553 235.173C178.387 235.846 177.443 237.482 177.443 238.827V244.918C178.422 245.483 179.774 245.4 181.266 244.539Z" fill="#BEEEF5"/>
<path d="M282.991 68.81V63.6294C282.991 62.2839 282.047 61.7383 280.881 62.4114L139.972 143.765C138.807 144.438 137.862 146.073 137.862 147.419V152.6L282.991 68.81Z" fill="#BEEEF5"/>
<path d="M265.709 73.1598C264.844 73.6592 264.144 74.8723 264.144 75.8695C264.144 76.8674 264.844 77.2726 265.709 76.7732C266.573 76.2739 267.274 75.0615 267.274 74.0636C267.274 73.0656 266.574 72.6613 265.709 73.1598Z" fill="#F5F5F5"/>
<path d="M271.918 69.5757C271.055 70.0742 270.354 71.2882 270.354 72.2853C270.354 73.2833 271.054 73.6876 271.918 73.1891C272.782 72.6897 273.483 71.4774 273.483 70.4794C273.483 69.4815 272.782 69.0763 271.918 69.5757Z" fill="#F5F5F5"/>
<path d="M278.128 65.9907C277.264 66.4901 276.562 67.7032 276.562 68.7004C276.562 69.6983 277.263 70.1027 278.128 69.6041C278.992 69.1047 279.693 67.8916 279.693 66.8937C279.693 65.8965 278.991 65.4922 278.128 65.9907Z" fill="#F5F5F5"/>
<path d="M285.246 320.705C285.472 321.007 285.514 321.703 285.744 322.647C285.975 323.589 286.053 324.32 285.899 324.781C285.744 325.242 284.73 326.281 283.488 326.665C282.246 327.049 280.717 326.726 279.238 325.841C277.758 324.957 276.642 323.882 274.535 323.283C272.427 322.683 271.374 322.195 270.375 321.395C269.206 320.457 267.647 317.863 269.881 317.264C272.135 316.659 276.979 318.783 281.399 318.975L285.246 320.705Z" fill="#263238"/>
<path d="M285.039 317.782C285.039 317.782 285.301 320.885 285.302 321.26C285.306 322.311 281.437 323.712 280.717 321.26L280.104 317.964L285.039 317.782Z" fill="#F28F8F"/>
<path d="M280.292 249.724C281.632 251.81 282.937 253.762 283.938 255.798C283.938 255.798 284.32 260.315 284.32 263.32C284.32 268.843 283.461 273.108 282.677 283.985C282.677 283.985 284.487 286.679 284.774 291.017C285.101 295.945 285.105 295.913 285.137 318.624C285.137 318.624 283.096 319.909 280.3 319.097L272.968 287.257L272.17 274.762L269.88 259.228L280.292 249.724Z" fill="#37474F"/>
<path d="M262.991 326.393C263.255 326.665 263.165 327.175 263.282 328.099C263.405 329.062 263.485 329.709 263.39 330.186C263.294 330.663 262.418 331.819 261.233 332.355C260.048 332.891 258.491 332.762 256.914 332.068C255.336 331.375 254.094 330.446 251.928 330.114C249.762 329.781 248.656 329.429 247.566 328.758C246.29 327.973 244.419 325.594 246.562 324.721C248.723 323.84 254.075 325.427 258.486 325.068L262.991 326.393Z" fill="#263238"/>
<path d="M264.009 322.497C264.009 322.497 263.178 326.035 262.977 326.824C262.492 328.72 258.29 328.816 258.29 326.629L258.573 321.599L264.009 322.497Z" fill="#F28F8F"/>
<path d="M270.81 250.655C272.916 254.781 274.944 258.432 275.014 262.841C275.163 272.15 271.301 282.407 269.88 289.139C269.88 289.139 270.593 292.932 270.234 296.524C269.951 299.336 263.527 324.928 263.527 324.928C263.527 324.928 259.957 325.67 258.434 324.06L260.244 274.764L260.728 260.442L270.81 250.655Z" fill="#37474F"/>
<path d="M267.92 225.449L269.25 232.776L275.87 232.293L274.48 223.986L267.92 225.449Z" fill="#FFA8A7"/>
<path d="M282.86 231.758C282.204 229.766 279.677 227.597 277.148 228.067C272.501 228.93 268.815 229.853 266.07 230.833C263.755 231.66 261.646 233.661 261.454 241.279L260.728 260.442C260.728 260.442 261.932 261.662 264.224 262.292C267.747 263.26 270.062 263.835 275.41 262.667C282.369 261.147 284.025 256.933 284.025 256.933C284.025 256.933 283.757 246.794 283.549 241.279C283.372 236.593 283.31 233.125 282.86 231.758Z" fill="#455A64"/>
<path d="M265.095 216.086L231.36 206.933C228.308 206.41 227.033 213.857 230.083 214.38L264.763 217.883L265.095 216.086Z" fill="#263238"/>
<path d="M255.394 231.547L248.499 231.757C248.499 231.757 249.54 221.498 250.179 220.157C250.818 218.815 252.359 218.535 253.88 218.098C255.401 217.662 255.406 216.938 255.406 216.938L254.031 216.799C252.828 216.678 252.353 215.173 252.872 214.163C253.117 213.689 253.524 212.946 254.255 213.145C254.986 213.343 256.075 213.638 256.075 213.638C256.075 213.638 256.097 212.021 255.498 211.354C254.892 210.68 254.481 210.887 253.269 210.467C252.365 210.153 250.525 209.59 249.036 210.202C247.546 210.813 246.417 213.6 246.043 215.572C245.668 217.546 245.503 218.576 244.174 222.236C242.846 225.895 240.902 233.393 240.718 236.404C240.634 237.79 240.763 238.614 242.306 238.983C243.85 239.351 255.195 239.374 255.195 239.374L255.394 231.547Z" fill="#FFA8A7"/>
<path d="M263.02 216.766C263.02 216.766 261.417 219.14 261.621 219.394C261.825 219.648 262.826 219.926 262.826 219.926L263.02 216.766Z" fill="#FFA8A7"/>
<path d="M267.919 209.245C266.376 210.023 263.708 211.464 262.971 217.114C262.215 222.914 263.211 224.783 263.995 225.552C264.524 226.071 267.404 226.102 268.847 225.67C270.652 225.128 274.723 223.581 276.579 220.601C278.763 217.096 279.252 212.4 276.787 210.535C273.319 207.907 269.224 208.585 267.919 209.245Z" fill="#FFA8A7"/>
<path d="M272.45 279.252L275.968 269.31C275.968 269.31 280.234 267.939 283.073 264.571C283.073 264.571 282.289 267.406 276.707 270.309L272.852 279.716L272.82 284.946L272.45 279.252Z" fill="#263238"/>
<path d="M262.651 211.188C263.159 212.579 264.013 215.984 267.566 217.408C267.566 217.408 268.074 215.237 269.898 215.467C271.735 215.698 272.035 218.026 270.913 219.47C269.791 220.914 268.703 220.395 268.703 220.395C268.703 220.395 268.459 223.508 270.537 224.919C270.537 224.919 273.045 226.508 275.702 225.286C276.898 224.737 278.589 221.874 279.581 219.523C281.681 214.551 281.981 210.564 278.808 209.307C278.418 207.046 277.402 206.197 275.355 205.776C270.951 204.868 267.622 207.761 263.927 207.25C261.999 206.985 262.071 209.598 262.651 211.188Z" fill="#263238"/>
<path d="M278.88 210.065L280.956 208.778C280.6 208.204 279.848 208.028 279.275 208.384C278.7 208.739 278.523 209.492 278.88 210.065Z" fill="#263238"/>
<path d="M253.847 231.403C253.847 231.403 263.551 230.848 266.071 230.833C268.593 230.818 271.182 235.043 269.634 237.924C268.614 239.822 265.426 240.471 261.406 240.665C257.417 240.857 253.328 240.857 253.328 240.857C253.328 240.857 249.678 236.739 253.847 231.403Z" fill="#455A64"/>
<path d="M261.474 240.662C261.474 240.662 267.624 240.582 269.633 237.924C269.633 237.924 269.164 239.519 266.779 240.55C264.433 241.565 261.438 241.699 261.438 241.699L261.474 240.662Z" fill="#37474F"/>
<path d="M231.36 206.932C228.308 206.409 227.033 213.856 230.083 214.379L234.921 214.868C232.94 214.667 234.316 207.735 235.828 208.145L231.36 206.932Z" fill="#455A64"/>
<path d="M354.233 204.943C354.233 209.092 350.863 212.462 346.713 212.462C344.537 212.462 342.572 211.536 341.2 210.058L340.705 209.458C340.697 209.449 340.688 209.449 340.688 209.441C339.755 208.182 339.194 206.623 339.194 204.943C339.194 200.793 342.563 197.423 346.713 197.423C348.882 197.423 350.847 198.349 352.219 199.819L352.73 200.436C352.738 200.436 352.738 200.444 352.738 200.444C353.672 201.703 354.233 203.262 354.233 204.943Z" fill="#455A64"/>
<path d="M354.233 204.943C354.233 209.092 350.863 212.462 346.713 212.462C344.537 212.462 342.572 211.536 341.2 210.058L340.705 209.458C340.697 209.449 340.688 209.449 340.688 209.441L309.378 171.642L322.573 164.026L352.219 199.819L352.73 200.436C352.738 200.436 352.738 200.444 352.738 200.444C353.672 201.703 354.233 203.262 354.233 204.943Z" fill="#455A64"/>
<path d="M328.324 194.51C329.696 195.988 331.661 196.913 333.837 196.913C337.986 196.913 341.357 193.544 341.357 189.394C341.357 187.714 340.796 186.154 339.863 184.896C339.863 184.896 339.863 184.888 339.854 184.888L335.982 180.22C335.991 180.22 335.991 180.229 335.991 180.229C336.924 181.487 337.485 183.046 337.485 184.727C337.485 188.876 334.115 192.246 329.966 192.246C327.789 192.246 325.824 191.32 324.452 189.843L328.324 194.51Z" fill="#BEEEF5"/>
<path d="M322.084 104.583C324.537 104.873 326.786 105.606 328.799 106.768L319.273 101.227C312.881 96.8361 303.682 97.0951 293.459 102.991C274.156 114.138 258.499 141.254 258.499 163.549C258.488 174.503 262.234 182.329 268.377 186.052L268.511 186.129L278.677 191.988C276.912 190.847 275.352 189.373 274.039 187.576C276.374 187.856 278.881 187.716 281.529 187.146C282.422 186.952 283.325 186.716 284.24 186.425C284.121 186.382 284.004 186.339 283.896 186.285C283.411 186.059 282.937 185.801 282.496 185.489C281.722 184.951 281.023 184.284 280.387 183.488C279.602 182.509 278.946 181.357 278.407 180.044C277.718 180.142 277.051 180.184 276.406 180.184C274.673 180.184 273.156 179.883 271.811 179.269C271.466 179.118 271.144 178.935 270.832 178.742C270.541 178.558 270.261 178.354 269.982 178.139C269.422 175.611 269.132 172.824 269.132 169.779C269.132 147.484 284.787 120.368 304.102 109.22C306.781 107.671 309.396 106.519 311.902 105.723C312.634 106.024 313.323 106.422 313.948 106.907C314.593 107.401 315.184 107.982 315.723 108.66C316.508 109.64 317.164 110.802 317.713 112.115C318.401 112.018 319.069 111.975 319.714 111.975C321.737 111.975 323.481 112.395 324.975 113.256C325.385 113.471 325.771 113.729 326.138 114.019C325.998 113.363 325.837 112.728 325.653 112.115C324.838 109.188 323.623 106.67 322.084 104.583Z" fill="#263238"/>
<path d="M328.798 106.767C328.615 106.659 328.432 106.562 328.249 106.466C326.376 105.476 324.322 104.851 322.083 104.583C319.921 104.324 317.597 104.421 315.153 104.894C314.089 105.098 313.012 105.378 311.904 105.723C309.397 106.519 306.782 107.67 304.104 109.22C284.789 120.368 269.133 147.484 269.133 169.779C269.133 172.824 269.423 175.611 269.983 178.139C270.091 178.634 270.209 179.107 270.338 179.581C271.167 182.701 272.426 185.381 274.04 187.575C274.826 188.662 275.709 189.62 276.677 190.469C277.311 191.029 277.978 191.535 278.678 191.987C285.049 196.097 294.076 195.742 304.094 189.964C323.408 178.816 339.064 151.701 339.064 129.405C339.064 118.237 335.136 110.404 328.798 106.767ZM324.978 113.256C325.387 113.471 325.774 113.729 326.141 114.019C326.743 114.493 327.292 115.053 327.808 115.687C330.24 118.742 331.531 123.488 331.531 129.406C331.531 148.925 317.242 173.674 300.327 183.444C296.066 185.908 291.966 187.21 288.48 187.21C286.898 187.21 285.499 186.952 284.24 186.425C284.121 186.382 284.003 186.339 283.895 186.285C283.411 186.059 282.937 185.801 282.496 185.489C281.958 185.113 281.453 184.672 280.99 184.176H280.98C280.775 183.961 280.582 183.724 280.388 183.488C279.602 182.509 278.946 181.357 278.408 180.044C277.257 177.268 276.665 173.793 276.665 169.779C276.665 169.521 276.665 169.262 276.686 168.994C277.041 149.593 291.18 125.371 307.869 115.742C308.255 115.516 308.644 115.3 309.031 115.096C312.087 113.472 315.036 112.46 317.714 112.116C318.403 112.02 319.07 111.977 319.716 111.977C321.287 111.977 322.686 112.235 323.934 112.751C324.3 112.889 324.645 113.061 324.978 113.256Z" fill="#455A64"/>
<path d="M331.531 129.406C331.531 148.925 317.242 173.674 300.327 183.444C299.261 184.057 298.207 184.606 297.164 185.069C297.164 185.069 297.153 185.079 297.142 185.079C294.044 186.478 291.084 187.21 288.481 187.21C286.899 187.21 285.5 186.952 284.241 186.425C284.122 186.382 284.004 186.339 283.896 186.285C283.411 186.059 282.938 185.801 282.497 185.489C281.723 184.951 281.023 184.284 280.388 183.488C280.172 183.208 279.958 182.928 279.763 182.617C280.14 182.649 280.538 182.67 280.947 182.67C284.433 182.67 288.533 181.368 292.794 178.904C309.709 169.133 323.999 144.385 323.999 124.866C323.999 119.497 322.933 115.096 320.91 112.04C322.439 112.158 323.783 112.567 324.978 113.256C325.387 113.472 325.774 113.73 326.141 114.02C326.743 114.494 327.292 115.053 327.808 115.687C329.95 118.378 331.209 122.369 331.467 127.319C331.51 127.997 331.531 128.697 331.531 129.406Z" fill="#37474F"/>
<path opacity="0.6" d="M328.271 127.158C328.271 146.677 313.981 171.426 297.066 181.196C292.805 183.66 288.706 184.962 285.219 184.962C283.637 184.962 282.249 184.703 280.99 184.176H280.98C280.775 183.961 280.582 183.724 280.388 183.488C279.602 182.509 278.946 181.357 278.408 180.044C277.256 177.268 276.665 173.793 276.665 169.779C276.665 169.521 276.665 169.262 276.686 168.994C277.041 149.593 291.18 125.371 307.869 115.742C308.255 115.516 308.644 115.3 309.031 115.096C312.087 113.472 315.036 112.46 317.714 112.116C318.403 112.02 319.07 111.977 319.716 111.977C321.287 111.977 322.685 112.235 323.933 112.751C324.149 112.967 324.353 113.204 324.547 113.44C326.979 116.494 328.271 121.24 328.271 127.158Z" fill="white"/>
</svg>
