<svg width="413" height="400" viewBox="0 0 413 400" fill="none" xmlns="http://www.w3.org/2000/svg">
<path d="M42.5382 94.4251C41.9292 86.5655 38.7094 79.0307 34.0218 72.6931C29.3342 66.3554 26.2967 62.8875 19.6595 58.6338C17.5376 57.2734 11.8062 54.4496 9.30725 54.1149C6.80918 53.7811 4.40132 54.4244 3.0562 56.5562C1.98715 58.2504 2.01963 60.4661 2.70166 62.3498C3.38279 64.2344 4.63949 65.8502 5.93589 67.3775C16.1682 79.4358 29.8674 87.9386 42.5382 94.4251Z" fill="#ADCE46"/>
<path d="M3.93579 55.5304C46.9452 89.9044 78.3358 139.965 94.1298 192.709C109.924 245.453 110.051 300.647 93.013 353.003" stroke="#4C290F" stroke-width="0.75" stroke-miterlimit="10" stroke-linecap="round"/>
<path d="M74.9184 117.266C77.7783 108.547 79.6593 99.4014 79.2668 90.2328C78.8735 81.0642 76.0831 71.8414 70.3734 64.6576C68.3994 62.1748 65.6587 59.7823 62.4984 60.0502C59.8957 60.2704 57.7242 62.3408 56.712 64.7496C55.6998 67.1583 55.6574 69.8576 55.8198 72.4648C56.9096 89.9008 66.2974 105.579 74.9184 117.266Z" fill="#ADCE46"/>
<path d="M62.5805 60.163C74.2851 84.4004 77.8595 113.219 72.4195 139.578" stroke="#4C290F" stroke-width="0.75" stroke-miterlimit="10" stroke-linecap="round"/>
<path d="M60.5407 145.896C52.7371 134.338 40.6797 125.723 27.2169 122.085C23.6858 121.131 19.8995 120.516 16.4045 121.593C12.9086 122.669 9.84312 125.869 9.99649 129.523C10.1056 132.126 11.7963 134.461 13.92 135.97C16.0436 137.48 18.5715 138.293 21.0669 139.043C34.4287 143.058 48.1559 145.862 60.5407 145.896Z" fill="#ADCE46"/>
<path d="M84.3378 165.031C66.8748 145.643 37.7513 132.266 10.5675 127.078" stroke="#4C290F" stroke-width="0.75" stroke-miterlimit="10" stroke-linecap="round"/>
<path d="M97.9595 167.398C106.15 155.137 108.76 139.299 104.936 125.058C104.321 122.768 103.406 120.333 101.377 119.105C98.342 117.267 94.2706 119.072 91.989 121.789C87.7425 126.843 87.5378 134.115 88.2676 140.676C89.3944 150.816 92.2569 160.761 97.9595 167.398Z" fill="#ADCE46"/>
<path d="M98.6497 118.307C100.837 142.499 99.5329 167.438 93.6048 190.994" stroke="#4C290F" stroke-width="0.75" stroke-miterlimit="10" stroke-linecap="round"/>
<path d="M75.7231 196.423C66.7891 185.036 53.355 177.282 39.0261 175.243C34.7165 174.63 29.7618 174.731 26.7441 177.868C22.8053 181.965 24.6186 189.262 29.0067 192.874C33.3948 196.485 39.3761 197.341 45.0371 197.839C56.2861 198.825 67.6109 198.944 75.7231 196.423Z" fill="#ADCE46"/>
<path d="M24.8396 181.957C39.2723 184.716 54.6289 187.119 68.1783 192.805C81.7278 198.491 93.2258 207.551 100.882 220.092" stroke="#4C290F" stroke-width="0.75" stroke-miterlimit="10" stroke-linecap="round"/>
<path d="M84.1159 252.91C74.6424 240.079 60.1772 231.038 44.4923 228.144C40.8142 227.465 36.1942 227.528 34.3376 230.774C33.1937 232.775 33.6186 235.384 34.8455 237.335C36.0724 239.286 37.976 240.702 39.8895 241.986C53.1864 250.911 69.2366 255.669 84.1159 252.91Z" fill="#ADCE46"/>
<path d="M34.2573 231.188C48.5529 235.033 63.5125 240.685 76.3547 248.048C89.1969 255.412 99.9957 264.895 105.761 278.53" stroke="#4C290F" stroke-width="0.75" stroke-miterlimit="10" stroke-linecap="round"/>
<path d="M79.0485 291.954C71.2692 279.655 57.3922 271.43 42.8684 270.511C38.972 270.264 34.3818 270.892 32.4214 274.268C30.8841 276.917 31.6437 280.435 33.5211 282.854C35.3985 285.274 38.1844 286.8 40.9648 288.084C53.2414 293.75 67.0958 295.949 79.0485 291.954Z" fill="#ADCE46"/>
<path d="M31.8621 275.556C45.509 278.439 58.5091 280.676 70.874 287.131C83.239 293.586 94.3292 302.967 102.302 314.411" stroke="#4C290F" stroke-width="0.75" stroke-miterlimit="10" stroke-linecap="round"/>
<path d="M114.23 203.891C118.813 198.41 122.827 192.369 125.335 185.679C127.843 178.99 128.784 171.602 127.23 164.629C126.815 162.768 126.197 160.891 124.952 159.446C123.708 158.001 121.72 157.071 119.868 157.528C117.279 158.168 116.007 161.035 115.216 163.582C110.988 177.191 109.968 191.785 114.23 203.891Z" fill="#ADCE46"/>
<path d="M122.097 157.729C121.905 169.694 119.803 183.306 116.852 194.903C113.901 206.5 109.763 216.365 101.879 225.368" stroke="#4C290F" stroke-width="0.75" stroke-miterlimit="10" stroke-linecap="round"/>
<path d="M118.754 255.336C129.917 244.94 136.967 230.241 138.086 215.028C138.327 211.743 137.727 207.591 134.585 206.603C132.825 206.049 130.86 206.823 129.53 208.102C128.202 209.381 127.389 211.094 126.65 212.784C120.914 225.91 117.935 240.233 118.754 255.336Z" fill="#ADCE46"/>
<path d="M134.641 206.62C131.64 230.408 120.963 256.055 105.917 274.724" stroke="#4C290F" stroke-width="0.75" stroke-miterlimit="10" stroke-linecap="round"/>
<path d="M122.687 298.62C130.184 295.436 137.197 290.739 142.069 284.212C146.94 277.685 149.483 269.19 147.846 261.21C147.335 258.718 146.193 256.046 143.84 255.078C140.99 253.905 137.814 255.764 135.565 257.872C130.428 262.684 127.047 269.127 124.893 275.828C122.739 282.529 121.734 289.535 122.687 298.62Z" fill="#ADCE46"/>
<path d="M144.323 255.374C139.424 280.478 123.839 301.944 102.227 315.846" stroke="#4C290F" stroke-width="0.75" stroke-miterlimit="10" stroke-linecap="round"/>
<path d="M306.697 237.67C299.646 219.702 310.455 199.052 305.856 180.305C305.311 178.085 304.341 175.677 302.242 174.774C299.795 173.721 296.848 175.338 295.547 177.663C294.246 179.987 294.19 182.788 294.271 185.451C294.84 204.477 300.588 222.919 306.697 237.67Z" fill="#ADCE46"/>
<path d="M301.289 174.575C296.465 202.864 301.783 232.399 315.387 257.442" stroke="#4C290F" stroke-width="0.75" stroke-miterlimit="10" stroke-linecap="round"/>
<path d="M350.773 150.635C363.716 131.735 377.768 111.898 398.82 102.867C403.166 101.003 409.106 100.055 411.862 103.897C413.377 106.009 413.272 108.969 412.179 111.327C411.086 113.685 409.153 115.542 407.146 117.192C389.613 131.597 363.375 134.681 350.773 150.635Z" fill="#ADCE46"/>
<path d="M412.164 104.571C388.574 114.994 365.874 129.728 350.773 150.634C339.157 166.715 332.361 186.26 326.87 205.323C317.986 236.172 312.665 268.045 311.047 300.107" stroke="#4C290F" stroke-width="0.75" stroke-miterlimit="10" stroke-linecap="round"/>
<path d="M326.229 184.896C326.979 165.889 344.016 151.455 348.866 133.062C349.396 131.055 349.777 128.945 349.364 126.912C348.95 124.878 347.593 122.926 345.605 122.329C343.595 121.724 341.369 122.627 339.873 124.1C338.377 125.572 337.475 127.532 336.668 129.47C329.748 146.072 327.464 164.176 326.229 184.896Z" fill="#ADCE46"/>
<path d="M347.187 123.528C340.372 137.805 333.244 150.942 329.303 166.264C325.951 179.297 325.037 194.14 326.082 207.557" stroke="#4C290F" stroke-width="0.75" stroke-miterlimit="10" stroke-linecap="round"/>
<path d="M339.07 192.037C349.512 176.688 371.858 174.275 384.372 160.563C386.765 157.941 388.745 153.821 386.526 151.051C384.125 148.054 379.326 149.549 376.011 151.487C359.811 160.963 346.608 175.481 339.07 192.037Z" fill="#ADCE46"/>
<path d="M386.91 151.962C358.784 165.962 342.58 181.2 323.23 218.892" stroke="#4C290F" stroke-width="0.75" stroke-miterlimit="10" stroke-linecap="round"/>
<path d="M326.131 238.19C339.109 228.56 352.085 218.93 365.062 209.299C367.022 207.845 369.2 205.916 368.914 203.493C368.679 201.499 366.707 200.057 364.715 199.812C362.723 199.568 360.739 200.26 358.903 201.071C350.397 204.829 343.325 211.317 337.617 218.657C331.908 225.996 327.451 234.214 326.131 238.19Z" fill="#ADCE46"/>
<path d="M368.395 202.302C363.474 203.79 359.113 206.698 354.999 209.78C338.954 221.804 326.729 234.972 316.015 253.84" stroke="#4C290F" stroke-width="0.75" stroke-miterlimit="10" stroke-linecap="round"/>
<path d="M375.185 304.635L260.975 292.416C248.772 291.111 236.449 291.504 224.354 293.586L67.7535 320.541L200.965 345.409L375.185 304.635Z" fill="#F180DC"/>
<path d="M200.966 381.692L196.454 380.762L366.842 332.079L375.185 334.217L200.966 381.692Z" fill="#D54CC8"/>
<path d="M196.454 380.762V349.111L370.841 309.911V334.114L196.454 380.762Z" fill="white"/>
<mask id="mask0_2010_6230" style="mask-type:luminance" maskUnits="userSpaceOnUse" x="196" y="309" width="175" height="72">
<path d="M196.454 380.762V349.111L370.841 309.911V334.114L196.454 380.762Z" fill="white"/>
</mask>
<g mask="url(#mask0_2010_6230)">
<path d="M196.454 355.007L370.841 314.047" stroke="#F1DC85" stroke-width="1.25" stroke-miterlimit="10" stroke-linecap="round" stroke-linejoin="round"/>
<path d="M196.454 361.523L370.841 319.323" stroke="#F1DC85" stroke-width="1.25" stroke-miterlimit="10" stroke-linecap="round" stroke-linejoin="round"/>
<path d="M196.454 368.35L370.841 324.494" stroke="#F1DC85" stroke-width="1.25" stroke-miterlimit="10" stroke-linecap="round" stroke-linejoin="round"/>
<path d="M196.454 375.175L370.841 329.252" stroke="#F1DC85" stroke-width="1.25" stroke-miterlimit="10" stroke-linecap="round" stroke-linejoin="round"/>
</g>
<path d="M77.8703 325.529C77.8703 325.529 60.1438 321.72 57.0801 332.666C53.2017 346.526 67.785 350.042 67.785 350.042L196.454 380.762V349.111L77.8703 325.529Z" fill="#FBF4D3"/>
<mask id="mask1_2010_6230" style="mask-type:luminance" maskUnits="userSpaceOnUse" x="56" y="324" width="141" height="57">
<path d="M77.8703 325.529C77.8703 325.529 60.1438 321.72 57.0801 332.666C53.2017 346.526 67.785 350.042 67.785 350.042L196.454 380.762V349.111L77.8703 325.529Z" fill="white"/>
</mask>
<g mask="url(#mask1_2010_6230)">
<path d="M196.454 355.007L54.3393 326.356" stroke="#F1DC85" stroke-width="1.25" stroke-miterlimit="10" stroke-linecap="round" stroke-linejoin="round"/>
<path d="M196.454 361.523L40.8926 329.459" stroke="#F1DC85" stroke-width="1.25" stroke-miterlimit="10" stroke-linecap="round" stroke-linejoin="round"/>
<path d="M196.454 375.175L42.3406 339.595" stroke="#F1DC85" stroke-width="1.25" stroke-miterlimit="10" stroke-linecap="round" stroke-linejoin="round"/>
<path d="M196.454 368.35L35.5149 333.803" stroke="#F1DC85" stroke-width="1.25" stroke-miterlimit="10" stroke-linecap="round" stroke-linejoin="round"/>
</g>
<path d="M77.8703 325.529L196.455 349.111L200.966 349.939V345.409L78.7715 321.108C78.3322 321.017 75.1034 320.376 71.1528 320.376C57.8252 320.376 53.8936 327.313 52.7371 331.449C51.2981 336.588 51.7745 341.412 54.1129 345.398C58.0896 352.175 65.8562 354.216 66.7376 354.429L200.965 386.475V381.691L196.454 380.76L67.7851 350.042C67.7851 350.042 53.2008 346.526 57.0801 332.666C60.1429 321.719 77.8703 325.529 77.8703 325.529Z" fill="#D54CC8"/>
<path d="M200.966 349.939L375.185 308.772V304.635L200.966 345.409V349.939Z" fill="#E769D5"/>
<path d="M200.966 381.692V386.476L375.185 338.768V334.217L200.966 381.692Z" fill="#E769D5"/>
<path d="M68.044 311.306L84.5417 309.083L87.0082 314.856L68.044 311.306Z" fill="#175EC5"/>
<path d="M74.4051 295.326V312.496L196.454 335.354V315.909L74.4051 295.326Z" fill="white"/>
<mask id="mask2_2010_6230" style="mask-type:luminance" maskUnits="userSpaceOnUse" x="74" y="295" width="123" height="41">
<path d="M74.4051 295.326V312.496L196.454 335.354V315.909L74.4051 295.326Z" fill="white"/>
</mask>
<g mask="url(#mask2_2010_6230)">
<path d="M74.4051 297.65L196.454 318.646" stroke="#F1DC85" stroke-width="0.75" stroke-miterlimit="10" stroke-linecap="round" stroke-linejoin="round"/>
<path d="M74.4051 300.442L196.454 321.645" stroke="#F1DC85" stroke-width="0.75" stroke-miterlimit="10" stroke-linecap="round" stroke-linejoin="round"/>
<path d="M196.454 324.211L74.4051 302.821" stroke="#F1DC85" stroke-width="0.75" stroke-miterlimit="10" stroke-linecap="round" stroke-linejoin="round"/>
<path d="M74.4051 305.82L196.454 327.334" stroke="#F1DC85" stroke-width="0.75" stroke-miterlimit="10" stroke-linecap="round" stroke-linejoin="round"/>
<path d="M74.4051 308.148L196.454 330.593" stroke="#F1DC85" stroke-width="0.75" stroke-miterlimit="10" stroke-linecap="round" stroke-linejoin="round"/>
<path d="M196.454 333.141L74.4051 310.593" stroke="#F1DC85" stroke-width="0.75" stroke-miterlimit="10" stroke-linecap="round" stroke-linejoin="round"/>
</g>
<path d="M198.42 313.944V337.837L68.044 314.047V311.306L74.4051 312.496L196.454 335.354V315.909L68.044 294.24V292.043L198.42 313.944Z" fill="#1E6AD7"/>
<path d="M68.044 292.043L221.469 272.778L348.913 285.19L198.42 313.944L68.044 292.043Z" fill="#337DFF"/>
<path d="M198.42 313.944L348.913 285.19V305.256L198.42 337.837V313.944Z" fill="#175EC5"/>
<path d="M217.291 310.338V333.751L223.562 332.393V308.997L217.291 310.338Z" fill="white"/>
<path d="M291.022 296.251V317.789L332.657 308.775V288.296L291.022 296.251Z" fill="#FFE033"/>
<path d="M348.913 285.19L198.42 313.944" stroke="white" stroke-width="1.25" stroke-miterlimit="10" stroke-linecap="round"/>
<path d="M348.913 305.256L198.42 337.837" stroke="white" stroke-width="1.25" stroke-miterlimit="10" stroke-linecap="round"/>
<path d="M362.94 267.132L177.009 247.127L66.854 262.694L249.494 288.874L362.94 267.132Z" fill="#FFA531"/>
<path d="M66.854 283.329L76.2671 280.914L258.143 309.479L249.494 311.303L66.854 283.329Z" fill="#D26C0F"/>
<path d="M252.877 291.664V310.634L362.766 286.52C363.827 286.287 364.583 285.347 364.583 284.261V272.791C364.583 271.336 363.257 270.243 361.83 270.52L252.877 291.664Z" fill="white"/>
<mask id="mask3_2010_6230" style="mask-type:luminance" maskUnits="userSpaceOnUse" x="252" y="270" width="113" height="41">
<path d="M252.877 291.664V310.634L362.766 286.52C363.827 286.287 364.583 285.347 364.583 284.261V272.791C364.583 271.336 363.257 270.243 361.83 270.52L252.877 291.664Z" fill="white"/>
</mask>
<g mask="url(#mask3_2010_6230)">
<path d="M252.877 298.189L364.584 274.71" stroke="#F1DC85" stroke-width="1.25" stroke-miterlimit="10" stroke-linecap="round" stroke-linejoin="round"/>
<path d="M364.584 280.71L252.877 305.147" stroke="#F1DC85" stroke-width="1.25" stroke-miterlimit="10" stroke-linecap="round" stroke-linejoin="round"/>
</g>
<path d="M252.877 291.664L71.5777 264.917V282.811L252.877 310.634V291.664Z" fill="#FBF4D3"/>
<mask id="mask4_2010_6230" style="mask-type:luminance" maskUnits="userSpaceOnUse" x="71" y="264" width="182" height="47">
<path d="M252.877 291.664L71.5777 264.917V282.811L252.877 310.634V291.664Z" fill="white"/>
</mask>
<g mask="url(#mask4_2010_6230)">
<path d="M252.877 298.189L71.5777 270.477" stroke="#F1DC85" stroke-width="1.25" stroke-miterlimit="10" stroke-linecap="round" stroke-linejoin="round"/>
<path d="M252.877 305.147L71.5777 277.123" stroke="#F1DC85" stroke-width="1.25" stroke-miterlimit="10" stroke-linecap="round" stroke-linejoin="round"/>
</g>
<path d="M362.275 267.093C361.911 267.093 361.545 267.129 361.185 267.199L249.494 288.874V292.315L252.877 291.665L361.83 270.521C363.257 270.244 364.583 271.337 364.583 272.791V284.261C364.583 285.348 363.827 286.288 362.766 286.52L252.877 310.635L249.494 311.304V314.841L363.492 289.825C366.085 289.256 367.967 286.916 367.967 284.261V272.791C367.966 269.649 365.414 267.093 362.275 267.093Z" fill="#D26C0F"/>
<path d="M249.494 288.874L66.854 262.694V265.642L249.494 292.314V288.874Z" fill="#F18F25"/>
<path d="M249.494 311.303V314.84L66.854 286.198V283.329L249.494 311.303Z" fill="#F18F25"/>
<path d="M345.195 244.134L186.629 233.991L95.7808 248.713C95.7808 248.713 82.7852 250.175 82.6797 259.056C82.5741 267.937 91.7815 268 91.7815 268L273.899 283.645L345.195 244.134Z" fill="#FFE033"/>
<path d="M270.032 264.35L91.2998 249.763" stroke="#F180DC" stroke-width="1.25" stroke-miterlimit="10" stroke-linecap="round"/>
<path d="M147.614 258.521L96.6189 253.975C94.7054 253.805 92.8271 254.676 91.7824 256.288C90.2325 258.681 90.4157 261.026 92.3869 263.321C93.2647 264.343 94.5241 264.959 95.8665 265.077L146.638 269.546C149.548 269.802 152.162 267.64 152.338 264.724C152.344 264.617 152.353 264.509 152.364 264.401C152.663 261.442 150.574 258.785 147.614 258.521Z" fill="#FFA531"/>
<path d="M237.129 275.571C238.614 275.571 239.818 274.367 239.818 272.882C239.818 271.396 238.614 270.192 237.129 270.192C235.644 270.192 234.44 271.396 234.44 272.882C234.44 274.367 235.644 275.571 237.129 275.571Z" fill="#F180DC"/>
<path d="M246.593 276.01C248.079 276.01 249.283 274.806 249.283 273.321C249.283 271.836 248.079 270.632 246.593 270.632C245.108 270.632 243.904 271.836 243.904 273.321C243.904 274.806 245.108 276.01 246.593 276.01Z" fill="#F180DC"/>
<path d="M258.799 274.097C258.799 275.582 257.594 276.786 256.109 276.786C254.625 276.786 253.42 275.582 253.42 274.097C253.42 272.612 254.625 271.408 256.109 271.408C257.594 271.408 258.799 272.612 258.799 274.097Z" fill="#F180DC"/>
<path d="M231.011 261.165C231.011 261.165 227.484 264.642 227.484 270.563C227.484 276.485 231.011 279.961 231.011 279.961" stroke="#F180DC" stroke-width="1.25" stroke-miterlimit="10" stroke-linecap="round"/>
<path d="M225.927 260.75C225.927 260.75 222.727 263.47 222.727 269.468C222.727 275.467 224.99 279.18 225.927 279.961" stroke="#F180DC" stroke-width="1.25" stroke-miterlimit="10" stroke-linecap="round"/>
<path d="M345.195 261.659L338.415 260.315L340.25 262.992L345.195 261.659Z" fill="#CEA90F"/>
<path d="M341.812 248.437V262.573L277.339 279.881C277.339 279.881 268.788 282.501 268.788 274.019C268.788 265.951 278.511 263.814 278.511 263.814L341.812 248.437Z" fill="white"/>
<mask id="mask5_2010_6230" style="mask-type:luminance" maskUnits="userSpaceOnUse" x="268" y="248" width="74" height="33">
<path d="M341.812 248.437V262.573L277.339 279.881C277.339 279.881 268.788 282.501 268.788 274.019C268.788 265.951 278.511 263.814 278.511 263.814L341.812 248.437Z" fill="white"/>
</mask>
<g mask="url(#mask5_2010_6230)">
<path d="M341.812 250.644L270.644 268.559" stroke="#F1DC85" stroke-width="1.25" stroke-miterlimit="10" stroke-linecap="round" stroke-linejoin="round"/>
<path d="M341.812 254.16L268.87 272.778" stroke="#F1DC85" stroke-width="1.25" stroke-miterlimit="10" stroke-linecap="round" stroke-linejoin="round"/>
<path d="M341.812 257.402L269.055 276.348" stroke="#F1DC85" stroke-width="1.25" stroke-miterlimit="10" stroke-linecap="round" stroke-linejoin="round"/>
<path d="M341.812 260.496L271.128 279.39" stroke="#F1DC85" stroke-width="1.25" stroke-miterlimit="10" stroke-linecap="round" stroke-linejoin="round"/>
</g>
<path d="M341.812 262.573L277.339 279.881C277.339 279.881 268.788 282.501 268.788 274.019C268.788 265.951 278.511 263.814 278.511 263.814L341.812 248.437L345.195 247.499V244.134L277.74 260.519C277.266 260.628 274.582 261.293 271.837 263.035C267.629 265.705 265.405 269.504 265.405 274.019C265.405 279.957 268.909 283.645 274.55 283.645C276.37 283.645 277.873 283.247 278.253 283.137L345.194 265.167V261.659L341.812 262.573Z" fill="#ECC818"/>
<path d="M204.522 234.819L366.135 213.046V240.663L204.522 266.535V234.819Z" fill="white"/>
<mask id="mask6_2010_6230" style="mask-type:luminance" maskUnits="userSpaceOnUse" x="204" y="213" width="163" height="54">
<path d="M204.522 234.819L366.135 213.046V240.663L204.522 266.535V234.819Z" fill="white"/>
</mask>
<g mask="url(#mask6_2010_6230)">
<path d="M221.469 232.535C221.469 232.535 222.002 237.383 227.691 236.618C227.691 236.618 224.381 242.887 232.346 243.093C232.346 243.093 231.829 249.506 237.724 248.989C237.724 248.989 239.897 253.433 247.653 249.763L258.143 237.198C258.143 237.198 259.704 234.302 256.109 231.923C256.109 231.923 259.013 230.405 258.143 227.595L221.469 232.535Z" fill="#91C2FB"/>
<path d="M324.911 218.6C324.911 218.6 321.538 225.061 329.192 227.061L339.121 234.819C339.121 234.819 344.913 239.956 352.223 232.992C352.223 232.992 359.135 237.129 362.634 230.371C362.634 230.371 368.634 230.026 367.116 224.165L366.134 213.046L324.911 218.6Z" fill="#91C2FB"/>
<path d="M204.522 252.299C204.522 252.299 210.378 247.748 214.897 252.92C214.897 252.92 221.349 251.686 221.469 258.819C221.469 258.819 227.588 266.844 214.451 268.001C201.315 269.158 213.936 268.001 213.936 268.001L204.522 266.535V252.299Z" fill="#91C2FB"/>
<path d="M267.549 256.445C267.549 256.445 263.413 254.468 267.549 249.763C271.684 245.058 313.333 240.784 313.333 240.784C313.333 240.784 318.229 239.542 316.161 245.197C316.161 245.197 322.643 244.3 321.746 249.334C320.849 254.368 267.549 256.445 267.549 256.445Z" fill="#91C2FB"/>
</g>
<path d="M244.647 237.315L335.43 225.084C339.854 224.488 343.788 227.929 343.788 232.393C343.788 236.016 341.157 239.101 337.58 239.674L246.796 254.207C242.315 254.924 238.257 251.464 238.257 246.926V244.622C238.257 240.931 240.987 237.808 244.647 237.315Z" fill="#F6EBBE"/>
<path d="M89.2474 225.975L260.169 209.988L366.135 213.046L204.522 234.819L89.2474 225.975Z" fill="#91C2FB"/>
<path d="M89.2474 248.627L98.9185 247.299L99.0213 249.845L89.2474 248.627Z" fill="#1E6AD7"/>
<path d="M94.8849 228.923V249.299L202.351 263.47V238.163L94.8849 228.923Z" fill="white"/>
<mask id="mask7_2010_6230" style="mask-type:luminance" maskUnits="userSpaceOnUse" x="94" y="228" width="109" height="36">
<path d="M94.8849 228.923V249.299L202.351 263.47V238.163L94.8849 228.923Z" fill="white"/>
</mask>
<g mask="url(#mask7_2010_6230)">
<path d="M94.8849 232.961L202.351 243.201" stroke="#F1DC85" stroke-width="1.25" stroke-miterlimit="10" stroke-linecap="round" stroke-linejoin="round"/>
<path d="M94.8849 237.615L202.351 248.631" stroke="#F1DC85" stroke-width="1.25" stroke-miterlimit="10" stroke-linecap="round" stroke-linejoin="round"/>
<path d="M94.8849 242.03L202.351 253.667" stroke="#F1DC85" stroke-width="1.25" stroke-miterlimit="10" stroke-linecap="round" stroke-linejoin="round"/>
<path d="M202.351 258.49L94.8849 246.647" stroke="#F1DC85" stroke-width="1.25" stroke-miterlimit="10" stroke-linecap="round" stroke-linejoin="round"/>
</g>
<path d="M202.351 238.163V263.47L94.885 249.299L89.2474 248.627V250.929L204.522 266.535V234.819L89.2474 225.975V228.535L94.885 228.923L202.351 238.163Z" fill="#71ACE9"/>
<path d="M87.4674 187.92L243.904 180.31L295.543 184.115C295.543 184.115 323.779 185.171 325.848 198.824C328.386 215.571 310.644 217.338 310.644 217.338L160.659 230.101L87.4674 187.92Z" fill="#F180DC"/>
<mask id="mask8_2010_6230" style="mask-type:luminance" maskUnits="userSpaceOnUse" x="87" y="180" width="240" height="51">
<path d="M87.4674 187.92L243.904 180.31L295.543 184.115C295.543 184.115 323.779 185.171 325.848 198.824C328.386 215.571 310.644 217.338 310.644 217.338L160.659 230.101L87.4674 187.92Z" fill="white"/>
</mask>
<g mask="url(#mask8_2010_6230)">
<path d="M181.352 193.323C181.352 193.323 192.214 196.6 192.214 213.977C192.214 231.354 171.114 233.992 171.114 233.992L208.478 233.109C208.478 233.109 219.209 218.943 215.951 207.462C212.692 195.981 204.521 191.881 204.521 191.881L181.352 193.323Z" fill="#F6EBBE"/>
</g>
<path d="M160.796 194.604L306.454 185.529" stroke="#F6EBBE" stroke-width="0.75" stroke-miterlimit="10"/>
<path d="M287.159 186.731C287.159 186.731 297.094 192.256 297.094 204.357C297.094 216.459 286.041 219.432 286.041 219.432" stroke="#F6EBBE" stroke-width="0.75" stroke-miterlimit="10"/>
<path d="M87.4674 218.626L92.9535 218.338L93.7122 219.373L87.4674 218.626Z" fill="#D54CC8"/>
<path d="M90.8505 218.994V191.584L151.772 196.446C151.772 196.446 173.079 197.169 173.079 212.581C173.079 227.992 158.392 226.751 158.392 226.751L90.8505 218.994Z" fill="white"/>
<mask id="mask9_2010_6230" style="mask-type:luminance" maskUnits="userSpaceOnUse" x="90" y="191" width="84" height="36">
<path d="M90.8505 218.994V191.584L151.772 196.446C151.772 196.446 173.079 197.169 173.079 212.581C173.079 227.992 158.392 226.751 158.392 226.751L90.8505 218.994Z" fill="white"/>
</mask>
<g mask="url(#mask9_2010_6230)">
<path d="M90.8505 195.515L167.731 201.684" stroke="#F1DC85" stroke-width="1.25" stroke-miterlimit="10" stroke-linecap="round" stroke-linejoin="round"/>
<path d="M90.8505 200.239L172.104 207.315" stroke="#F1DC85" stroke-width="1.25" stroke-miterlimit="10" stroke-linecap="round" stroke-linejoin="round"/>
<path d="M90.8505 205.444L173.079 212.355" stroke="#F1DC85" stroke-width="1.25" stroke-miterlimit="10" stroke-linecap="round" stroke-linejoin="round"/>
<path d="M90.8505 209.988L172.541 217.257" stroke="#F1DC85" stroke-width="1.25" stroke-miterlimit="10" stroke-linecap="round" stroke-linejoin="round"/>
<path d="M90.8505 214.857L169.66 222.709" stroke="#F1DC85" stroke-width="1.25" stroke-miterlimit="10" stroke-linecap="round" stroke-linejoin="round"/>
</g>
<path d="M172.272 201.304C170.151 198.93 167.257 197.008 163.67 195.589C158.187 193.419 152.763 193.104 151.976 193.069L87.4674 187.921V191.277L90.8505 191.585L151.772 196.446C151.772 196.446 173.079 197.171 173.079 212.582C173.079 227.992 158.392 226.752 158.392 226.752L90.8514 218.994L87.4683 218.626V222.01L158.057 230.118L158.107 230.122C158.179 230.128 158.562 230.158 159.162 230.158C161.24 230.158 165.282 229.819 169.014 227.545C172.412 225.475 176.463 221.199 176.463 212.581C176.463 208.209 175.052 204.414 172.272 201.304Z" fill="#E769D5"/>
<path d="M325.952 178.534L320.134 178.087L319.481 178.913L325.952 178.534Z" fill="#F18F25"/>
<path d="M177.768 159.693L321.676 152.245V178.759L177.768 188.911V159.693Z" fill="white"/>
<mask id="mask10_2010_6230" style="mask-type:luminance" maskUnits="userSpaceOnUse" x="177" y="152" width="145" height="37">
<path d="M177.768 159.693L321.676 152.245V178.759L177.768 188.911V159.693Z" fill="white"/>
</mask>
<g mask="url(#mask10_2010_6230)">
<path d="M177.768 164.381L321.676 156.727" stroke="#F1DC85" stroke-width="1.25" stroke-miterlimit="10" stroke-linecap="round" stroke-linejoin="round"/>
<path d="M177.768 169.76L321.676 161.485" stroke="#F1DC85" stroke-width="1.25" stroke-miterlimit="10" stroke-linecap="round" stroke-linejoin="round"/>
<path d="M321.676 174.932L177.768 184.447" stroke="#F1DC85" stroke-width="1.25" stroke-miterlimit="10" stroke-linecap="round" stroke-linejoin="round"/>
<path d="M321.676 170.578L177.768 179.69" stroke="#F1DC85" stroke-width="1.25" stroke-miterlimit="10" stroke-linecap="round" stroke-linejoin="round"/>
<path d="M321.676 166.657L177.768 174.932" stroke="#F1DC85" stroke-width="1.25" stroke-miterlimit="10" stroke-linecap="round" stroke-linejoin="round"/>
</g>
<path d="M182.078 157.52V160.382L325.952 152.59V149.281L182.078 157.52Z" fill="#FFA531"/>
<path d="M182.078 188.607V191.584L325.952 181.344V178.534L321.676 178.759L182.078 188.607Z" fill="#FFA531"/>
<path d="M177.768 159.693L89.7517 156.577C86.7529 156.47 84.2648 158.873 84.2648 161.872V178.872C84.2648 181.689 86.4678 184.013 89.2799 184.164L177.767 188.911V159.693H177.768Z" fill="#FBF4D3"/>
<mask id="mask11_2010_6230" style="mask-type:luminance" maskUnits="userSpaceOnUse" x="84" y="156" width="94" height="33">
<path d="M177.768 159.693L89.7517 156.577C86.7529 156.47 84.2648 158.873 84.2648 161.872V178.872C84.2648 181.689 86.4678 184.013 89.2799 184.164L177.767 188.911V159.693H177.768Z" fill="white"/>
</mask>
<g mask="url(#mask11_2010_6230)">
<path d="M177.768 164.381L84.2657 161.873" stroke="#F1DC85" stroke-width="1.25" stroke-miterlimit="10" stroke-linecap="round" stroke-linejoin="round"/>
<path d="M177.768 169.76L84.2657 166.657" stroke="#F1DC85" stroke-width="1.25" stroke-miterlimit="10" stroke-linecap="round" stroke-linejoin="round"/>
<path d="M177.768 184.447L84.2657 180.103" stroke="#F1DC85" stroke-width="1.25" stroke-miterlimit="10" stroke-linecap="round" stroke-linejoin="round"/>
<path d="M177.768 179.69L84.2657 176.276" stroke="#F1DC85" stroke-width="1.25" stroke-miterlimit="10" stroke-linecap="round" stroke-linejoin="round"/>
<path d="M177.768 174.932L84.3135 171.777" stroke="#F1DC85" stroke-width="1.25" stroke-miterlimit="10" stroke-linecap="round" stroke-linejoin="round"/>
</g>
<path d="M89.7526 156.577L182.078 160.382V157.52L87.5071 154.057C84.1358 153.933 81.3355 156.633 81.3355 160.007V180.463C81.3355 183.625 83.8083 186.236 86.9658 186.408L182.078 191.584V188.607L89.2817 184.165C86.4697 184.014 84.2666 181.689 84.2666 178.872V161.872C84.2657 158.873 86.7538 156.471 89.7526 156.577Z" fill="#F18F25"/>
<path d="M325.952 149.281L219.003 146.798L87.0317 154.059L182.078 157.52L325.952 149.281Z" fill="#FFA531"/>
<path d="M136.05 113.336V154.314L320.677 145.867V110.363L136.05 113.336Z" fill="#91C2FB"/>
<path d="M152.323 120.595V146.177L202.798 143.833V119.906L152.323 120.595Z" fill="#337DFF"/>
<path d="M210.522 120.32V143.212L312.764 140.127V118.29L210.522 120.32Z" fill="#175EC5"/>
<path d="M99.0214 149.824L104.22 149.41L104.686 150.037L99.0214 149.824Z" fill="#1E6AD7"/>
<path d="M101.504 150.177V115.492L133.982 115.975V151.142L101.504 150.177Z" fill="white"/>
<mask id="mask12_2010_6230" style="mask-type:luminance" maskUnits="userSpaceOnUse" x="101" y="115" width="33" height="37">
<path d="M101.504 150.177V115.492L133.982 115.975V151.142L101.504 150.177Z" fill="white"/>
</mask>
<g mask="url(#mask12_2010_6230)">
<path d="M101.504 118.596L133.982 119.147" stroke="#F1DC85" stroke-width="1.25" stroke-miterlimit="10" stroke-linecap="round" stroke-linejoin="round"/>
<path d="M133.982 123.767L101.504 123.284" stroke="#F1DC85" stroke-width="1.25" stroke-miterlimit="10" stroke-linecap="round" stroke-linejoin="round"/>
<path d="M101.504 127.855L133.982 128.337" stroke="#F1DC85" stroke-width="1.25" stroke-miterlimit="10" stroke-linecap="round" stroke-linejoin="round"/>
<path d="M101.504 145.488L133.982 146.177" stroke="#F1DC85" stroke-width="1.25" stroke-miterlimit="10" stroke-linecap="round" stroke-linejoin="round"/>
<path d="M133.982 140.109L101.504 139.558" stroke="#F1DC85" stroke-width="1.25" stroke-miterlimit="10" stroke-linecap="round" stroke-linejoin="round"/>
<path d="M133.982 134.455L101.504 133.765" stroke="#F1DC85" stroke-width="1.25" stroke-miterlimit="10" stroke-linecap="round" stroke-linejoin="round"/>
</g>
<path d="M136.05 113.336L99.0214 112.846V115.492L133.982 115.975V151.142L99.0214 149.824V152.771L136.05 154.314V113.336Z" fill="#71ACE9"/>
<path d="M99.0213 112.846L248.378 110.363H320.677L136.05 113.336L99.0213 112.846Z" fill="#337DFF"/>
<path d="M181.795 77.5304L129.385 84.062C124.471 84.6746 120.238 87.8168 118.23 92.3429L111.09 108.437C110.205 110.431 111.666 112.677 113.848 112.677C115.025 112.677 116.093 111.994 116.586 110.926L122.689 97.727C124.755 93.2577 129.002 90.1886 133.893 89.6293L182.574 84.0557C184.143 83.8762 185.363 82.6051 185.477 81.029C185.628 78.9622 183.851 77.2742 181.795 77.5304Z" fill="#175EC5"/>
<path d="M287.304 77.3626L234.788 82.9767C229.864 83.5027 225.577 86.5709 223.49 91.0619L216.071 107.027C215.151 109.007 216.571 111.277 218.754 111.315C219.929 111.336 221.01 110.671 221.522 109.613L227.856 96.5226C230 92.0903 234.299 89.0961 239.199 88.6215L287.97 83.9005C289.542 83.7481 290.784 82.4986 290.926 80.9252C291.111 78.8611 289.364 77.1425 287.304 77.3626Z" fill="#175EC5"/>
<path d="M289.068 77.0848C287.671 77.0848 286.303 76.7104 285.093 76.013C274.863 68.8833 252.159 68.1525 244.809 75.119C244.809 75.119 241.275 74.3945 237.827 74.3945C234.379 74.3945 230.845 75.119 230.845 75.119C223.496 68.1516 200.79 68.8833 190.561 76.013C189.352 76.7104 187.983 77.0848 186.587 77.0848C184.231 76.8105 181.644 77.6134 181.612 80.3948C181.617 83.0715 184.172 84.0016 186.473 83.7048C182.745 121.535 235.243 121.769 231.621 81.4296C231.621 81.4296 233.897 80.1882 237.827 80.1882C241.758 80.1882 244.033 81.4296 244.033 81.4296C240.412 121.769 292.908 121.536 289.182 83.7048C291.482 84.0016 294.038 83.0715 294.042 80.3948C294.011 77.6134 291.424 76.8105 289.068 77.0848ZM217.969 105.7C204.508 114.485 187.701 100.817 189.988 85.095C190.059 82.246 191.754 79.6848 194.366 78.5436C199.257 75.7054 218.303 72.5568 222.609 76.1429C231.85 80.8287 226.894 100.101 217.969 105.7ZM257.686 105.7C248.76 100.1 243.804 80.8287 253.046 76.1429C257.352 72.5559 276.397 75.7045 281.289 78.5436C283.9 79.6848 285.596 82.246 285.667 85.095C287.954 100.818 271.148 114.486 257.686 105.7Z" fill="#FFA531"/>
<path d="M186.215 80.3686C186.215 81.0614 185.654 81.6226 184.961 81.6226C184.268 81.6226 183.707 81.0614 183.707 80.3686C183.707 79.6757 184.268 79.1146 184.961 79.1146C185.654 79.1146 186.215 79.6757 186.215 80.3686Z" fill="#175EC5"/>
<path d="M289.441 80.3686C289.441 81.0614 290.002 81.6226 290.695 81.6226C291.387 81.6226 291.949 81.0614 291.949 80.3686C291.949 79.6757 291.387 79.1146 290.695 79.1146C290.002 79.1146 289.441 79.6757 289.441 80.3686Z" fill="#175EC5"/>
<path opacity="0.5" d="M194.366 78.5436C191.754 79.6848 190.059 82.246 189.988 85.095C187.701 100.817 204.508 114.486 217.969 105.7C226.894 100.1 231.85 80.8287 222.609 76.1429C218.303 72.5569 199.257 75.7054 194.366 78.5436Z" fill="white"/>
<mask id="mask13_2010_6230" style="mask-type:luminance" maskUnits="userSpaceOnUse" x="189" y="74" width="39" height="35">
<path d="M194.366 78.5436C191.754 79.6848 190.059 82.246 189.988 85.095C187.701 100.817 204.508 114.486 217.969 105.7C226.894 100.1 231.85 80.8287 222.609 76.1429C218.303 72.5569 199.257 75.7054 194.366 78.5436Z" fill="white"/>
</mask>
<g mask="url(#mask13_2010_6230)">
<path d="M184.961 102.736L224.271 63.4252" stroke="white" stroke-width="1.5" stroke-miterlimit="10"/>
<path d="M198.963 118.29L233.44 83.813" stroke="white" stroke-width="3" stroke-miterlimit="10"/>
</g>
<path opacity="0.5" d="M281.29 78.5436C283.901 79.6848 285.596 82.246 285.668 85.095C287.954 100.817 271.147 114.486 257.686 105.7C248.761 100.1 243.805 80.8287 253.047 76.1429C257.353 72.5569 276.398 75.7054 281.29 78.5436Z" fill="white"/>
<mask id="mask14_2010_6230" style="mask-type:luminance" maskUnits="userSpaceOnUse" x="248" y="74" width="38" height="35">
<path d="M281.29 78.5436C283.901 79.6848 285.596 82.246 285.668 85.095C287.954 100.817 271.147 114.486 257.686 105.7C248.761 100.1 243.805 80.8287 253.047 76.1429C257.353 72.5569 276.398 75.7054 281.29 78.5436Z" fill="white"/>
</mask>
<g mask="url(#mask14_2010_6230)">
<path d="M248.099 108.456L291.57 64.9859" stroke="white" stroke-width="2.25" stroke-miterlimit="10"/>
</g>
<path d="M289.44 52.1455C289.44 41.6886 283.051 35.2977 272.594 35.2977C283.051 35.2977 289.44 28.9077 289.44 18.4508C289.44 28.9077 295.83 35.2977 306.287 35.2977C295.83 35.2986 289.44 41.6886 289.44 52.1455Z" fill="white"/>
<path d="M387.493 275.666C387.493 265.209 381.102 258.819 370.646 258.819C381.103 258.819 387.493 252.429 387.493 241.972C387.493 252.429 393.883 258.819 404.34 258.819C393.883 258.819 387.493 265.209 387.493 275.666Z" fill="white"/>
<path d="M400.423 238.62C400.423 232.073 396.422 228.072 389.875 228.072C396.422 228.072 400.423 224.07 400.423 217.524C400.423 224.07 404.424 228.072 410.971 228.072C404.424 228.071 400.423 232.072 400.423 238.62Z" fill="white"/>
<path d="M49.1158 169.857C49.1158 164.938 46.1099 161.933 41.1922 161.933C46.1108 161.933 49.1158 158.928 49.1158 154.01C49.1158 158.928 52.1209 161.933 57.0395 161.933C52.1218 161.933 49.1158 164.938 49.1158 169.857Z" fill="white"/>
<path d="M102.448 77.193C102.448 71.9523 99.245 68.7497 94.0044 68.7497C99.245 68.7497 102.448 65.547 102.448 60.3064C102.448 65.547 105.65 68.7497 110.891 68.7497C105.65 68.7497 102.448 71.9523 102.448 77.193Z" fill="white"/>
<path d="M10.5676 272.308C10.5676 265.761 6.56649 261.76 0.0195312 261.76C6.56649 261.76 10.5676 257.759 10.5676 251.212C10.5676 257.759 14.5686 261.76 21.1156 261.76C14.5686 261.76 10.5676 265.761 10.5676 272.308Z" fill="white"/>
<path d="M318.543 380.116C318.543 375.124 315.492 372.073 310.501 372.073C315.492 372.073 318.543 369.023 318.543 364.03C318.543 369.022 321.593 372.073 326.586 372.073C321.594 372.073 318.543 375.124 318.543 380.116Z" fill="white"/>
<path d="M21.7715 28.3898C21.7715 24.7009 19.517 22.4473 15.8289 22.4473C19.5179 22.4473 21.7715 20.1928 21.7715 16.5048C21.7715 20.1937 24.0259 22.4473 27.714 22.4473C24.025 22.4464 21.7715 24.7009 21.7715 28.3898Z" fill="white"/>
<path d="M375.689 76.4668C375.689 79.8932 372.912 82.6709 369.485 82.6709C366.059 82.6709 363.281 79.8932 363.281 76.4668C363.281 73.0404 366.059 70.2636 369.485 70.2636C372.912 70.2626 375.689 73.0404 375.689 76.4668Z" fill="white"/>
<path d="M385.052 63.3593C385.052 64.2335 384.343 64.9426 383.469 64.9426C382.595 64.9426 381.885 64.2335 381.885 63.3593C381.885 62.4851 382.595 61.776 383.469 61.776C384.343 61.7769 385.052 62.486 385.052 63.3593Z" fill="white"/>
<path d="M350.773 62.394C350.773 62.735 350.497 63.0111 350.156 63.0111C349.815 63.0111 349.539 62.735 349.539 62.394C349.539 62.053 349.815 61.7769 350.156 61.7769C350.497 61.7769 350.773 62.053 350.773 62.394Z" fill="white"/>
<path d="M364.362 35.4349C364.362 36.1963 363.745 36.8125 362.984 36.8125C362.224 36.8125 361.607 36.1954 361.607 35.4349C361.607 34.6735 362.224 34.0573 362.984 34.0573C363.745 34.0573 364.362 34.6744 364.362 35.4349Z" fill="white"/>
<path d="M370.324 52.3133C370.324 53.5989 369.282 54.6409 367.997 54.6409C366.711 54.6409 365.669 53.5989 365.669 52.3133C365.669 51.0277 366.711 49.9857 367.997 49.9857C369.282 49.9857 370.324 51.0277 370.324 52.3133Z" fill="white"/>
<path d="M383.469 43.474C383.469 44.2191 382.864 44.8236 382.119 44.8236C381.374 44.8236 380.769 44.2191 380.769 43.474C380.769 42.7288 381.374 42.1243 382.119 42.1243C382.865 42.1252 383.469 42.7288 383.469 43.474Z" fill="white"/>
<path d="M86.1394 50.4865C87.1344 50.4865 87.941 49.6798 87.941 48.6848C87.941 47.6898 87.1344 46.8832 86.1394 46.8832C85.1444 46.8832 84.3378 47.6898 84.3378 48.6848C84.3378 49.6798 85.1444 50.4865 86.1394 50.4865Z" fill="white"/>
<path d="M148.158 57.1633C148.158 58.0646 147.427 58.7953 146.526 58.7953C145.625 58.7953 144.894 58.0646 144.894 57.1633C144.894 56.2621 145.625 55.5313 146.526 55.5313C147.427 55.5304 148.158 56.2612 148.158 57.1633Z" fill="white"/>
<path d="M39.7036 45.9522C39.7036 46.8092 39.0089 47.5039 38.1519 47.5039C37.2949 47.5039 36.6002 46.8092 36.6002 45.9522C36.6002 45.0951 37.2949 44.4005 38.1519 44.4005C39.0089 44.4005 39.7036 45.0951 39.7036 45.9522Z" fill="white"/>
<path d="M25.8176 106.925C26.8888 106.925 27.7572 106.057 27.7572 104.986C27.7572 103.914 26.8888 103.046 25.8176 103.046C24.7464 103.046 23.878 103.914 23.878 104.986C23.878 106.057 24.7464 106.925 25.8176 106.925Z" fill="white"/>
<path d="M12.1671 158.817C12.1671 159.417 11.6799 159.905 11.0782 159.905C10.4773 159.905 9.98926 159.418 9.98926 158.817C9.98926 158.216 10.4764 157.728 11.0782 157.728C11.6799 157.729 12.1671 158.216 12.1671 158.817Z" fill="white"/>
<path d="M68.2063 212.215C68.2063 213.446 67.2095 214.443 65.9789 214.443C64.7484 214.443 63.7515 213.446 63.7515 212.215C63.7515 210.986 64.7484 209.988 65.9789 209.988C67.2086 209.988 68.2063 210.985 68.2063 212.215Z" fill="white"/>
<path d="M54.2319 211.545C54.2319 211.915 53.9315 212.215 53.5616 212.215C53.1908 212.215 52.8913 211.915 52.8913 211.545C52.8913 211.174 53.1917 210.875 53.5616 210.875C53.9315 210.875 54.2319 211.174 54.2319 211.545Z" fill="white"/>
<path d="M67.7535 221.395C67.7535 222.115 67.1698 222.697 66.4508 222.697C65.7308 222.697 65.148 222.115 65.148 221.395C65.148 220.675 65.7317 220.092 66.4508 220.092C67.1707 220.092 67.7535 220.675 67.7535 221.395Z" fill="white"/>
<path d="M15.9661 307.169C15.9661 307.883 15.3869 308.462 14.6733 308.462C13.9597 308.462 13.3805 307.883 13.3805 307.169C13.3805 306.455 13.9597 305.876 14.6733 305.876C15.3869 305.876 15.9661 306.455 15.9661 307.169Z" fill="white"/>
<path d="M40.9775 329.608C42.2809 329.608 43.3375 328.551 43.3375 327.247C43.3375 325.944 42.2809 324.887 40.9775 324.887C39.6741 324.887 38.6174 325.944 38.6174 327.247C38.6174 328.551 39.6741 329.608 40.9775 329.608Z" fill="white"/>
<path d="M28.8516 314.94C29.856 314.94 30.6703 314.126 30.6703 313.122C30.6703 312.117 29.856 311.303 28.8516 311.303C27.8471 311.303 27.0328 312.117 27.0328 313.122C27.0328 314.126 27.8471 314.94 28.8516 314.94Z" fill="white"/>
<path d="M383.006 300.108C383.155 300.108 383.277 299.987 383.277 299.837C383.277 299.688 383.155 299.567 383.006 299.567C382.857 299.567 382.735 299.688 382.735 299.837C382.735 299.987 382.857 300.108 383.006 300.108Z" fill="white"/>
<path d="M399.625 291.664C401.413 291.664 402.862 290.214 402.862 288.427C402.862 286.639 401.413 285.19 399.625 285.19C397.838 285.19 396.389 286.639 396.389 288.427C396.389 290.214 397.838 291.664 399.625 291.664Z" fill="white"/>
<path d="M394.527 308.98C395.556 308.98 396.389 308.146 396.389 307.118C396.389 306.089 395.556 305.256 394.527 305.256C393.499 305.256 392.665 306.089 392.665 307.118C392.665 308.146 393.499 308.98 394.527 308.98Z" fill="white"/>
<path d="M378.754 372.073C380.725 372.073 382.322 370.476 382.322 368.505C382.322 366.534 380.725 364.937 378.754 364.937C376.783 364.937 375.186 366.534 375.186 368.505C375.186 370.476 376.783 372.073 378.754 372.073Z" fill="white"/>
<path d="M345.195 375.569C345.195 375.957 344.88 376.272 344.492 376.272C344.104 376.272 343.789 375.957 343.789 375.569C343.789 375.181 344.104 374.866 344.492 374.866C344.88 374.866 345.195 375.18 345.195 375.569Z" fill="white"/>
<path d="M355.07 362.339C355.07 363.439 354.177 364.331 353.078 364.331C351.977 364.331 351.086 363.438 351.086 362.339C351.086 361.239 351.978 360.347 353.078 360.347C354.177 360.347 355.07 361.238 355.07 362.339Z" fill="white"/>
<path d="M305.332 90.8075C305.332 92.103 304.282 93.1531 302.986 93.1531C301.691 93.1531 300.641 92.103 300.641 90.8075C300.641 89.512 301.691 88.4619 302.986 88.4619C304.282 88.4628 305.332 89.5129 305.332 90.8075Z" fill="white"/>
<path d="M248.099 37.6677C248.099 38.2333 247.641 38.6925 247.074 38.6925C246.509 38.6925 246.049 38.2333 246.049 37.6677C246.049 37.102 246.508 36.6428 247.074 36.6428C247.641 36.6428 248.099 37.102 248.099 37.6677Z" fill="white"/>
<path d="M219.171 19.1888C219.92 19.1888 220.528 18.5809 220.528 17.8311C220.528 17.0812 219.92 16.4733 219.171 16.4733C218.421 16.4733 217.813 17.0812 217.813 17.8311C217.813 18.5809 218.421 19.1888 219.171 19.1888Z" fill="white"/>
<path d="M137.951 11.2769C139.001 11.2769 139.852 10.4259 139.852 9.37607C139.852 8.32626 139.001 7.47522 137.951 7.47522C136.901 7.47522 136.05 8.32626 136.05 9.37607C136.05 10.4259 136.901 11.2769 137.951 11.2769Z" fill="white"/>
<path d="M398.007 145.07C398.901 145.07 399.625 144.346 399.625 143.452C399.625 142.558 398.901 141.833 398.007 141.833C397.113 141.833 396.389 142.558 396.389 143.452C396.389 144.346 397.113 145.07 398.007 145.07Z" fill="white"/>
<path d="M364.817 104.849C364.817 106.841 363.202 108.456 361.209 108.456C359.217 108.456 357.601 106.841 357.601 104.849C357.601 102.857 359.216 101.241 361.209 101.241C363.202 101.242 364.817 102.857 364.817 104.849Z" fill="white"/>
<path d="M348.362 110.045C348.705 110.045 348.983 109.767 348.983 109.424C348.983 109.082 348.705 108.804 348.362 108.804C348.019 108.804 347.742 109.082 347.742 109.424C347.742 109.767 348.019 110.045 348.362 110.045Z" fill="white"/>
<path d="M371.72 99.4781C372.405 99.4781 372.961 98.9223 372.961 98.2367C372.961 97.5511 372.405 96.9954 371.72 96.9954C371.034 96.9954 370.479 97.5511 370.479 98.2367C370.479 98.9223 371.034 99.4781 371.72 99.4781Z" fill="white"/>
<path d="M388.313 138.347C388.313 138.735 387.999 139.049 387.611 139.049C387.224 139.049 386.91 138.735 386.91 138.347C386.91 137.959 387.224 137.645 387.611 137.645C387.999 137.645 388.313 137.959 388.313 138.347Z" fill="white"/>
<path d="M374.203 186.513C374.203 187.113 373.716 187.599 373.116 187.599C372.517 187.599 372.03 187.113 372.03 186.513C372.03 185.913 372.517 185.427 373.116 185.427C373.716 185.427 374.203 185.913 374.203 186.513Z" fill="white"/>
<path d="M382.89 200.633C382.89 201.575 382.125 202.339 381.184 202.339C380.242 202.339 379.478 201.575 379.478 200.633C379.478 199.691 380.241 198.927 381.184 198.927C382.125 198.927 382.89 199.691 382.89 200.633Z" fill="white"/>
<path d="M60.2611 376.882C60.2611 378.125 59.2543 379.132 58.0111 379.132C56.7688 379.132 55.7611 378.126 55.7611 376.882C55.7611 375.639 56.7679 374.632 58.0111 374.632C59.2534 374.633 60.2611 375.64 60.2611 376.882Z" fill="white"/>
<path d="M85.9374 395.423C87.9508 395.423 89.583 393.79 89.583 391.777C89.583 389.764 87.9508 388.131 85.9374 388.131C83.9239 388.131 82.2917 389.764 82.2917 391.777C82.2917 393.79 83.9239 395.423 85.9374 395.423Z" fill="white"/>
<path d="M46.6854 384.718C46.6854 385.103 46.3733 385.416 45.9871 385.416C45.6019 385.416 45.2889 385.104 45.2889 384.718C45.2889 384.331 45.601 384.019 45.9871 384.019C46.3724 384.019 46.6854 384.332 46.6854 384.718Z" fill="white"/>
<path d="M61.1136 398.138C61.1136 398.995 60.419 399.69 59.5619 399.69C58.7049 399.69 58.0102 398.995 58.0102 398.138C58.0102 397.281 58.7049 396.586 59.5619 396.586C60.419 396.586 61.1136 397.281 61.1136 398.138Z" fill="white"/>
<path d="M77.5076 379.21C77.5076 380.067 76.8129 380.762 75.9559 380.762C75.0988 380.762 74.4042 380.067 74.4042 379.21C74.4042 378.353 75.0988 377.658 75.9559 377.658C76.8129 377.658 77.5076 378.353 77.5076 379.21Z" fill="white"/>
<path d="M302.085 389.049C302.085 390.47 300.933 391.622 299.512 391.622C298.091 391.622 296.939 390.47 296.939 389.049C296.939 387.628 298.091 386.476 299.512 386.476C300.933 386.476 302.085 387.628 302.085 389.049Z" fill="white"/>
<path d="M16.446 359.825C16.446 361.448 15.1297 362.765 13.5068 362.765C11.8838 362.765 10.5675 361.448 10.5675 359.825C10.5675 358.202 11.8838 356.886 13.5068 356.886C15.1297 356.886 16.446 358.201 16.446 359.825Z" fill="white"/>
<path d="M57.8559 2.84623C57.8559 4.0885 56.8482 5.09621 55.6059 5.09621C54.3637 5.09621 53.356 4.0894 53.356 2.84623C53.356 1.60396 54.3628 0.596252 55.6059 0.596252C56.8482 0.597155 57.8559 1.60396 57.8559 2.84623Z" fill="white"/>
<path d="M321.375 45.9008C322.275 45.9008 323.004 45.1713 323.004 44.2715C323.004 43.3717 322.275 42.6422 321.375 42.6422C320.475 42.6422 319.746 43.3717 319.746 44.2715C319.746 45.1713 320.475 45.9008 321.375 45.9008Z" fill="white"/>
</svg>
